<mxfile host="app.diagrams.net" agent="Mozilla/5.0 (Windows NT 10.0; Win64; x64) AppleWebKit/537.36 (KHTML, like Gecko) Chrome/137.0.0.0 Safari/537.36" version="28.0.4">
  <diagram name="Page-1" id="y-AuIUWbZPfydCBzfpuO">
    <mxGraphModel dx="1685" dy="1101" grid="0" gridSize="10" guides="1" tooltips="1" connect="1" arrows="1" fold="1" page="0" pageScale="1" pageWidth="827" pageHeight="1169" math="0" shadow="0">
      <root>
        <mxCell id="0" />
        <mxCell id="1" parent="0" />
        <mxCell id="SXlrUgiKZUOwkP90kZ7k-85" value="Front_End Features" style="rounded=1;whiteSpace=wrap;html=1;fillColor=#d5e8d4;strokeColor=#000000;labelPosition=center;verticalLabelPosition=top;align=center;verticalAlign=bottom;arcSize=7;fontStyle=1" vertex="1" parent="1">
          <mxGeometry x="432" y="489" width="373" height="77" as="geometry" />
        </mxCell>
        <mxCell id="SXlrUgiKZUOwkP90kZ7k-84" value="EDA" style="rounded=1;whiteSpace=wrap;html=1;fillColor=#d5e8d4;strokeColor=#000000;labelPosition=center;verticalLabelPosition=top;align=center;verticalAlign=bottom;arcSize=7;fontStyle=1" vertex="1" parent="1">
          <mxGeometry x="-154" y="406" width="268" height="156" as="geometry" />
        </mxCell>
        <mxCell id="SXlrUgiKZUOwkP90kZ7k-89" style="rounded=0;orthogonalLoop=1;jettySize=auto;html=1;edgeStyle=orthogonalEdgeStyle;flowAnimation=1;" edge="1" parent="1" source="SXlrUgiKZUOwkP90kZ7k-83">
          <mxGeometry relative="1" as="geometry">
            <mxPoint x="441" y="-56" as="targetPoint" />
            <Array as="points">
              <mxPoint x="1093" y="132" />
              <mxPoint x="1093" y="-56" />
            </Array>
          </mxGeometry>
        </mxCell>
        <mxCell id="SXlrUgiKZUOwkP90kZ7k-83" value="Deployment" style="rounded=1;whiteSpace=wrap;html=1;fillColor=#d5e8d4;strokeColor=#009900;labelPosition=center;verticalLabelPosition=top;align=center;verticalAlign=bottom;arcSize=7;fontStyle=1" vertex="1" parent="1">
          <mxGeometry x="905" y="69" width="154" height="126" as="geometry" />
        </mxCell>
        <mxCell id="SXlrUgiKZUOwkP90kZ7k-82" value="Final model" style="rounded=1;whiteSpace=wrap;html=1;fillColor=#d5e8d4;strokeColor=#000000;labelPosition=center;verticalLabelPosition=top;align=center;verticalAlign=bottom;arcSize=7;fontStyle=1" vertex="1" parent="1">
          <mxGeometry x="650" y="320.75" width="316" height="126" as="geometry" />
        </mxCell>
        <mxCell id="SXlrUgiKZUOwkP90kZ7k-81" value="Models Trainings" style="rounded=1;whiteSpace=wrap;html=1;fillColor=#d5e8d4;strokeColor=#000000;labelPosition=center;verticalLabelPosition=top;align=center;verticalAlign=bottom;arcSize=7;fontStyle=1" vertex="1" parent="1">
          <mxGeometry x="459" y="69" width="437" height="126" as="geometry" />
        </mxCell>
        <mxCell id="SXlrUgiKZUOwkP90kZ7k-77" value="PreProcessing" style="rounded=1;whiteSpace=wrap;html=1;fillColor=#d5e8d4;strokeColor=#000000;labelPosition=center;verticalLabelPosition=top;align=center;verticalAlign=bottom;arcSize=7;fontStyle=1" vertex="1" parent="1">
          <mxGeometry x="316" y="213" width="288" height="181" as="geometry" />
        </mxCell>
        <mxCell id="SXlrUgiKZUOwkP90kZ7k-76" value="Data cleaning" style="rounded=1;whiteSpace=wrap;html=1;fillColor=#d5e8d4;strokeColor=#000000;labelPosition=center;verticalLabelPosition=top;align=center;verticalAlign=bottom;arcSize=7;fontStyle=1" vertex="1" parent="1">
          <mxGeometry x="68" y="213" width="237" height="172" as="geometry" />
        </mxCell>
        <mxCell id="SXlrUgiKZUOwkP90kZ7k-17" style="edgeStyle=orthogonalEdgeStyle;rounded=0;orthogonalLoop=1;jettySize=auto;html=1;entryX=0.5;entryY=0;entryDx=0;entryDy=0;flowAnimation=1;" edge="1" parent="1" source="SXlrUgiKZUOwkP90kZ7k-1" target="SXlrUgiKZUOwkP90kZ7k-16">
          <mxGeometry relative="1" as="geometry" />
        </mxCell>
        <mxCell id="SXlrUgiKZUOwkP90kZ7k-64" style="edgeStyle=orthogonalEdgeStyle;rounded=0;orthogonalLoop=1;jettySize=auto;html=1;entryX=0;entryY=0.5;entryDx=0;entryDy=0;flowAnimation=1;" edge="1" parent="1" source="SXlrUgiKZUOwkP90kZ7k-1" target="SXlrUgiKZUOwkP90kZ7k-28">
          <mxGeometry relative="1" as="geometry">
            <Array as="points">
              <mxPoint x="-10" y="49" />
            </Array>
          </mxGeometry>
        </mxCell>
        <mxCell id="SXlrUgiKZUOwkP90kZ7k-1" value="Config" style="shape=image;verticalLabelPosition=top;labelBackgroundColor=default;verticalAlign=bottom;aspect=fixed;imageAspect=0;image=data:image/gif,R0lGODlhMAAwAPetAOZRAOdSAedTAudTA+dVBuhXCehaDehcD+hcEOlgFelgFulhF+liGeljGuplHepmHupnIOpoIeppIuppI+pqJOttKOttKetuKutvLOxxL+xzMux2Nu16PO1+Qu1/Q/+gAP+hAf+hAv+iA/+iBf+jBv+kCf+lDP+mEP+nEP+oFP+oFf+pFv+sH/+wKf+xK/+xLP+zMf+0NO6ARe6FTO+HT++IUO+KU++LVe+NV/CNWPCOWfCSX/+6RP+7R/+7SP++T/CTYPGUYvGVY/KecPKecfKfcvKgc/KhdfOle/Onff/AVP/BVv/BWP/CWv/DXP/FYf/FZP/GZf/GZv/HZv/HaP/Lcf/Qf/SpgfSth/SvifSvivWwi/Wzj/a6mva9nve/of/Rgf/VjP/Wj//WkP/Xk//Zlv/amf/amv/am//bnffDp/jHrf/dov/epP/fqPnQufnQuvnRu//gqv/gq//hrf/isv/js//ktP/luP/nvPrWwvrZx/vayPvayfvbyv/pwv/rx//tzfzi1Pzj1v/u0P/u0f3p3v3p3//w1P/x1//x2P/z3v/z3//03/3u5f/25P/35/7w6P7w6f7x6v/36f7z7f707//46v/46//57P/57v/28f/38//68P/78//49P/79P/59v/69//89P/89f/99//7+f/9+P/9+//++//9/P///P///v///wAAAAAAAAAAAAAAAAAAAAAAAAAAAAAAAAAAAAAAAAAAAAAAAAAAAAAAAAAAAAAAAAAAAAAAAAAAAAAAAAAAAAAAAAAAAAAAAAAAAAAAAAAAAAAAAAAAAAAAAAAAAAAAAAAAAAAAAAAAAAAAAAAAAAAAAAAAAAAAAAAAAAAAAAAAAAAAAAAAAAAAAAAAAAAAAAAAAAAAAAAAAAAAAAAAAAAAAAAAAAAAAAAAAAAAAAAAAAAAAAAAAAAAAAAAAAAAAAAAAAAAAAAAAAAAAAAAAAAAAAAAAAAAAAAAAAAAAAAAAAAAAAAAAAAAAAAAAAAAAAAAAAAAACH5BAwEAAAAIf8LTkVUU0NBUEUyLjADAQAAACwAAAAAMAAwAAAI/gBbCRxIsKDBgwgTKlzIsKHDhwVLmQBBEUQKiBgRLqL4oeOHUxlDDgTE0WMjkQ4vnckkcBWYkh3TDHwUxhPKg0xAlKByx0VFjx9A9MDjhASIKjcL/gEBtKnToCBGKEoqkBUMpk+zVvRBtZUZmFBjzIGEKc+PrHWo8gAL4smqgmJ+eoRCVZMSrB1fpDrYpCLFKaC6tioDFA3CQBVH0BEssBPQQglHUAzBeGCIipARSgZBuTKdzSAMH0RMcQQbwaSm4P2gl69foYyoRmHrFq7cjieo2mELQixZs1mldPWxOivQiigoPdwTAIBzAAHWCEw0wvjTimMgdmn+PACWgVVA/pBwgqfH7aAr3FhRAaLF24dJuDsPMGSgpzCPBqYBu2SUwFJtIILRDvJBp0NBoQzUCFhkQDSIBUhE0kooVyBQYAAFDFFJK3zMIEAcAp0ClhwQeRBAAAQAUcGJF57YQAcsXqCKQCz4JQIhD61R4HM89shjAFwkJQoEO/po5HwHTHLTFSf+eKINcEgiCRw2sOikEDcx0GR3A6hhkBoDtBjBTXo4cOF3B2FxoQeOJGUJDjwmYApCpiTAIgFasCJYBCzmoFAOLEpQmZ0n1pfQECwqUBkFff7J4gOCmUJEnHMeVCePNHCS1CAZnImQmj9iYMhNZl7Y5ZdhOqnBTUVsOd+TYVFOWaWr0AWwxU2bLFDkkT4GUAEqSXmxK68/vkEVKxuwKEMDVnZ34gQcsFiDYH4oEIQgrVQyRAEXGnDEJ630cQMDh1RWkA4XGmHuQoj+mMW6CoHa3RfwJqTjj3vUq+9CAQEAIfkEDAQAAAAsAAAAADAAMACH5lEA51IB51MC51MD51UF51UG6FYH6FcJ6FoM6FoN6FwP6V4S6WAV6WAW6WEX6WIY6WIZ6mQc6mYe6mYf6mgh6mok62sl62wn620p628s7HMx7HY27Hc37Hg57Xw/7X5C/6AA/6EB/6IE/6MH/6QI/6QJ/6QK/6UL/6UM/6YO/6YP/6cS/6gT/6gU/6kW/6oY/6oZ/6oa/6we/6wf/60i/64k/7Ao/7Es/7Iv/7My/7Qz/7Q0/7U2/7Y5/7g+7oBE7oFG7oJH7oVM7oZN74hQ74lS74pT74xW741X8I1Y8I5Z/7pF/7tG/7tI/75O/75P/75Q8p5w8p5x8qF186V686Z8/8JZ/8Rf/8Vh/8Zj/8Zk/8dn/8149K2G9K2H9bGM9rmY9rqZ9ryc9r2e97+h/9OG/9SL/9aP/9aQ/9eT/9iU/9mX/9qa/9qb98Ci98Gk98So98Wp+Met/92i/96m/9+o+cy0+dC5+dC6+dK8/+Cr/+Gt/+Kv/+Ox/+S2/+W3/+a5/+e8+tbC+tbD+tnH+9zL+93M+93N+97O+9/P+9/Q/+jA/+nB/+nD/+rF/+rG/+vH/+zK/+zL/+3M/+3N++DR/OHT/OLU++TX/OTX/+7Q/+/T/enf//DU//DW//HX//HY//Pd//Pe/ezj/e7m//Th//Xi//bk//fn/vDp/vLr//fp/vTu/vTv//jq//jr//ns//rv//bx/vby//j0//n2//r3//z1//33//v4//v5//35//77//38///8//79///9///+////AAAAAAAAAAAAAAAAAAAAAAAAAAAAAAAAAAAAAAAAAAAAAAAAAAAAAAAAAAAAAAAAAAAAAAAAAAAAAAAAAAAAAAAAAAAAAAAAAAAAAAAAAAAAAAAAAAAAAAAAAAAAAAAAAAAAAAAAAAAAAAAAAAAAAAAAAAAAAAAAAAAAAAAAAAAAAAAAAAAAAAAAAAAAAAAAAAAAAAAAAAAAAAAAAAAAAAAAAAAAAAAAAAAAAAAAAAAAAAAAAAAACP4AhQkcSLCgwYMIEypcyFDYqU2xGkqcOJBHiBAnbDQpRbHjwV0jLorU5JHiqj7BBkYCwRLERZIlG/rqESIHpGB0erR0GWJTzIZcRIaQcXHnxR6ihAFbdOanwT87o7YUyeKKi4t+nA5E5UKqV69LtAqUVMLoRR16UMEK5ESk0U5ihTVSITQEFmAF1RSdqiWusE0pRN7gddBKCKMm/AprIZINQkqHW9LYo1goJYTASIg0s8svrjJCfR4MVkKk4jozjLZ5LFKG4hORWYYYXFikC9Fit8TmicVX3roo+MT9tFvkjrRrn7idOsdjK0uZCDb5Sr2lCEcSyQTBgCBAgAS/Bv4Cuhgjy9W91ctMJBIAgHsAAS4RTPMopSkf6Hm+0HyRSUqJ7L0H3xgF1TJQJ/nVgMYtobQFgysU/dDeewEcYaAwqSgxAB4CaZLfGgQx4glFtGQwoXveITAFGAt41wApwni42yQUySIEFYcIU8kE3gnoI4Ue/PIKFDiscBEJhE30hXcBSKAAkz/+6F0VBN0CCigU9TJBlFz66J0AgjgVx4k+GnGHKqrcUUSPFAagACJOcUCmdwO8YZAbBQgYAASKOFUImygG0AVCXghIASdajaLBnAzoglAuDDAJRFzBkBEBkwEkoVASTFqgmC0JMBmFQlEwyUArilXApKYJccrkA5hy+BWEqbkgpEukmAZQxCxaJdIApl4g1AWXmDiVx5OYFuCGQW8MoKd3Hzg1SJ5RFnFmmkYACp93djhlCAFdhrvtBf/99IW4Xh5gAJNhxDUElOJCYAgtcCCxgS1xsSKBdw6IMQUCzwbQASuKFUQIA1LIIlAtR+QaABIFMzSGw0REvNAlFFus0C+hBoAABkGQobFCmViCqsUBAQAh+QQMBAAAACwAAAAAMAAwAIfmUQDnUgHnUwLnUwPnVATnVQXoVwjoVwnoWAroXA/oXBDpXhLpXxTpYBbpYhnpYxrqZBzqZh/qZyDqaiTrayXrbyvrcC3rcS7scS/seDjseDntejvtfD//oAD/oQH/oQL/ogP/ogT/ogX/owb/pAj/pAr/pQv/pQz/pg7/pg//pxL/qBX/qhj/qxz/qx3/rB7/rSD/rSL/riP/ryf/sCr/sSv/sSz/szH/szL/tDT/tzv/uD7/uD/ug0nuhErvh07vh0/viFDviVHvilPvjVfwjVjwjlnwj1rwkFzwkl//ukP/u0b/vEn/vUv/vUz/vk7/vlD/v1LxlmTxmWnynG7ynnDyoHPzpXr/wVb/wln/wlr/xF//xGD/xWH/xmT/xmX/x2j/ym7/y3L/zXj/znn/z3z/z330q4P0rYb0rYf0roj0r4n1sIv1sYz1so72upn2vZ73vqD/0ID/0oT/1o7/1o//1pD/2JT/2Zb/2Zj/2pr/2pv3wKL3waP3wqX3w6f4xar4xqv4x63/3KD/3qT/36j4y7P5zrf5z7j50Ln50bv50r361L//4Kv/4a3/47L/5LX/5bf/5rv/57z/573/57761sL72sj73c3/6sT/68j/7Mn/7Mv/7cz/7c3/7c7849X849b/7tD/7tH/79L/79P85tr/8dj/89z/89397OL97OP97eT/9OH/9eL/9uT/9uX/9ub+8On+8uv/9+j+9Oz+9O7+9O//+Or/+Ov/+ez/+e7/+u//9vH/9/P/+vD/+vH/+PT/+PX/+fb/+vf//PX//Pb/+/n//fn//Pr//fv//vr//vv///z///3///7///8AAAAAAAAAAAAAAAAAAAAAAAAAAAAAAAAAAAAAAAAAAAAAAAAAAAAAAAAAAAAAAAAAAAAAAAAAAAAAAAAAAAAAAAAAAAAAAAAAAAAAAAAAAAAAAAAAAAAAAAAAAAAAAAAAAAAAAAAAAAAAAAAAAAAAAAAAAAAAAAAAAAAAAAAAAAAAAAAAAAAAAAAAAAAI/gChCRxIsKDBgwgTKlzIUOCuTMUaSpw4cIyHEDnCFNpFsSM0ZKgKyvDQoWSHOx4nLmvyoYwzgZ48kDQZKWVDZ1lkeuBBiAkKmSY7nLLJEAzQoEhLciKqcI7OpElTbIIG61ElpgTpPIUa1MMJFjJbYCX45WjJHI1o5aIExWwHmZ3GCnTGQ6cHLs0K2plZUmYZuQKd6KyR16CWrh5sAIbmQmcehJ8Qe2g1NpUYu6ISirAbAgswprxY2vUwCuGzETrNwBr7iu9bD3oQxpT5YvENxDSWHdSiM8piOZK7vCRYx+4S3XJFcc3hiJauSU/cPkFO0deiWwVhyIyhYivXvlsk/qryMwXDgABWCmqSxJHUCrdcPUBpKIxAAAD4AUhQWAo+1B3GNPRMAfflFwAmAylDRQSmCHSKWyTogIcXOuHwmUQRFIhfAD4YMowsHAQQAASqQBOJW48JNIgJM+RC0QYaAiBiAAo4MGMAE8iyx2gg4EJQLL9QdImN+RVppIgW1AIJGTyU4IESHr3hhiXCXIKAiEZmKaOISAzEDCeudGTLeQEMYMCMWh4ZQAGJYBVHmgEMcYgssyQSRIwiwjEWEEXOSMAfBv1BpohXjCXMAX2KiAZCadzIxliC4BkAA8QglMwCM/ow1hqSGqEQETM+EMpYighh34xVKFTFjQIUMSpWpas8MCMRChmBZX4CADKWDzMukAxCxDBw64aIjMXGjWkghAaa+SVwzFhS3DgAoAX9cWqMR4x1xrAyBpHILLIcMkSMRQaCVR/MppnljAcEg1US6aor4gGMgMIHFW2MNUwG3MLZwCKLDdTLBTc+oEC8AfwQMEGzUCBiD7YMYwivfVawMEGsaKAGQZjgecDFC0nQJwHCgJyQFWViMIUfJZqM0C2L+HJxQAAh+QQMBAAAACwAAAAAMAAwAIfmUQDnUgHnUwPnVATnVQXnVQboVgfoWAroWQvoWw7oXA/oXBDpXRHpXhLpXxTpYBbpYhjpYhnqZBvqZyDqaCHrbSjrbyvrcC3sdDPseDntejvtfD//oAD/oQH/ogX/owb/owf/pAn/pAr/pQv/pQ3/pg//pxD/qBX/qRb/qRf/qhn/qx3/rB7/riP/riX/sCj/sSv/sSz/si7/tDT/tDX/tjn/uD/ugEXugUbuhErviVHviVLvjVfwjVjwjlnwkV7/uED/u0j/vEn/vEr/vU3/vk7/vk//vlDxlGLynG3ynnDyonbzo3fzo3jzpnzzqH//wFP/wlr/xGD/xWH/yGr/yGv/yWz/ym//ynD/y3H/znr0q4P0q4T0rYb0rYf0roj0r4n1so31so71tJH/0YH/0oX/04b/1Y38zJb/1pD/2JX/2pn/2pr/25z3waP3wqX3w6b3w6f4xar4x6z4yK7/3aP/3qT4y7P5zrf5z7j50Lr50bv6077/4Kv/4az/4a3/5LX/5rv/57z/577618T73Mv73c3/6cH/6cP/6sT/6sX/68j/7Mv/7cz/7c7/7s/849X/79L85dj/8NT/8Nb/8df/8Nj/8dn/8tr/89z/89396uD96+H97OL97eT97uX97ub+7+f/9eL/9uT/9uX/9ub+8Oj+8On+8er/9+j/9+n+8uz+9O7/+Or/+Ov/+ez/+e3/9vL/9/P/+/L/+vf//PX//ff/+/j/+/n//fj//Pr//vr//vv//vz///z//v3///3///7///8AAAAAAAAAAAAAAAAAAAAAAAAAAAAAAAAAAAAAAAAAAAAAAAAAAAAAAAAAAAAAAAAAAAAAAAAAAAAAAAAAAAAAAAAAAAAAAAAAAAAAAAAAAAAAAAAAAAAAAAAAAAAAAAAAAAAAAAAAAAAAAAAAAAAAAAAAAAAAAAAAAAAAAAAAAAAAAAAAAAAAAAAAAAAAAAAAAAAAAAAAAAAAAAAAAAAAAAAAAAAAAAAAAAAAAAAAAAAAAAAAAAAI/gCFCRxIsKDBgwgTKlzIkGAlYA0jShx4qIOKK4smahyoxkXGgUM6iOzQos7GiMCwiBQxSCAjDjA5iDRzkmGtIjE5fBBCokNOkYlqLpzhM6dRmB1E7BKq8EjRoz89tGSKsBUKqEZFmsj0qhIiW1QJ/vk5o08pWIGIPJUpsk3YgXZySoFIMM1PkVXeCnQqEsZSg1FGjqwR1hYgKiNGskHoSLDIEb2YUkrs+BFCYCBE5qTEVNPdDpEQBsss+IQlqiUcd1h8sNFIEloU0WVqQ3UMXwcDi4SiV1iWkTmn4K6b809vOyNDCC6bypUgI2v9nMTFySCvSal8kUqhGWtMEpck/v7ag0SBgU8KGSn3HrMDjFwMUSWBEKB+gCUFvzj5JXCXiLVYWaQKQ3LYZ98CsgzURH05xCJMIt0h9QEQKuQkgygNbWIfABwCgMMTeTDRIQAXcFJGhBysIVAmLIgUxCwSRVDfiDR2GAAEaBA10gp/CTMKDVbM1pAOM9ZIY30WCIMJGS90cAZVfBxQpJE2BuAGQZfwslEshEjCCigObEiljTy8lQSVAeygxyqo6LFDACM6wMpbGoxonwBwGAQHAfYN4ElYvyBgZ31dIOSFgWKEBQmcVTqgC0K0PGDfBXsEw9QbjHJYnw8K+WBgABIwEUpNTGQKQH1KKKTElKdyUZMhqD408CmnCXlqagB0MPULIRjY9wAtCOkS5q2bhBWGgV4g1IWYHDbwFigF2EdAngXBIQCzANzwVicJ2KkmKqu4aeqITYQVzAbjGmkfA4YUgocbpoQFBqtoBlDAHb0JRAG96gbwQ74CQTJBujXWVwHAAp2SwYhb5PEEDoMGEC/Ct/RQ3xgDybLApwHMgfBAY8RR0BIGQpAEKh8n9IkBCiCxB38pK8QJLgAHBAAh+QQMBAAAACwAAAAAMAAwAIfmUQDnUgHnUwLnUwPnVQXnVQboVwnoWg3oXA/oXBDpXhLpXhPpYBbpYRfqZBvqZBzqZh7qZyDqaiTrayXraybrbSjrbyvscS/sczLtfkL/oAD/oQH/oQL/ogP/ogX/owb/owf/pAn/pQv/pQz/pQ3/pg//pxD/qBP/qRb/qx3/rB//rSL/riT/ryf/sSz/si7/szD/szH/tDT/tzz/uD7ugkjug0nviVLvilPvi1Twjlnwj1v/uUH/u0b/u0f/vEn/vUv/vk7/vlD/v1Hwk2DxlmTxmmvynG3ynnD8umHyoHTzo3j/wFT/wVb/wln/wlr/xGD/xWH/xmT/x2j/yGr/znrzqYD0qYH0qoL0q4P0rIX0rYb0rYf1sYz1so31tpT2uZj2u5v3vqD/0oX/1o//1pD/15H/15L/2JT/2JX/2Zj/2pr/2pv3waP3waT3wqX3w6b3xKj4x6z/36f4y7L5zbX50Ln50bv50rz61L//4Kn/4Kv/4a7/5bj/5rr/5rv/57z61sL61sP62cf72sj/6MD/6cP/7cz/7c7/7s/74dL849b/79L85dj85dn859v96N396d//8NX/8Nb/8df/8dj/893/9N/96uD+7+f/9OD/9OH/9eP/9uT/9uX/9+f+8er+8uv/9+j+8+3+9O//+Or/+Ov/+ez/+e3/+e7+9fD/9vH/9vL/+vD/+vH/+/L/+fb/+vf//PT/+/j/+/n//fj//fn//Pr//fv//vr//vv//fz///z///3///7///8AAAAAAAAAAAAAAAAAAAAAAAAAAAAAAAAAAAAAAAAAAAAAAAAAAAAAAAAAAAAAAAAAAAAAAAAAAAAAAAAAAAAAAAAAAAAAAAAAAAAAAAAAAAAAAAAAAAAAAAAAAAAAAAAAAAAAAAAAAAAAAAAAAAAAAAAAAAAAAAAAAAAAAAAAAAAAAAAAAAAAAAAAAAAAAAAAAAAAAAAAAAAAAAAAAAAAAAAAAAAAAAAAAAAAAAAAAAAAAAAAAAAAAAAAAAAAAAAI/gB/CRxIsKDBgwgTKlzIsKHDhwNbmUlF0NYLH4UgahzoJ8UGGrkGjtlAckafjQ5lTSFJEsovV5JCbNBAU4MUlAtfrWDJskTNnxrS4FTYiwVLoDVZfkA1VOGeo0g1sPzRdKEMklGlkhRRqSpCXkZZytgjyhSgID9paDrVKqRXgXp4QuFV8AxUmjy8GjojxSNJF7oOPsFaU0VVTXc1sEF4iDBNEVVLJWaE0NeHmUlrNe2VOFFlEJhpbvBU9YRjDWsQIjq9wVLVFqdduC3ohGWLKnMoeWVy+eeGKL0KluHJ523BXEJ4jv2E6g/amjF8GS/YyXTWnzDoPtzV5kIWg4RU/hEEEvr6BjIOb4GRECBAgUcE5QRwUEegKQ/ls24g8YlhnQftBVjDQIscECARq9hVHkkjdOCbCZQtdAUAFAIQIA5FaEFBABUCAEESp/HRii9o/NQDJw010uGKLFoYQSJNcEDSEARRscEIakCEQYAtrhiAFwJNAgUKmxDUCxqXaLQEjz1WGAEt0wkUCQJMNgmAGFEKdEOHAdxgByij3IEDhxUa8RYuFiRAZYABEPCGQW8MEGABmXiVCZkUBsgFQluwaYMbmDSlCJ4WBsDALAjdskB7HUaQB054ENreDgrpwGiFAYSBUxySBoCEQkhcmicdOH3RqQ4K7SCqhYPg9AYBmFwGsMAtCM3CwKoBwIfTLYrAkQObWyDERZUWsmJnAQEO8GZBrxLbgHFHcInDHaOAYscNhNqASSiq0PpWF1bm2Z4BjmRJigLhFhqAFVn+ogShPQaYQbuLptthJFkSUgGXFWhRxJirYtEuLEgI0N4CkAxUA5sBPFBfu78IMkEBgRD0CLIBSACGtxD/Egu+BWVxQRu7dGxyQgEBACH5BAwEAAAALAAAAAAwADAAh+ZRAOdSAedTAudTA+dUBOdVBedVBuhWB+hXCOhXCehZC+haDehcD+lfFOlgFuppIuppI+trJexxL+xzMex0Mex1NO15Ou16O+17Pe19QP+gAP+hAf+hAv+iA/+iBP+jBv+kCf+lC/+lDP+lDf+mD/+nEf+oE/+qGP+qGf+rHP+sH/+uJP+wKP+wKv+xLP+yL/+zMP+0M/+0NP+1N/+1OP+2Oe6CR+6CSO+HTu+HT++IUO+KU++LVO+LVfCNWPCPWv+4QP+5Qf+8Sv+9TP++Tv++UPCTYPCUYfGWZfGYaPGbbPKcbfKcbvKdb/KecPKfcv2/YfKhdfOjd/OlevOle//AVf/BWP/CWv/DW//DXP/EYP/FYf/Iav/JbP/Kbv/Nd/SqgvSrhPSshfSthvSuiPWyjvW2k/a3lfa4l/e+oP/Thv/Th//Wjv/Wj//Xkf/Xk//amv/am//bnPfDpvfEqPjFqvjHrP/dof/dov/epv/fp/jJsPjKsfnQufnSvPrTvv/hrP/hrf/ir//isP/ktf/luP/nvP/nvfrUwPrWwvrXxPvayPvdzPvdzfvfz/vf0P/owP/pwf/pwv/qxP/syv/tzP/tzf/tzvvg0fzh0/zi1Pzk1//u0P/u0f/v0v/v0/zl2Pzl2f3p3v/w1f3s4v3u5v7v5//04f7w6P7x6v/36P/36f7y7P/46//57f/57v/67//28v/68P/68f/78v/69//89f/9+P/8+v/++v/++//9/P///P/+/f///f///v///wAAAAAAAAAAAAAAAAAAAAAAAAAAAAAAAAAAAAAAAAAAAAAAAAAAAAAAAAAAAAAAAAAAAAAAAAAAAAAAAAAAAAAAAAAAAAAAAAAAAAAAAAAAAAAAAAAAAAAAAAAAAAAAAAAAAAAAAAAAAAAAAAAAAAAAAAAAAAAAAAAAAAAAAAAAAAAAAAAAAAAAAAAAAAAAAAAAAAAAAAAAAAAAAAAAAAAAAAAAAAAAAAAAAAAAAAAAAAAAAAAAAAAAAAAAAAj+AIEJHEiwoMGDCBMqXMiwocOHA3/dYaGm4CA3vCBqFCioxYYNHioN9ARiAwxKGx3SmrFBg0sNLly1krXi4wYOXmilXGhrRMuXNjm81PDRys6FXH4OXUp0A6SjCjkpZQoUCFSFkaZSJXrnKkJeHm3GCKTqlSEiNjfU8EpQTpcsQdJu8VWwTVo8sNgCKzF1Q4tcB7FMNVHD1tUQfeEgtNR3w6qrH4du6ITw1wfJG2RBvRUZqKeEl4Fu0AVVVmeXG+IgvNT4Ki8rLxDbdEHa4JW+JPQCm5RWS0aCdm1W+bJmkG5gaG3KAKSq1aEiaV/8Oj4wj1aqHShDNFUGV8FEOPr+EKRxnekGSQ9/oWEQQAnBWhACBMigCFih01uJCnGYyYJ8+XUMNMV/8t0ABX4c2ITZJwydUQAAEAIQwAJUILFEAfJFCAAFbMi2gQijuDILFpKp8NlCTASg4YosAgAGMKcM8ZEeA7lywkcovAEYQ6QY0OKK/xVQykCAvFEQISmsYdhDRvyo4X87UCfQH05G+N8DsUhpw5M69MFKKn7woGKETVCHCYEDzGHQHAT8h0ASZNDRyFGoSLGDBAoQOAZCYvz3JCg7pTEmhPI54N1BtTSQoZWO7GTHoBIG8INCPyxKKCI77QGpfE4o5ISlEmKakh+bSkopqAHwsRMipTZQC0KPuDiA6h47MVJqAGIgNAaBE07Qgyg79VKHGWFEYcB/BKhZ0BwDECiqbk48yYMfqbDShw6QXiBlLBH4WSUAzx6HgbdVdkqdJt+umIAp1CmR7pNPUAfBkwEcsAQSVCwAaQFnUBeKDwIQmKtAdRBoQSZSCvRIDvJVsAtBSgTAABrTJTzQIkdsUhAuZbBr8ccIBQQAIfkEDAQAAAAsAAAAADAAMACH5lEA51IB51MD51QE6FcJ6FgK6FoN6V4T6V8U6WAW6WEX6mQb6mQc6mUd6mYf6mgh6mkj62wn620o620p624q63At7HMx7HQz7Hg47Xs97Xw/7X5C7X9D/6AA/6EB/6EC/6IE/6IF/6MG/6MH/6QI/6QJ/6QK/6UL/6UN/6YO/6YP/6cR/6cS/6gT/6gV/6oa/6sb/6sc/6we/60g/60i/7Ao/7Aq/7Es/7Mw/7Qz/7Q0/7U3/7c7/7g/7oBE7oNJ7oVM7oZN74dO74lS74pT74xW741X8I5Z/7hA/7lC/7tI/7xJ/71N/75P/79S8JNg8ZRi8ZZk8Zpr8Zts8pxt8p1v8p5w8p5x8qB086V7/8BV/8JZ/8Ja/8Rf/8Rg/8Zl/8hp/8hq/8ls/8pv/8tx/8tz/812/85786mA9KmB9KuE9K2G9K2H9K+J9bGM9bKO9bOP9rub9ryc97+h/9CA/9OH/9KJ/9SK/9aQ/9iU/9iV/9mW/9qa/9ud/9ue98Ci98Gj98Gk98Om+Mar+Mes/9yg/9+o+Mqx+Muy+Muz+c21+dC5+dC6+dK8+dK9+tO++tS//+Gs/+Kv/+Oy/+Oz/+W4/+a6/+e8+tnH+9/Q/+jA/+rG/+vH/+3N/+7P/OHT/+7R/+/S/+/T/OXY/Ofb/Ofc//Lb/erg/ezj//Xi//bm//fn/vDo/vLr//fo/vLs/vTu//jr//ns//nt//rv//by//fz//rw//vy//vz//j0//j1//n2//r3//z0//z1//z2//33//v5//34//35//z6//37//77///8///9///+////AAAAAAAAAAAAAAAAAAAAAAAAAAAAAAAAAAAAAAAAAAAAAAAAAAAAAAAAAAAAAAAAAAAAAAAAAAAAAAAAAAAAAAAAAAAAAAAAAAAAAAAAAAAAAAAAAAAAAAAAAAAAAAAAAAAAAAAAAAAAAAAAAAAAAAAAAAAAAAAAAAAAAAAAAAAAAAAAAAAAAAAAAAAAAAAAAAAAAAAAAAAAAAAACP4AlwkcSLCgwYMIEypcyNCVKoYQIxJERqkJCBjBCvqSyHFgsjMvPIj0gIeglxSTOnIcFqKDyw4eXKwSCGYkHZUSkbyEKXJEjZEimdzCybDOzqMvR44huvAOUqQiV7himpCTiKdHRRaiWlASkiVaZgDVEWmVrEtNgLJQxtWkh50iuyArmAdopbYDebxNeuPYwS0jm8TCu6zFXpce+CDsBPQDDjKzqNISCVcUQmUl4HrYRJXxYZieECYjoXkq02F5nLAAqvggY7gqCCsTM7Lv388echBeBgqol2QF9VBOymX3shhAc0RSdTbtSBtmwnixRLQYW4J7hmN1aQIUV2UVFv5kKSUwVQrt2/tw7AXFBy+CgwLID6ABkJ2R21+WkXjqgvwNvQxkwXzzPVEGUB7QcB56MkTkyAEARAiAEIik8YSEAMznxjKGnCBSEsAsk0sPuIW2kBwCBIDhihLO94lAodCwAy4DaQIUCl/IwhAV8rHIonwMEETMMAUp4QEPfvwSESwJqOgjhvIpMIpCuJiiUiBOPhnhfBLoYpxADkA5xCKtvMIIEVkCkMETT0AhCF6YECjAHwbNkWKPElaA1xUEroHQGvNhSABTymTyBhAFzJeAMAgJgwCeW6JClBppyneEQkdAmiEkRMFRaQBWKGSFpgHEQVQin16aUKaVokEUKZifIsDoQcI0Od8EUxCyC1HGDAClfH4eBOh8UuAFwa8BCDCHQX/cKV8jeLHxgxFRcAAlEYy80soiQ6T5wJfL2BJBoFpuqQi4pRyg6ZMBNFDLl8UYsK6P8lXx5SPklpusHF9ikS8AT6SBiBAYHuAIuEUQKB8GA/WygXwXnALuMsYcIsQA8z1CEC8+QBHgxAOx0gYFQYBsMkcBAQAh+QQMBAAAACwAAAAAMAAwAIfmUQDnUgHnUwPnVQXoVgfoVwjoVwnoWgzoWg3oWw7oXA/oXBDpXRHpYBXpYhjpYhnqZBzqZh/qaSLraybrbSnrcC3rcS7scjDsczLsdDPteTrtfUD/oAD/oQH/ogP/ogT/ogX/owb/owf/pAr/pQv/pQz/pQ3/pg7/pg//pxL/qBP/qRf/qhr/rB//rSD/riP/riT/sCj/sSv/szL/tDX/tTb/tzv/tzz/uD/ugUbugkjuhUzviVLvilPvi1Xwjlnwj1r/ukT/u0f/u0j/vEr/vUv/vk7wk2DxlGLxlmTxlmXxmmvxm2zynnDzqH//wFX/wln/wlr/w1v/xF7/xGD/xWH/ym//ynD/y3L/zHX/zXf/zXj/znr/z3z/0H/0rIX0rYb1so71s4/1tJD2uZj2vJz2vp//1Yz/1o//15H/15P/2Zf/2pn/2pr/2pv/25z3waT3w6b3xKj4xqv4x634yK7/3qX/36f5zLT50Ln50Lr50r3/4Kn/4Kv/4a7/4rD/47P/5LX/57z/57761cH61sL62MX62cf72sn728r73Mv73cz739D/6MD/6cL/6cP/7Mr/7c774dL849b/7tH/79L85dj85dn859z/8NX/8dj/8tr96uD96+H97OL97eT/9OD/9ub/9+f+8Oj+8On+8er/9+j/9+n+8uz+9O7/+Ov/+e3/+u//9vH/+vD/+/P/+PX/+vf/+/j/+/n//fj//vr//fz///z///3///7///8AAAAAAAAAAAAAAAAAAAAAAAAAAAAAAAAAAAAAAAAAAAAAAAAAAAAAAAAAAAAAAAAAAAAAAAAAAAAAAAAAAAAAAAAAAAAAAAAAAAAAAAAAAAAAAAAAAAAAAAAAAAAAAAAAAAAAAAAAAAAAAAAAAAAAAAAAAAAAAAAAAAAAAAAAAAAAAAAAAAAAAAAAAAAAAAAAAAAAAAAAAAAAAAAAAAAAAAAAAAAAAAAAAAAAAAAAAAAAAAAAAAAAAAAAAAAAAAAAAAAAAAAAAAAAAAAAAAAI/gB1CRxIsKDBgwgTKlzIMFckPwwjShwIis0TFR06OJrIUeGKjCCpEFzVBlfHjjNAZiTxSmCmFx2kmDwpcYrKjCVsdDkBUibNiFZAchhKdGjPmT8R2vEgtKjToXeSEqzlAoaRKyGePgU5BKnURx2KgqTRR5QqQUZuxnAllaCXsEQzVrlVEI3KN20J3oBrVEatg1FATskr8NUHvhw6uEEYCaQLU4QrZRRbKWEIkCCM/PFKc9MWFiorI8wat0MjwrhqgFx8sLFYD6wI69IC0u9BKIg71JCti49KKnQJ2s3NRfapFjfJmkXb1OggmpdsTd07WWvREWmyFMFB6ySdAAl2/oyRpAuSdbE4n08cNatgDwDwAQRoQGhNc6cgs3BEpADDp4GtFBCffAHUoYt9GXmABREp3NRBEBPxF0AADyQSCx5JBDDghJYIZB8KgQyUkkom5BKRhBMGYMABKW44gHQCAaIJQWpUN1QoDCmiwIQD9hhfAAt4ktAqInQwghBnUBKREy362OOEEGCSUCON/DWRLBnw6OSGE06AhA4WSNBJXp00oOGPPOhRSil68HCmj2QQZkaKAQgQh0FxCNAkfD4QtgSdYCAExp4ANEDYBSk2IAtCspj5pnyMSLXIEnpO+INCP2gJXwBi/LRHBVw2oVATmgLAwBw/ffGopZjSmYMclIv+ZMiq88VqUKMpUpCXLQdwGUCgBw2a4hGE7eCrnXhWOiEchIWxZQBprtnmqhGQktckAjSwARMTEPpsABq015atmEBQ6rcBOMGbQJ8Q8Oi3Ciiyri6plJriAQbQqQAi8+pSiL1K4BFLIg9MuG+/upBRKgKwDPQJBgcjnIcEjyZR0CyjIEwQJ2UA4UAAh2gsESoaBwQAIfkEDAQAAAAsAAAAADAAMACH5lEA51IB51MC51MD51UG6FcJ6FgK6FoM6V0R6V8U6WAV6WAW6WEX6WIY6mQb6mQc6mYe6mYf6mgh62sl624q63At7HU17Xo77Xs97Xw+7X5C/6AA/6EB/6EC/6ID/6IF/6MG/6QI/6QJ/6UM/6YP/6gV/6kX/6oY/6oa/6we/64j/68n/7Aq/7Es/7Et/7Iu/7Mx/7Qz/7Q0/7U3/7Y6/7c8/7c97oFG7oJI7oVM7oZN74dO74lR74lS74pT74xW8I5Z8I9b8JJf/7xJ/75O/75P/75Q8Zdm8Zpq8Zpr8p5w8p9y8qF186N486V686V7/8BU/8JZ/8Ja/8Nc/8Rf/8Rg/8hq/8pw/8tx/8tz/812/814/8569KqC9KuD9K2G9bKO9bSQ9rmY9r2e976g97+h/9CA/9OI/9SJ/9aP/9aQ/9iU/9iV/9mX/9qa/9ue98Ci98Kl98Om+Mar+Miu/92i/92j/96k/96l/96m/9+n/9+o+c21+c62+dC5+dC6+tS//+Gs/+Kv/+Ox/+a7/+e8+tbD+tfE+9zL+9/Q/+nB/+nC/+rG/+3N/+7P/OLU/+/T//DU//DW//HZ/evh/ezj/e3k/e7m/u/n//Th//bm//fn/vLr//fo/vLs/vTu//jq//ns//nu//rv//bx//by//fz//rw//j0//n2//z1//z2//v4//v5//34//z6//37//76//77//38///8//79///9///+////AAAAAAAAAAAAAAAAAAAAAAAAAAAAAAAAAAAAAAAAAAAAAAAAAAAAAAAAAAAAAAAAAAAAAAAAAAAAAAAAAAAAAAAAAAAAAAAAAAAAAAAAAAAAAAAAAAAAAAAAAAAAAAAAAAAAAAAAAAAAAAAAAAAAAAAAAAAAAAAAAAAAAAAAAAAAAAAAAAAAAAAAAAAAAAAAAAAAAAAAAAAAAAAAAAAAAAAAAAAAAAAAAAAAAAAAAAAAAAAAAAAAAAAAAAAAAAAAAAAAAAAAAAAAAAAAAAAAAAAAAAAACP4AcQkcSLCgwYMIEypcyBBXp0V1TjWcOFFNDBIcMpqhyFHhkIwga3QcaRAKyIwgVg1kVGUUSYpVMm6YuYFGmk5XOnAYYuslQlEDFZmQSbMoSC4+DeLh8EILmg8gi0qlGSgpQRtTs2YdocoqrkkcjGaMEUhTqEJFotJs4xWXlrA0M1bpSZDNSQ9v2tI6AXcmhxayDkoBOaQtLlcw+m7g4AZhI5AqDOO6tYfFSUcIbYXIGGKTZFy0UoCEhPCWCJAjtoSSXANk44OPjZIAZdhkRsAHoyjmUCJW2zMnOVChVXANUb9ZfovlICPQplCE0h5fLKkjqkoGX2jdTpPGSA0BCv5U4MEkDq5II9RORS3IzhQUezrOMhAAgH0AAUjhCqReasYV1VF0SCoEIRJAffcFMItAXGRERCZ5ECGWERzJEcAEhgjEShMH3gdAAQPZgoUeBL0Q3AwUJUJfAAIkocQBByJoHwK3JHRFcChM9IkEHXroo30BYHDJQJbAMtAgIIXgghUN1XJDjD/+eOADXejAQABPhHgHIZnUOFEfUYbpY4wO1JJULT9AmaAPf3jCiR89yOgjH1a9skOMBw5QhkFwDKCmfT549YoFeH6B0Bd/AkCAJ15REGMCrSDUygI9AjmGVwXECIRCQOAZ3hKlJNVKGHgqoZASeCKBSVKwiAGBp6CbJtRpnl6RIeeBC0R6UCsJxBiBV5UI4GGMhh6EaIwXtIXDsHnCYVAZfuJ5hJlJzRFmAD34wYknf/hw64FBUPsSr4mKGWUfVqFqQA5gPFCpmDHeIO5LpADCikCXZCDntQFI8MlnA30bwAFKJCHAgQYkArBApnzrxL24GDJBAHIsjO+3jxCUyiEWC0TJrQ10nBAdXghxgQIBCCFyQ6XMa1hAACH5BAwEAAAALAAAAAAwADAAh+ZRAOdSAedTA+dUBOdVBuhXCOhYCuhaDOhaDehcD+hcEOldEeleEulfFOlgFuliGOliGeljGuplHepmHupnIOppIupqJOtrJettKOtuKutvK+xxL+xyMOxzMex1NOx3N+x4Oe19QO1+Qf+gAP+hAf+hAv+iBP+iBf+jBv+jB/+kCP+lC/+lDP+mDv+mD/+nEP+oE/+qGP+qGf+rG/+rHf+tIP+tIv+uJP+wKf+wKv+xLP+0M/+0NP+1Nv+2Ov+3O+6BRu6ES++IUO+LVPCPWv+6Q/+6RP+6Rf+7Rv+7R/+8Sv+9Tf++Tv++T/++UPGYaPKecPKecfKgc/KgdPKhdf/AVf/CWf/CWv/DW//DXP/EYP/FYf/FYv/GZP/GZf/Iaf/Lcf/Mdf/Nd//NePSpgfSrhPSshfSthvWwi/a3lfa5mPa8nfe+oP/TiP/Uiv/Wj//WkP/Zl//amv/am/fBo/fBpPfCpffDpvfDp/fFqfjHrP/dovjJsPnQufnRu/nSvP/gq//hrP/hrf/ktf/mu//nvP/nvfrWw/rXxPrYxfvayPvbyvvcy/vdzf/owP/pwf/pwv/qxv/rx//ryP/syv/tzf/tzvvg0f/u0P/u0f/v0vzn2//w1v/x2f/z3f3s4v3t5P3u5f/04P/04f/14v/35/7x6v/36P7y7P7z7f/46//57P/57v718P/68P/78v/49P/59v/69//89f/89v/99//7+P/7+f/9+P/9+f/8+v/++v/++//9/P///P///f///v///wAAAAAAAAAAAAAAAAAAAAAAAAAAAAAAAAAAAAAAAAAAAAAAAAAAAAAAAAAAAAAAAAAAAAAAAAAAAAAAAAAAAAAAAAAAAAAAAAAAAAAAAAAAAAAAAAAAAAAAAAAAAAAAAAAAAAAAAAAAAAAAAAAAAAAAAAAAAAAAAAAAAAAAAAAAAAAAAAAAAAAAAAAAAAAAAAAAAAAAAAAAAAAAAAAAAAAAAAAAAAAAAAAAAAAAAAAAAAAAAAAAAAAAAAj+AIMJHEiwoMGDCBMqXLjw1yhPmCg5OsWwokWBcEiM2DjiyMWPCsNo5EgDpEmDXkZuJFHr5MVcqgbS+qFyBIk2r4LVglOElUuEWU5UMQTJBomaR2OIkXG0y0+DmUocrcmxqtVHTwkyscq160YcubIGk4T0KI9Ap1QZcjK1Kgk3YpWU1eKr4JujVWtQErunhVsdvA5emUpCiU+xwUghITwHoaWpL4AhJkhjqqaEKI6amEywxtRMCIFlJoHCFedguYwelYOwEuEZgyaT6kE4x66DWJB+ETsJhlsSW37ZxcuRhBGxhMqS2CHoFKtCTNoWj4S4itfrHJd8BLVAgQIKFDb+oBFYyoV0rlNXpDhaAtPHPgHiywcyMM5RFmB0EF9JwgcnVW7cwAVIa8gn3wcDAWPFGKsE4wsgKriVBEiIyEIQGQbGh4FCOrjlxEd5BABBGrqkIkUCGQZwgB0ELfLJQE14eFErD8g3QQMBAKDjjjoGIIIfUkwQgAcDjeFWFhc9IR+PTDYJgHx8CDSLI5Fg0okouFiUiJNcMimfBpL91AGXAQzxhymo9CFEjk7i8dQUPMo3wB0G3SHAkjta0MtTbBSQoRkInYGnjgukkhUjBsjXgIUH6eJAhkGEghgB8hGhEBEGsjFZLwZCoRAUBsIymSIGWpoQpvLZIpYtVNwpnwOWuiAkC47xFbBJVrFoEGd8ZyBkRoYI6PHULRLsGoAAdBZ0xwCDAkDFU2qQKUQfqJjyxxBsNtnBU71Y0GyXTiaSFR3fgvtkfE+IBUwGATAQxSEhZOtlA0LG90AriF1SRywD5eGqgQlIkYouaUAQQB6nFcRAioAOJAsiCRdUQYoIR5xQByk2YnFCZYDAQQYURHCBqBuXrFBAACH5BAwEAAAALAAAAAAwADAAh+ZRAOdSAedTAudTA+dUBOdVBehWB+hXCOhaDehcEOleEuleE+lgFelgFulhF+liGOliGepkG+pmHutrJutuKutvLOxxL+x1NOx2Nu15Ou16O+1/Q/+gAP+hAf+hAv+jBv+jB/+kCP+kCf+lDP+nEf+oFf+pFv+qGP+qGv+rHP+rHf+tIP+tIf+tIv+uJP+vJv+xLP+yLv+zMf+0NP+1N/+1OP+2Ov+3Pe6ARO+HTu+JUu+KU++LVe+NV/CNWPCOWfCPW/+4QP+7SP+8Sv+9TP++Tv+/Uf+/UvCTYPGVY/GWZfGYaPKcbvKecPKidv/AVf/BWP/CWf/CWv/DXP/EYP/FYf/HZv/Ia//Kb//NePOpgPSqgvSthvSth/W2k/W2lPa9nv/Rgv/Ui//Wjv/WkP/Xkf/YlP/ZmP/amv/am/fCpffEqPfFqfjGq/jHrfjIrvjJr//fqPnNtfnPuPnQufnQuvnRu//gqf/gq//hrv/jsv/ktP/ktf/luP/mu//nvP/nvfrVwfrWwvrXxPrYxvrZx/vayfvcy/vdzf/qxf/qxv/tzP/tzf/tzv/uz/vg0fzi1Pzj1fzj1v/u0P/u0f/v0vzm2v/w1v/x2P/y2//z3P3q4P3r4f3s4v/04f/14v/25f/35/7x6v7y6//36P7y7P7z7f/46v/46//57f/57v718P/28v/68P/78v/49P/89f/89v/7+P/9+P/8+v/9+//++v/++//9/P///P/+/f///f///v///wAAAAAAAAAAAAAAAAAAAAAAAAAAAAAAAAAAAAAAAAAAAAAAAAAAAAAAAAAAAAAAAAAAAAAAAAAAAAAAAAAAAAAAAAAAAAAAAAAAAAAAAAAAAAAAAAAAAAAAAAAAAAAAAAAAAAAAAAAAAAAAAAAAAAAAAAAAAAAAAAAAAAAAAAAAAAAAAAAAAAAAAAAAAAAAAAAAAAAAAAAAAAAAAAAAAAAAAAAAAAAAAAAAAAAAAAAAAAAAAAAAAAAAAAAAAAAAAAAAAAAAAAj+AHsJHEiwoMGDCBMqXMiQF54+izzBYkix4kBFHTho5MDCokeFZzJu7BDr48dZJQdeEamxQyuTFnfdMGHmlq0zJVhy6BAKZkUxHYK6aBFUZwcUeXolsjKEl0+Dl0JsnEq1qIqid54SzDVDJ9WvO4PK0DoQT9CpQWfgCZXKTxGwHPaQ7TVLitEquwqSKTq1xlyBYabCsHUwytmNRP4KpFEUDcJGRTuw4KNYINGgjhDyAlHUVeVep0YUraT5Q9APlXmdITE1DcJFRU8Q/mvksEYYtw7aLRpE1d+VRqnkKlgmctAXmeZ+Mo22g1pSqP68BesY5iuCVbzCHRmUxnCKgXr+bKjwgECAQwM1eQhaQsR27iEwWUwCoD6AAAG+EMTyRM8tRjHwNZINU6zXwRgeNWHffQEskRAvKRjHAiACTSJEUwkuiJ8GBQkSyUArGAfFR5zoMtAqOGiIHwZs6OIGBgFIwIpAAUaWhUePBACBE5LU0UAAC2qoAH74KSHQEcad4ZEPRAYgAH5BRslgAHIINAsolPwRx0sVWfIklFKGSWQEq2iFhJg72GGKKHToAKSUTDzVSQEqBjCAGgapUUCT+BkAx1NzvFkfkVwg1AWfDhBC1iAU8LkALQjJ8iN+CGzyFy1bNPmDQkAQSUAtlTXZhEJNNFmmYgcQCYRCPzTphVObc70CAZENyIIQLQvweYEhZHViAZ9dIMQFkQsKMMdTiDzAZwAF4FmQGgMQa18BnTzFhJg60CGKKXbsIGiQSGg1CgPShhklkQJYQlYb5ZqL35f4+fAXD00qK2YDdUjixKyP/FWKshO80csaMIJZHw6n9qILJ5UVAgYuBE1gMACjfraQm986YfFCWkysxcYKBZrABBnkoAQkIKfMUEAAIfkEDAQAAAAsAAAAADAAMACH5lEA51IB51MD51UF51UG6FkL6V0R6V4T6V8U6WAV6WAW6WIY6mYe6mYf6mki6mkj62wn628r628s7HEv7HY27Hc37Hg57Xk67Xw/7X1A7X5B/6AA/6EB/6EC/6ID/6IE/6MH/6UL/6UM/6UN/6YO/6cQ/6gU/6gV/6kW/6oZ/6oa/64j/64l/7Er/7Es/7Qz/7Q0/7U4/7Y5/7c7/7c87oJH7oJI7oNJ7oRL7oVM74dP74lS74tV74xW8I5Z8JFd8JFe8JJf/7pF/7xJ/71N/75P/75Q8JNg8ZRi8ZVj8ZZk8Zho8Zts8p5w86V7/8FY/8JZ/8Ja/8Nd/8Re/8Rg/8Vh/8dm/8dn/8hr/8ls/8pv/8pw/8x0/855/9B+86mA9K2G9K2H9K6I9K+K9reV9riW976g/9KF/9OH/9SJ/9aQ/9eR/9eS/9mX/9mY/9qZ/9qa/9qb98Om98So+Mes/96k/9+o+Muy+c21+c+4+dC6+tO+/+Cr/+Gu/+Oy/+Oz/+S0/+W3/+W4/+a5/+a7/+e8/+e9+tbC+tjG+9rI+93M+97O+9/P+9/Q/+vH/+vI/+3M/+3O/+7P/OTX/+7R/+/S/+/T/Oba//DU//HY//HZ//La//Lb//Pc//Pe/erg/e3k/e7m//Xi//bm//fn/vDo/vHq//fo/vLs/vTu/vTv//jr//nt//nu/vXw//bx//rx//j0//r3//z1//z2//v5//34//z6//37//76//77///8//79///9///+////AAAAAAAAAAAAAAAAAAAAAAAAAAAAAAAAAAAAAAAAAAAAAAAAAAAAAAAAAAAAAAAAAAAAAAAAAAAAAAAAAAAAAAAAAAAAAAAAAAAAAAAAAAAAAAAAAAAAAAAAAAAAAAAAAAAAAAAAAAAAAAAAAAAAAAAAAAAAAAAAAAAAAAAAAAAAAAAAAAAAAAAAAAAAAAAAAAAAAAAAAAAAAAAAAAAAAAAAAAAAAAAAAAAAAAAAAAAAAAAAAAAAAAAAAAAAAAAACP4AfwkcSLCgwYMIEypcyFBgHzuafDWcSPGXrRAcOIyYsWVWxY8HBXHYQHIDB0cgKfYyIoPTwCwjS3LYlHIilowi3MSRkbGkSVg1GbKJ6bOoyT9BFQLyQNSoTA5oMLl5siYpwRk9nWrNiGKXVYGdUjTlAIPPqVWFiozNKOirQEsnfFbxSlCNz4wcprgVqAWvC7oFo+DFS4LWXhp44SCENDgjiEhuPZXAWwmhLxB4S3Qh9VUSlA+DJVnGnLGVW1odGnNQfDAS3hV7f8VQ3SLXQcEZh8QempUklV4F7cpss/cU07FlR7EiRGRtnZSvXBUU0ltr0YwqJqrKI4aHgwATCv4GKpLmUR/M1mV+GDSRQQAA8AEE+JSQkgmtxzO+ofjgffwAZRTECCgDsXAXCVYYkskLGXFRUQb+wRcABgT+YkoQAUCQikAj3CXFQLp4cQVwFP0QoXwBBHDBFwakGIAGt+QyFms17bHAifHliKISv5whhAl4ZVKRLxNIwAQdZhCQoo5MohjAGAOJ4gdxFR3S5JU6uihALEktcWUAO+hhCip67HCii2IkhcsBObo4gBwGySGAiyk6YRUeZ6YYBkJg0FnDV0rkqYAsCN2CgIsPfLWIDW0G4INCPtBZi1uJ6EBnEwo1QecRk+ylZIqPJhTpiTk08lUELiJwC0KyKLDkf4s8WgUEnWAgFIaLbeJhlZx0CgBnQXIMgGt8B+CS1B2fthkmKqaUiWN8SyTFSwHDYonlIVY5US2WKRJgBh1MSDCBRFb18Kq1ASywR2wDyVKBiwmEYcG2ASTBLkGlNBDADaUIFMoEZ+JwL0GXzFHQF2dSMLBCipx5wcIJ+cLAABMgQQYihEKMkCuTDhwQACH5BAwEAAAALAAAAAAwADAAh+ZRAOdSAedTAudTA+dUBOdVBuhWB+hXCOhXCehZC+leEuleE+lfFOliGOpmHupoIettKOtuKutwLex1NOx3N+15Ou16O+17Pe1+Qv+gAP+hAf+hAv+iBP+iBf+jBv+jB/+kCP+kCf+kCv+lC/+mD/+oFf+pF/+qGP+sH/+tIP+tIf+vJv+wKv+xK/+xLf+zMf+0M/+0NP+4P+6ARe6CR+6CSO6DSe6GTe+HTu+IUO+KU++NV/CNWPCOWfCPWvCQXPCRXf+7SP+8Sf+9S/+9TP+9Tf++Tv++UPGVY/GXZvGaavGbbPKcbfKecPKgc/Oof//AU//BV//CWv/DXP/EXv/EYP/FYf/GY//GZf/HZv/Iaf/Kb//KcP/Lc//Mdf/Oev/QfvOpgPSrhPSthvSth/WxjPWzj/W0kfW1kvW2k/a6mf/QgP/ShP/Th//Vjf/Wj//WkP/Xkf/Xkv/Ylf/Zl//ZmP/amv/bnP/bnv/cn/fBo/fCpffDp/fFqfjFqvjHrfjIrvjJr//coP/dov/do//fp//fqPjKsfjLsvnOt/nQufnSvP/gqv/gq//hrf/hr//isP/jsv/js//ktv/luP/nvP/nvf/nvvrWwvvayfvdzP/pwf/pw//rx//ryP/tzf/tzvzk1//r0v/u0P/u0f3o3f/x2P/x2f/y2/3s4v3u5v/14//y5P/15f/25f/25v7w6P7w6f7y6//36P7z7f707v/46//57P/67//28v/38//68f/78//49P/49f/59v/69//89v/7+P/7+f/9+P/9+f/8+v/9+//++v/9/P///P///f///v///wAAAAAAAAAAAAAAAAAAAAAAAAAAAAAAAAAAAAAAAAAAAAAAAAAAAAAAAAAAAAAAAAAAAAAAAAAAAAAAAAAAAAAAAAAAAAAAAAAAAAAAAAAAAAAAAAAAAAAAAAAAAAAAAAAAAAAAAAAAAAAAAAAAAAAAAAAAAAAAAAAAAAAAAAAAAAAAAAAAAAAAAAAAAAAAAAAAAAAAAAj+AJsJHEiwoMGDCBMqXMhw4ClGuxpKnDhQiIYPQei8oshRYJ4vywai2qChZElIHSeyKUkkWDNiWTLIzFAyUsqGXWZmeCHDgwadJV3dXHjlp86jMjWYGKrQVgijSIFqcMM04R2oUZOWlGOojZaNVQdOARrD0axblYxgNTkn7MBOOq2EJPhGqgYpbgV6MckC2UEpJk2iyGtqhUk7CD+Z1NmKaTEwLgJrIIWQmU+sj5iusjsqYQeTH4oQ4lX1hGQNdRCCMlkiolsop1so+2uSSt5mbhbPrDKbIBydgm570p00RqNZtiwdwaoCV0pdBpVxWTOo0YiSWYEWoViqjAUBexT+ThKBNWtJTgyBPZEQoH2ACQZjERxSPqqGLQ01uQfAH0AmgmgUwIMxApmmkwcwYLGFTmtINMwB7fUHAA2BwOKLD+7d8Isr2M2ExUB4cKBBHBRVEGF/7i0gYQAYiAICVpsQdIkkHClxooQ4AtAeBawUEgUJGqRQVR8E3Jgjiu0tIlAxlKDH0R9AhKGHHwjsd+SKAfwQFgZXBpCDIrLEkogOAawIQS9VJZMAlgEMwIdBfBTpHiBh6ccmGQiN4V4ASISFRplIKkDgQcAw4J4DYfEAKH/t7aBQD3tekEYqQyWxqI4BNKFQE0YGkMRQpYgRwZ49KLRDpzyENWp7DACDkDGUCnSKRlhM7DkGQmRYyagmYWGyJwFvFsTHALoCkEAyYdlwaQA6JBKLLIrkcKmEGISl57RHuoeAH3qEAcQfVYVCLLY5tkdAH7c1Uwt75OLY3hLpCkQLBZc2UGx7M8QrUC4YuDcgLIdUgKUC+gr0Cw4BOEEQImyqUnAzx/BKEDMPuCeABWcw8zBCZhhQgxqwbLyQMPoGBAAh+QQMBAAAACwAAAAAMAAwAIfmUQDnUgHnUwLnUwPnVATnVQboVwjoVwnoWAroWQvoWgzoXA/oXBDpYBXpYBbpYhjqZRzqZh7qaSPrbirscjDsdDPsdTTsdzftejvtfD/tf0P/oAD/oQH/ogP/ogX/owb/owf/pAj/pAn/pAr/pQv/qBP/qBT/qhr/qxz/rSH/riT/sCj/sSv/sSz/si7/si//szD/szL/tDP/tDT/uD7/uD/ugEXugkjug0nuhErviVLvilPvi1TvjVfwjVjwkV3/uED/ukT/u0b/vEr/vUz/vU3/vk7/vk//vlDwlGHxlGLxl2bynnDzpnzzp33/wln/wlr/w1z/xWH/xmT/xmX/ynD/y3P9xXj/zXj/z3z0qoL0q4P0rYb0rYf0roj0r4n2uJf2upr2u5v/0YL/04b/1Iv/1Yz/2JT/2Zj/2pr/2pv/253/3J/3wKL3waT3wqX3w6b4yK7/3KD+26n/36j4ybD4y7P5zLT5zrf5z7j50Ln50Lr50rz6077/4Kv/4az/47H/5rr/5rv/57z/6L/61MD61sL618T62MX62cf73Mv73cz739D/6MD/6cL/6sb/7Mn/7cz/7c3/7s/84dP849b85Nf/7tH/79P96d//8NX/8dj/8dn/89397eT97ub+7+f/9OD/9+f+8uv/9+j/+ez/+e3/+e7/+u//9vH/9/P/+vD/+vH/+fb//PT//PX//Pb//ff/+/j/+/n//fv//vv//fz///z//v3///3///7///8AAAAAAAAAAAAAAAAAAAAAAAAAAAAAAAAAAAAAAAAAAAAAAAAAAAAAAAAAAAAAAAAAAAAAAAAAAAAAAAAAAAAAAAAAAAAAAAAAAAAAAAAAAAAAAAAAAAAAAAAAAAAAAAAAAAAAAAAAAAAAAAAAAAAAAAAAAAAAAAAAAAAAAAAAAAAAAAAAAAAAAAAAAAAAAAAAAAAAAAAAAAAAAAAAAAAAAAAAAAAAAAAAAAAAAAAAAAAAAAAAAAAAAAAAAAAAAAAAAAAAAAAAAAAAAAAI/gB3CRxIsKDBgwgTKlzIsOCkhhAZropUkA0HFmpiRdxIEFKKDn8GvjrBoaSJLKY4RjTjoeSHRrlCWeGwoeYGDmRUMmRFpKTPESR82rxJSOdCR0KHKq1pIpfRhT1pLlVa5OnCTiCkTrXJgY5VhTR8cpjhR1SpQUfElmAjR86jrwQviZVyq+CZkkM5vIC769YkJD5b1DoIRevNEl9f1RiRVw1CSYZLwrKKCi9XTAh1icjLYdPXoHklIcwVgrOgrysip3kstsMLKp2+Coks+OATn0Ne8d01JTIHKU4J3vUZaPcuTm3lxBAro+xZI2p1GY9LYitnNBwpKclha+EY61w5/pQ4BRGPjQDowxTsg+HQwCDga/osw3DRBPT4H6gamAdBAAJe7HKKB3l1gEIMLojFQRSuMPQGABACgF8PYNwBRwERAoDDHJFhIRArMJREwhoQpWIAfhmmGGEAEFyhgk8klDIQKSqwoMlGPKCoYorowaELIEBwUEVBrtS1kRc67rhiBdIJtMlkVjFyInpKZhhAInzpUUchhVhgpQ56jDKKHjsEkCEFfFli5oroFdCGQW4MgF8AhsCVx5oQ4tcFQlzM+QNcYuApYQANyILQLA3MGcEOXlRilBOCoueDQj5QueINRiURaQBMKMSEpXkmYdQNm06aUKWROmFUJVvcsMCckQ3MgpAsiUYqxle6LDEnFwh1kaSEecClyJwDuGFQGwX8GoAlfGlg5Q5hjqmDoBZwWYcefHmSQJVsBmAAI9PtUim3eaL3RbiJgFolfn9OR4kDgiqJHwO0hPtJBhkeYIcdYOTwKx/h7oJLEwIEMEAcA4GiwJwBXJBJwALtIYF6BGmB3gA8IALxQq1kwMTDG4ecUEAAIfkEDAQAAAAsAAAAADAAMACH5lEA51IB51MC51MD6FYH6FkL6FoM6V4S6V4T6V8U6WAV6WAW6WEX6WIZ6mQb6mYf7G4h62wn624q628s7HMx7HU17HY27Xs97Xw+7X5C/6AA/6EB/6EC/6IE/6IF/6QI/6QJ/6YP/6cQ/6cS/6kW/6oZ/6oa/6sc/6wf/60h/60k/64l/7Ap/7Es/7Mx/7My/7Q0/7U3/rM+/7c9/7g+/7g/7oNJ7oVM7oZN74pT8I1Y8I9a8I9b/7tG/75P8Zdm8Zlp8p5w86N386N4/8BT/8Ja/8Nb/8Vh/8dn/8tx/8ty/856/898/9B+86mA9KuD9KyF9K2G9K2H9K6I9bKO9baU9rqZ9rqa9rub9ryd97+h/9GB/9GC/9OG/9WM/9aP/9eS/9iV/9mW/9qZ/9qa/9qb/9ud/9ue98Kl98On+Met+Mmv/9+n/9+o+Mmw+dC6+dG7/+Cp/+Cr/+Gu/+Kz/+W4/+e8/+e++tbD+tfE+tnH+9rI+9vK+97O+9/Q/+nD/+rF/+vH/+vI/+zJ/+3N/+7Q/+7R/+/S/+/T/OXZ/Ofb/Ofc//La//Pf//Tf/evh/ezj/e7l/e7m//Tg//Th//Xj//fn/vDp/vLr//bo//fp/vPt/vTu//jr//js//nt//fz//rw//vy//j0//j1//z1//33//v4//v5//34//35//z6//37//77//38///8//79///9///+////AAAAAAAAAAAAAAAAAAAAAAAAAAAAAAAAAAAAAAAAAAAAAAAAAAAAAAAAAAAAAAAAAAAAAAAAAAAAAAAAAAAAAAAAAAAAAAAAAAAAAAAAAAAAAAAAAAAAAAAAAAAAAAAAAAAAAAAAAAAAAAAAAAAAAAAAAAAAAAAAAAAAAAAAAAAAAAAAAAAAAAAAAAAAAAAAAAAAAAAAAAAAAAAAAAAAAAAAAAAAAAAAAAAAAAAAAAAAAAAAAAAAAAAAAAAAAAAAAAAAAAAAAAAAAAAAAAAAAAAAAAAAAAAAAAAAAAAAAAAAAAAACP4AZwkcSLCgwYMIEypcyLChw4cE2/SgRFCUiyShIGoUWIjGhg0zYg0s8pEEGVkbG4ZCwuHjxyaaJo3ZoKGmhheIUi5k49Kmz58btuhUmIrEx59INXSoNFQhl6NJfRppqtAQ1Kg1w1BN6MPlBhhyLHWy48PniE9bB6qiJEiM1yOvCn7xaiTOn0ZbU1zV0KLVQZI0fWaiKmJvGYSE9mrA27Rw4JqFEnp4XJPxUMc+IyOc/NOyTsw2Dx9MTHkxVRN7+/71uiGECk9UNQWas+RtXIJzXZ4xlbYgDK9gxZL1OaO3wUGKk5rRCCtNIoOL9BD0khxpDIh4KASIQIrgpQcBdP5AmvUKRXWggBpG2hGgfYAfA1ddcF8ACh3WG0CcKFHY5wYlDKlRQHsAFAhAFFZkwYOBALQHgQysjSHQIR+4BAITpTBUhXsMdmige2jUwcJHNRAExkdEOOLQKAkQ6GGH7TFwyiytfLECIwV1cYdGU7j44ocBPGHcQHv4+GODAfQxpEAWuNdeDm9ccskbOTgZQAbGrSLJFU4OkIZBaQzgpBquUKUFAkYGIAVCUgTAYAALTLCGTk5waKACqCCEigJvtucEnXYWqINCOvQZwJ8p1WlkEAoFYSiiGynqpoGDJlQokIcCaiSeevKJKaQarSHBgG+ueVCbfSKgBVWcqNHll3AFhenkFZKsYpwNVkIpJZVWWrDkLI8IMOmRSPLxaxpG/tgeFb9WkOyL7T1QpnF5BHqke2oM6YcDRv6AxRVC9HlAHkuCMgQB7lnAykA4uDcAEJv8KpAiNwRgwCIEYdJAABj4IW9BcOBhkB9u/GuwQgEBACH5BAwEAAAALAAAAAAwADAAh+ZRAOdSAedTAudTA+dUBOdVBuhWB+hXCehYCuhaDOhcD+hcEOleE+lfFOlgFepmH+pnIOpoIeppI+ttKOtuKutxLux0M+x1NOx3N+x4OO17Pe1+Qf+gAP+hAf+hAv+iA/+iBP+iBf+jBv+kCP+kCf+kCv+lC/+lDf+nEf+nEv+oE/+pF/+qGP+rG/+rHP+sH/+tIf+uJf+wKP+wKv+xLP+xMP+zMf+zMv+0M/+0NP+1OP+2Ov+3PP+4Pu6ARe6BRvCLTe+IUO+JUu+KU/CNWPCOWfCQXP+5Qv+6Q/+7Rv+9Tf++Tv++T/CUYfGUYvGYaPGbbPKcbvKecPKhdfOnffOnfv/AVP/BWP/CWf/CWv/FYf/GZf/KcP/Lc//Pff/Qf/OpgPSthvSth/SvifWyjfW1kva4l/a7m/a8nPe+oP/QgP/Rgf/VjP/YlP/amv/am//bnf/bnvfAovfBpPfCpfjHrPjIrvjLsvjLs/nMsfnMtPnNtfnPuPnQufrUv//gqf/gqv/gq//hrv/isP/js//ktv/mu//nvPrUwPrXxPrYxvrZx/vbyvvdzPvf0P/owP/qxP/qxf/syf/tzP/tzfvg0fzh0/zi1Pzj1fzj1vzk1//u0P/v0v/v0/zl2Pzl2f3o3f3p3//w1P/x2P/y2//04P/04f/14//25P/25f/25v/35/7w6f7x6v7y6/707//46//57P/57f/57v/67//68P/49P/59v/89v/99//7+P/7+f/++//9/P///P///f///v///wAAAAAAAAAAAAAAAAAAAAAAAAAAAAAAAAAAAAAAAAAAAAAAAAAAAAAAAAAAAAAAAAAAAAAAAAAAAAAAAAAAAAAAAAAAAAAAAAAAAAAAAAAAAAAAAAAAAAAAAAAAAAAAAAAAAAAAAAAAAAAAAAAAAAAAAAAAAAAAAAAAAAAAAAAAAAAAAAAAAAAAAAAAAAAAAAAAAAAAAAAAAAAAAAAAAAAAAAAAAAAAAAAAAAAAAAAAAAAAAAAAAAAAAAj+AIMJHEiwoMGDCBMqXMhwFjCGECMWlIQFxJeCkChJ3DjwV6AdHUKSQDUQUokQbDhu/NOBg0sOHbKoyiUKRcgOSmKphKjKw8ufHETcDOmC006GOoAqhRkyztGFapYCDTmD19OEqFhI/Rny0NWCqAYdeoRkKI5Aq2IdWjL0RK2vBLe0fBlSy6+CbYaugTswyVyXHWhYNYjlJoxApvjK+AvTDUJKjDusmPTVRGSNB3+N4NrB0FVaIbl2QgiMBOdRV2vFiPzmceQOuODCKtTjpuCDhbmq4Cuw0FAtvvCGpnuDt0AbQ3OgVcvErKxasHTyTmV560sUpODuKjLm1cArw63+H+GIJsKigmACBEgABdSmm9ZdfpAV0ZYR9Q08DbxUQL16AUDUMFQHLfDwglBcwQGRJRMA4CAADzByRxoX+PcgAHlwcZMJmwhESGReMITHAQFcaOKD/h1wSzCEpNABIASV1QEIVkQCURnqnXiif0MMdIogBXESQxelSNRLBSXqeKF/ZBg3ECMCKLmkegvo52QwFCw5RB+uuNKHEEk6iEEojjiiCV97+BfAAHMYJEd/OaL4yVe9BKFmGAiJYSGKfByVSBQZkOifA7sgpIsDcToYwBlH/RAmAOoRoRARiUJKxVFNPKqeFApJUWkATRxFhaYBSJoQpZr+cNQZpDqgC0KMuyCaYgZRJHIUH6QGIAZCYagZRC9ffZJrAXIYNMcAau7BlyaONILIBksKwaWXQzxKwZXBgCLro0oSUAm2dOwpJaQaYDuFuFKqZ8eVEqCrZAAKKOIkJlMGoIEZd/jBwIUWgHJlKz6oGQABmQykCALqQVEotsFY4oQB6j1RkB4Q1MFwQaxUoQErF3e8UUAAIfkEDAQAAAAsAAAAADAAMACH5lEA51IB51MC51MD51QE6FYH6FcI6FgK6FkL6FoM6FwP6FwQ6V4S6V8U6WAV6WEX6mQb6mYe6mki6mkj6mok62sl620o624q628r628s63At7HMy7HU07HY27Xo77X1A7X5C/6AA/6EB/6ID/6IF/6MG/6MH/6QJ/6UN/6YP/6cS/6gT/6gV/6oY/6oZ/6wf/68n/7Ao/7Ap/7Aq/7Er/7Et/7Q0/7Q1/7Y6/7c8/7g+7oJI7oZN74hQ74pT74tU74xW741X8I1Y8I5Z8JBc/7hA/7lC/7xJ/71L/71N/75O/75Q8JNg8Zho8Zpr8p5w8qB08qJ286N386N4/8BT/8FX/8Ja/8Nb/8Rg/8Vh/8Vi/8Zk/8dm/8dn/8do/8pv/8x0/898/8999K2G9K2H9K6I9bSQ9bSR9bWS9rmY9rqa9ryc9r6f976g/9KF/9OG/9SJ/9WN/9aP/9aQ/9eS/9iV/9mY/9qa98Gj98Om98On98Wp+MWq+Mes+Met/92h/96l/9+o+Muy+Muz+c62+c63+dC5+dC6+dG7+dK9+tS//+Cr/+Cs/+Gt/+Oy/+W3/+W4/+a6/+a7/+e8/+e9/+i/+tTA+9rI+93M/+rF/+vI/+zJ/+3M/+3N/+3O/+7P/OPW/+7Q/+7R/+/T/OXZ/Ofc/enc/enf//DU//Ha//Lb//Pc//Pd/e3k/e7m//Tg//Xl/vDo/vDp/vLr//fo//jr//ns//bx//rx//vy//vz//j0//j1//n2//r3//z0//z1//z2//v4//35//z6//37//76//77//38///8//79///9///+////AAAAAAAAAAAAAAAAAAAAAAAAAAAAAAAAAAAAAAAAAAAAAAAAAAAAAAAAAAAAAAAAAAAAAAAAAAAAAAAAAAAAAAAAAAAAAAAAAAAAAAAAAAAAAAAAAAAAAAAAAAAAAAAAAAAAAAAAAAAAAAAAAAAAAAAAAAAAAAAAAAAAAAAAAAAAAAAAAAAAAAAAAAAAAAAAAAAAAAAACP4AmwkcSLCgwYMIEypcyLDZp1UNI0pcVunLCxEwJGpUOGqFiBAgQ0Qi+MZKsI0aVYn4GDLJsWbHtKwsggulxBQsQYogUeNGyBA2atlsaCTnz6MiZAgdmlAUC6NHQ67kxJTgMjh3JGV6CjVqCBFgqhLUtNKoCBuLaNWitMQojpdiBcYp+xNLsoJzfrqJO5BK2bI07hq0UjYGX4Et/q60g9DTX0C/4r76WTZUQhJ/T1BJVVXXFhWKRSFkVmLlT0Zxl1FyUfYOwk50Q8I6fKXsDGMHCSt+cbgZpJ9ZlhWUQ3mlld5eKNtoRMvWJCV/S6+sczhQ16grU4gChsrR0o1tHv4wEeSrmS4U15Ga2KSR16mCxCIEmJ/AR54j6SmPACZxFgcDfRCUBgAEAjBfAKZU8RMSYOSAQnGZRNTKBfMJYEYzsRASQYEGBoCAMstwsZISuDXzR3F0NFSKBAFwWMGBHM7nwUBidFFiM8NwtVINjzBECgTzcShkgfM5oVAYI+gQBysR4QHjkELOh8AhCS2TC0o/BAlljPMdkEgiakiBSFy7ZNAikT4UIssshvRw5pAg8LXHgQEQoIdBegzwJIEIIBNXEHSOgRAZexqISVwOHNhAeQcRw4CWBAaABlOXTDEBnUMoBOibBgoxFA+czveEQk9AaiAPQwkRagBBKDQEnZ4TTHEJU2isygAxCPnSwIEOxIXJqgGQgdAYdLYqFjIIcBnAAHcWpAcBdPLBFwhbBtCDIbPIUogPoW4gTFyIRHGGH4YoUGi1ATTRm0CWmMspugEosm4zZZiKLgWuzEuEqQduSKQGrczbjAWmYjBILM1AcWAHswhcjACmrkHQGQN8cIvAArGxQwEHLtBLQaB8i/FAt+gBRAJSjByRnyMHBAAh+QQMBAAAACwAAAAAMAAwAIfmUQDnUgHnUwPnVQXnVQboWAroWg3oXA/pXhPpXxTpYBXpYBbpYRfqZh7qZyDqaCHqaiTraybrbirrbyvrcS7sczHsdTXseDjseDntejvtejztez3tfUDtfkLtf0P/oAD/oQH/oQL/ogP/ogX/owb/owf/pAr/pg7/pxD/pxL/qBP/qBT/qBX/qRb/qRf/qhn/qhr/qx3/rB7/rSD/rSL/riT/ryf/sCr/sSv/sSz/sS3/si//szH/tDP/tDT/tDX/tTj/tzzugETugEXugkjuhUzviVLvilPwjVjwjlnwj1r/ukX/u0f/vEn/vU3/vk7/vk//v1HxlGLxlWPxlmXxmGjxmWnxmmrynG7ynnDzo3jzpHnzpnzzp33/wlr/w1v/xF7/xF//xGD/xWH/xmX/x2j/zHT/zHX/0H/0rYb0rYf0roj0r4n1tJH2t5X2uJf/0YP/1pD/15L/2JT/2pr/2pv/25z3wKL3w6b4xqv4x6z/3qT/36f/36j4yrH5zLT5zbX5zrf50Lr50rz50r3/4Kv/47L/47P/5bj/5rv/57z/573/6L/61sL72sj72sn73s7738/739D/6MD/6sb/68j/7Mn/7cz/7c7/7s/84dP84tT85Nf/79L96d7/89z96uD+7+f/9OD/9eL/9uT/9uX/9ub+8Oj+8er/9+j+8uz/+Ov/+e3/+e7+9fD/9vH/9vL/+vD/+vH/+PT/+fb/+vf//PT//Pb//ff/+/n//fj//Pr//fv//vr//vv//fz///z//v3///3///7///8AAAAAAAAAAAAAAAAAAAAAAAAAAAAAAAAAAAAAAAAAAAAAAAAAAAAAAAAAAAAAAAAAAAAAAAAAAAAAAAAAAAAAAAAAAAAAAAAAAAAAAAAAAAAAAAAAAAAAAAAAAAAAAAAAAAAAAAAAAAAAAAAAAAAAAAAAAAAAAAAAAAAAAAAAAAAAAAAAAAAAAAAAAAAAAAAAAAAAAAAAAAAAAAAAAAAAAAAAAAAAAAAAAAAAAAAAAAAI/gCJCRxIsKDBgwgTKlzIkNitSogaSpQoTM4XHCJAgBA1sWNCVh9CftA4p+AtjyhHaFzZZGApJi44opz4YqXGEDzg2FGh8YasmQ1HsVgpsuhIEEt8ATXIiMweUpZaGJ16FESZpQWXrMxI1ejKFVgHpuIqUqOPQqZYKXJSVKMJSmEFytHYVoywgnFsklgUVyAQuiJx9DroZaWOvsRsERVJByEmm60QHwoComgmhMNKrLQzDDExSiRWdsKseaWNOkr70ljZ+OAlwCFBJEIcZmUOYIRhfziBq+8nGDbH4CaYVzeYvqRmtAVxNtUqRVC6RoyrtetyECVqaGwxvCMFBUS0/uTxRIxOZeuxQaSYRIwUnz4oHQUAQB9AAA3EzqBPj6mjJEgFXTFffQFIQMwwUWiEwiGdmCHDcqNJxMkBAnTBi0CnIDAgfQF0INAtPezwyUB1LDdbQ6g8EMCKFrhxwYob2ofEQLjc5dJy8DGUSwYr1ufjjwE08EhCP4AQwxNoGKJLQ0rA+OOT9gVAgB6OrEHEBp0JFMsqHnEC5ZdgNhKWFk4SaIQgqqAiiBEx+lhFXGTCGIAAeBiExwBl0ofAhWFxIGcaCKmRp32AxLUAjAnsglAth8YYgBRhuSJnEgol0WN9FRCC1SBDyJmFQlnIOcQgWBFSgY8rUpqQpTC6EpYUlY4GsEAtCO2SAIwLxAVIrAGogVAacgoRFy8IoLriAHUWhIcAcgbARlxVfBnAmaiosiavb4TVCJjc/ggLVsNs4AEXgfhRwKXcwniFZwJFEkGbUK5IRDDsCrQFrxi0AQGME7xSr0BUOOpAKALNMkUADIDyr0BFOGpFQYJosrBARzj6x8QI/bLJHVhsYMABtGDM0DAh/xsQACH5BAwEAAAALAAAAAAwADAAh+ZRAOdSAedTAudTA+dUBOdVBedVBuhXCOhXCehYCuhZC+haDOhbDuhcEOleE+lgFulhF+liGOpkHOplHepmHupmH+poIeppIutsJ+ttKetvLOxyMOx1NOx4OO15Ou16O+17Pe1+Qv+gAP+hAf+hAv+iA/+jBv+jB/+kCP+kCv+lDP+lDf+mDv+mD/+nEP+nEf+qGf+qGv+rHf+tIP+tIf+uJP+vJ/+wKP+xK/+xLP+zMf+0NP+1N/+1OP+2Of+4P+6CR+6ESu+JUu+KU++NV/CNWPCOWfCPW/CSX/+4QP+5Qf+6RP+7Rv+7R/++Tv+/UfCTYPGVY/GYZ/GYaPKecPKfcvKgdPOle//AVP/BVv/CWf/CWv/DW//EYP/FYf/GZf/HZ//Ia//Kb//KcP/MdP/Mdf/NeP/Oev/PfPOpgPSshfSthvSth/Wwi/W0kPW0kfa7m/a9nv/Th//Wj//WkP/Xkv/ZmP/amf/amv/am//bnvfCpffDp/fEqPjHrP/do//epvjLsvnPuPnQufnRu/nSvPrUv//gqf/gq//hrP/ktP/luP/mu//nvPrVwfrWw/rYxvvayPvcy/vfz//pwf/qxP/qxf/tzP/tzf/tzv/uz/vg0fzk1//u0P/u0f/v0vzl2Pzm2vzn2/3o3f/w1P/x2P/z3P/z3f/03/3q4P3s4v3u5f7v5//04P/14v/35/7x6v/36P7y7P7z7f/46//57P/57f/57v/28f/78v/78//59v/89P/89v/99//7+P/7+f/9+P/8+v/++v/++////P/+/f///f///v///wAAAAAAAAAAAAAAAAAAAAAAAAAAAAAAAAAAAAAAAAAAAAAAAAAAAAAAAAAAAAAAAAAAAAAAAAAAAAAAAAAAAAAAAAAAAAAAAAAAAAAAAAAAAAAAAAAAAAAAAAAAAAAAAAAAAAAAAAAAAAAAAAAAAAAAAAAAAAAAAAAAAAAAAAAAAAAAAAAAAAAAAAAAAAAAAAAAAAAAAAAAAAAAAAAAAAAAAAj+AJMJHEiwoMGDCBMqXMgw2bBXpCoRa0iR4hMWIzKO+FOxo8IZGjOS8UjSYIyQI5oQDHaqZMcWKFfIqYVMjwwVqFwiRCMGU7JWTDSKGCpihAobGn8g01nQFImMOFwQnUpVIx2mBL2MoMq1asYUpbAmc2ViK9GMOxDFotXISVcRZsSGyTh1RJdiBeugHKHkllgfdInmmGhwS8gvw8Qm63XGxNQ8CC+F1KV4YKmpnxAiK5sxc2WBJTRq0nxCI6DPApFmxIMwE0ouryrPCZ0xR2KDWgIPbeELKzEwZoeO8HKsIB2hRHuITaS76Ii0r2wxcttVkVheNIK/9TpCh0dJEDD+fBAi5QqnZJRIbD87YsUXGBkPeUwTIACA+wCqCByjsUcW5MIt0dIxi5SxVEch1IcfAFQI1MsNL9yxlCdJaDfCJR0ZEglBwiSgIH5RDBSLXwPZYWEnFYni4RChINNHB/XZh18IuxCEy0CWWBhWQ8Z4ECMBGci44H0BTFCILG9sMMAmAumCwggt1MADFrlQ1EaMQ2YJQH0FGBBjEQP5QlhHoByApZZoxihAKEwFkaYQg8AyCyFDCDkkFEzFUUCMMRawh0F7DHDmfQWowtQjEfAZABsIrTHoln8ytQoCMT7wC0LCOKBoBX6IhQufRyhkBJ9W1ChWKnw2mBAVfKai2C6kVvBphEJH8HkjVn5UoKgDwiD0ywMxIsAKVnvYGeMaCLGhKAWTMKVKAQvGOECkBO2xp6ILCMIUFGkOQcgssAwihJ0LIsFUKAI8ima09TFgKFNF8HntuvjFCIdYmwyggRqjRHIBufVawCcQld0qEDBEsBuAB30kA8kHATSwCmoEscFuAwUF4gjFBLnBLggcK/QGu1OEnJAqVRwBBAcSKMCHyTAzFBAAIfkEDAQAAAAsAAAAADAAMACH5lEA51IB51MD51QE6FgK6FoM6FwQ6V8U6WAW6WIY6WIZ6mQb6mQc6mYf6mcg6mki6mkj6mok624q628s7HIw7HMx7HQz7HU07HY27Hc37Hg47Hg57Xk67Xw+7Xw/7X1A7X9D/6AA/6EB/6ID/6IE/6MG/6MH/6QI/6UL/6UM/6UN/6YO/6YP/6cQ/6cR/6gT/6oZ/60g/60h/64j/68m/7Ap/7Aq/7Es/7Et/7Qz/7Q0/7Q1/7c87oJH7oRK74hQ74lS74tU8I9a8I9b/7hA/7lB/7pD/7pF/75O/75Q/79R8Zho8p5w86V786d9/8BV/8FW/8FY/8Ja/8Nb/8Rg/8Vh/8Zk/8dm/8hq/8pw/813/855/85786mA9KyF9K2G9K6I9K+J9bCL9bGM9riW9ryd9r6f976g/9OG/9OI/9SK/9WM/9aP/9aQ/9eS/9mX/9mY/9qa/9ue98Ci98Gk98Om98Wp+MWq/92i+Mmw+dC5+dK8/+Gs/+Gt/+Kv/+Kw/+S2/+W4/+a6/+e8/+e9+tXB+tbC+tfE+tjF+9/P+9/Q/+nB/+nD/+3M/+3N/+3O/+7P/OPW/OTX/+7Q/+7R/+/S/Oba//DU//HY//Pc/erg/e3k/u/n//Tg//Xi//bl//fn/vHq//fo/vLs/vPt/vTu/vTv//jq//jr//ns//nt//nu/vXw//bx//rw//j0//n2//r3//z0//z1//33//v4//34//35//z6//76//77//38///8///9///+////AAAAAAAAAAAAAAAAAAAAAAAAAAAAAAAAAAAAAAAAAAAAAAAAAAAAAAAAAAAAAAAAAAAAAAAAAAAAAAAAAAAAAAAAAAAAAAAAAAAAAAAAAAAAAAAAAAAAAAAAAAAAAAAAAAAAAAAAAAAAAAAAAAAAAAAAAAAAAAAAAAAAAAAAAAAAAAAAAAAAAAAAAAAAAAAAAAAAAAAAAAAAAAAAAAAAAAAAAAAAAAAAAAAAAAAAAAAAAAAAAAAAAAAAAAAAAAAACP4AfwkcSLCgwYMIEypcyFBWpU6fXNliSLHiQCwhMoYQocWiR4VHNG5U8rGkQRkiRRQxadHXlTa0BDIakXKGqoGpMrFE+EaECBhpjPhMKcIFnEVSTMCYtbMgKBY+RYicSjVEmqYEn1TdOrWFK6y/AknVGDVHH1GrBiGJmpILWEAniFbpVZDNULIpwP5qJCOqCBu5Dk4Zm9HEGr2/VrmIGgehI786LiEWWCIqJYS+KvvENFkgiqiVEmoWIRmxqCR+Gx985NcR4j8vUt7QdVCKXxV99PIgvFEEFV5172YUoQasH95RdfARhYoQauEb0ejdwbV6iBq3LJb50ePDBgoZTP4JFCQSKvStizxqCMC+vaGBREZEgXQKCnSfRgBRISHCyscE7bVnxkCieELQFsjJMVAmWaziUS0ARAhAe00UFMlAbiDHmUWKJEJQGRJOyN4BXZTySx4VBGCHQHjwNkJgFb0CIAZnSNJBACGGGAACFrSXACu/TEJDDC6sIAIOHoHRXo5M5tjeElixYsCSTVYZIiJNOVFlAD/oMUooewSBY5MT7ERKATqyJ0AdBtUxAJURArGTJQSkGcAXCHkRYAADjIGVJj7siQAuCMVyQICHIEZHgEIoJESArSDGSYBMKMREgJwg1gqjjgZ4B2KHBHhALAjhgsCeQ5CC1RhvBugFQoBfwAlAAqHsBISdA7BZUB0CyHoALDtNsGUQe4Qyih4/jMmkGE0hYuWzIgagAKlNLSErtNGSARYrALIHgQPKOulBImE8EEADhIJlRwAS0LHLK2AwIOscA/mih4eIReLLh7Lu25lChewZQAH/LrSJwAsUvBAHEVBwwQcgdKHwxBQFBAAh+QQMBAAAACwAAAAAMAAwAIfmUQDnUgHnUwPnVATnVQboVwjoVwnoWAroWgzoWw7oXA/pXxTpYBbpYhnpYxrqZBzqaCHrbirrbyzrcC3scjDsdjbtejvtez3tfD/tfkHtfkL/oAD/oQH/oQL/owf/pAj/pAn/pAr/pQz/pQ3/pxL/qxz/qx3/rB7/rB//rSH/riP/riT/ryb/ryf/sCr/sSv/sSz/sS3/si7/szD/szH/tDP/tDT/tTf/tzv/tzz/uD/ugUbugkfviVHviVLvilPvjFbwjln/uUL/ukT/vEn/vk//v1HxlGLxmGjynG3ynnDyn3LyoHTyoXXzo3fzo3jzpHnzpXv/wVb/wVf/wln/wlr/xF7/xF//xGD/xWL/xmT/yGn/yWz/zHT/zHX/zXf/znr/z3zzqYD0qYH0rYb0roj1so71tJH1tpT2uJf2u5v2vJ33vqD3v6H/0ID/0YP/1Ir/1Yz/1o//1pD/2JT/2JX/2pr3wKL3w6b3w6f4x63/3aL/36j50Ln50Lr/4az/5LX/5Lb/57z/577/6L/62Mb62cf72sn73Mv739D/6cL/6cP/68j/7Mn/7Mv/7c3/7s/84dP849b/7tH/79P85dj85dn96d//8NT/8df/8dj/89z/893/9N/96uD97ub+7+f/9OD/9ub/9+f+8Oj+8uv+8uz+9O7/+Ov/+ez/+e7/+u//9vL/9/P/+/P/+PX/+fb//PT//PX//Pb//ff/+/n//fn//Pr//vv///z//v3///3///7///8AAAAAAAAAAAAAAAAAAAAAAAAAAAAAAAAAAAAAAAAAAAAAAAAAAAAAAAAAAAAAAAAAAAAAAAAAAAAAAAAAAAAAAAAAAAAAAAAAAAAAAAAAAAAAAAAAAAAAAAAAAAAAAAAAAAAAAAAAAAAAAAAAAAAAAAAAAAAAAAAAAAAAAAAAAAAAAAAAAAAAAAAAAAAAAAAAAAAAAAAAAAAAAAAAAAAAAAAAAAAAAAAAAAAAAAAAAAAAAAAAAAAAAAAAAAAAAAAAAAAAAAAI/gB7CRxIsKDBgwgTKlzIsBctQJNmNZxIUSAfDhhNCIlTsSNCLRhDqvBYcVeYRQRXhMQ4gyRFMBw6cIlFKMuGmxsw6nDZ8M/KDxhx5uQwYs9AUat4FsQkIqTQpzi1dJHBYYpSgi2gatXqIdVVgViEhrTxZ1QqQUWc4uQg56vALSs5XMlVkE7QtTDcCsQR8gWug1Q4iOXgSG+KkHYQPhK8dgUnvSNCUkLIC0TIE3bofg1EYyUkhLuAYtTkllYOxjc5JD64OKQqt65CoM4J46/BKiFJSHRrZTbGK7sK1okrJJZbRb4x1vgj6mzauzdvyHKpiyCLrdhxihg10ZCaJj0m/hgAQhAOhxhvBqFQm/3PRFMBAMgHEEBBdYG2Og1ENQT60BYdhAQGRZ7EN18AASBCEC+SDDSHf1I00gsjLnBARHATFTgffQE8cZ8lFwSAh0Bu+LfJQLbEkRSBBsqHYAALLFFGAQgekEgvXsRVQketkDIQKBq0uOGQCEJwSiZfGAGDBxxY0REQAVDghB4NIDjklRwGsMN9vfASiisVlULAi1iWOWQeSplRZgA+9FGKKX78IOSLGbCilAQbvijAHQa1IcCLCPIAi1KHzIkgGQiRAWgEt1wVhaEM1IJQLQu8yMBXoCBBI6BBKBQEoK+4BYoSgCqhEKkvMmGKW69w6imgoAEkIEYrXzHw4gKSHlSLrXOicdUtEQCK6EGKWnlgJUrBwgOsArRh0B1/GiufBUqxkgGZB/7ghyml9OGDkBuuoVQeZpabJQK08qTLDtiWi+ADbBzhQABHfHUKBNKaGQAGnwwUiZ1fJXIAggMwMca8+Qawql4F4RFABTcKlEbClzBskCS8EFRKwhFbrBAFcxbi8UJQCAABD0mc0cfIDDXKckAAIfkEDAQAAAAsAAAAADAAMACH5lEA51IB51MC51MD51QE51UG6FcI6FkL6FoM6FwP6FwQ6V4S6V4T6WAV6WIY6WMa6mQc6mYe6mgh6mki6mok62sl628r63Eu7HIw7Hg57Xw+7X5C/6AA/6EB/6EC/6ID/6MG/6MH/6QI/6UL/6UN/6YP/6cQ/6gU/6sb/6we/6wf/60g/64j/64k/68m/68n/7Ap/7Aq/7Er/7Q0/7Q1/7U4/7g+7oJI7oRL7oZN74lS741X8I1Y8I5Z/7tI/7xJ/75O/75P/79R8Zdm8Zhn8Zho8pxu8p5w8p9y8qB08qJ286Z886h//8FW/8FX/8Ja/8Nb/8Nd/8Rf/8Rg/8Vi/8Zj/8do/8pw/8tx/8tz/85586mA9KqC9K2G9bKO9bSQ9baU/9GD/9OI/9SK/9SL/9WM/9aO/9aP/9eR/9mX/9qa/9qb/9uc98Gk98Om98On+MWq+Mar+Mes/92h/92i+Muz+cy0+c62+c+4+dC6/+Cr/+Gs/+Gt/+Gu/+Oz/+S1/+e8/+e9/+i/+tTA+tXB+tfE+tnH+9rJ+9vK+93N+97O/+jA/+nC/+nD/+3N/+3O/+7P++HS/OPV/OPW/+/S/OXY/Oba/Ofc/ejd/enf//DV//HX//HY//La//Pc//Pe/ezi//Tg//Xi//bm//fn/vHq/vLr/vLs/vTu/vTv//jq//jr//nu//rv//by//fz//vy//j0//n2//z2//v4//v5//76//38///8///9///+////AAAAAAAAAAAAAAAAAAAAAAAAAAAAAAAAAAAAAAAAAAAAAAAAAAAAAAAAAAAAAAAAAAAAAAAAAAAAAAAAAAAAAAAAAAAAAAAAAAAAAAAAAAAAAAAAAAAAAAAAAAAAAAAAAAAAAAAAAAAAAAAAAAAAAAAAAAAAAAAAAAAAAAAAAAAAAAAAAAAAAAAAAAAAAAAAAAAAAAAAAAAAAAAAAAAAAAAAAAAAAAAAAAAAAAAAAAAAAAAAAAAAAAAAAAAAAAAAAAAAAAAAAAAAAAAACP4AdwkcSLCgwYMIEypcyHDgok0NI0ocOOpDBxRS6JCayFFgIFUExXQYOVLErI4S03RQAWmgC5IjS6CMqHLkiDFUXsLsUGMmw5odOAgdKpSkEJ8KBRFdypSDloG4kBJspTNoU6IdgvhI0YGR1IGcTOykoYfUKkBASGJ9+lUgGphTohI8MxLrjLYCoZCUYevgE6tFP7DC+4LkGoSPAHMYyUeqqDAsYFJKCAJrBzZIHVnEOhkhCJInrnT2Garu0A6HDyYmCQtvC8Ud+PolCQPvLiuwO8QtSJdkFNt7cncgaxbtTg9+ZtIqyCrECidmVly13IGEJomv7CDBMGBQQbm7PP5xNT2dQ5mGijIQAMAeAA+Drwb2UduUJJRcDdsECNAegIFUA7mCQwKHCETGTh3EgMUfP9iHX0N57NdfAEMQUksmFuxH4C5TIOiJQLlk0cF9Ek0iYXv7BbAAAykGQGAVO9lQUCMPRmTJif3lCICGiHyiRhMndDAHUpdAgKOOKO43xEC6dFJjRIVIsIERYEyQIpI57lcBKlIlgWUAOuRRSil56MAfigpU8hUGE+43gBsGuTFAi198dYoAbQbQBUJdtLjDV3Kcyd5+DSx3EC0NpAjBV0UIumMAPSjUQ4s61HGLT14c0OYRCh1xpANx+BTLGzm0GGlCkzoagBJfGUmooYsGIXpkAHh8tUOLex7U55EFyPLVFy2+GeecR2rwVSUKqBrmmGU62t8WUqFSwZFfaskFDxcgkIhUQ1yJZZIQXGLbLogkQC2S+4EyrkCHmJviAQ94O2gAkqzLrrsTRKKLIUyoGkCo9u7S7g1cCqRLBG1CG/Au8RW0xIQY3LEwQpgUQAERcJgysUKwjhsQACH5BAwEAAAALAAAAAAwADAAh+ZRAOdSAedTAudTA+dVBuhXCehaDehbDuleE+lfFOlgFelgFutsJ+txLuxzMex0M+x1NOx1Ne1+Qf+gAP+hAf+iBP+iBf+jBv+kCP+kCf+kCv+lC/+mD/+nEf+pFv+qGP+rHP+rHf+tIP+uI/+vJ/+xK/+xLP+xLf+zMP+zMf+0M/+0Nf+2Of+4Pu6CR+6DSe+HTu+IUO+JUu+KU/COWfCQXPCRXfCRXv+5Qv+7Rv+8Sf+8Sv+9S/+9TP+9Tf++T/++UPCTYPCUYfGVY/GWZfGYZ/GYaPGZafKcbvKecPKgc/KgdPKhdfOjePOle/i0ev/AU//AVP/CWf/CWv/DW//DXP/DXf/EXv/EX//EYP/FYf/GY//GZf/HZ//Iaf/Iav/Kbv/Lc//NeP/Pff/Qf/SpgfSrg/SthvWxjPWzj/W0kPa3lfa4lva4l/a6mfa7m/e/of/QgP/Rg//Uif/Xkf/Xkv/YlP/Ylf/Zlv/Zl//amv/cn/fAovfDp/fEqP/dov/epf/fqPjJsPjLs/nMtPnPuPnQufnQuvnSvPnSvfrTvvrUv//hrP/jsv/ktP/ktv/lt//nvP/nvvrZx/vayPvdzf/syf/sy//tzP/tzf/uz/zj1v/v0v/v0/zn3P/x2P/y2v3q4P3s4v3s4//14v/25v/35/7w6f7x6v7y6/7y7P7z7f/57P/57v/67/718P/28f/28v/38//68P/68f/59v/69//89v/99//7+P/7+f/8+v/++v/++////P/+/f///f///v///wAAAAAAAAAAAAAAAAAAAAAAAAAAAAAAAAAAAAAAAAAAAAAAAAAAAAAAAAAAAAAAAAAAAAAAAAAAAAAAAAAAAAAAAAAAAAAAAAAAAAAAAAAAAAAAAAAAAAAAAAAAAAAAAAAAAAAAAAAAAAAAAAAAAAAAAAAAAAAAAAAAAAAAAAAAAAAAAAAAAAAAAAAAAAAAAAAAAAAAAAAAAAAAAAAAAAAAAAAAAAAAAAAAAAAAAAAAAAAAAAAAAAj+AIUJHEiwoMGDCBMqXMiQICtWDSMyBGaQhQUojyhK3DiQ04goGoVBokCSQggyvDhKDLSBJBWNKShMmDmBAiiVE8OUJKmCBAaSNCeAwMlwTMmgSGluIboQUwWgSZFyYbpQDNSoNCnkoZoQV8uSKhiVYhXpx84LOlqg8MKVoKOdWUIKvHO1poe2A6+UNNHr4BSZWSnQourrTxUQO/UgzAR4JslLVCPVpaAJITAMQUkCovppcieEwTJkpjCHKq+nmRUfZFyyAxA6rriOaFyzRF+DUkqekEt1B22SWHwVtLNTDl6BdVb06IJjZ1hTZM3urHycYCsRWEfn4FiLjwQXCzn+ZQ9MYU9ESkUOBFgviOAvIkRsCXw03jFJHg2VrN8fwEGwgTes90AowoAxmgcsaMHBTj7M0pAT+wEgIQBDoIHIERMCgEAiKGR2ASkCWfJVHBINEmGGKEoYwABPWKFBSV8QJMkHjWx0yokpZrieDMLMgocKGZjClScErJcjigEcIApBt3AVCwM4HglAAG7gtcYSZagRg44zHKJKKobIEECGCfzXVgE6rjcAHAbxMQB/hLQ1ypgT7ncGQmfwZ0Nbi9CpYgAJ6IKQLgvsNwAETBSSC1Fv+DllADQoRIORdTJBFBOOrpeEQklQqqIZRAmRKaSSejqlH0ShwscRDby53gKTgh6kSwKmBlBJWzbwd+dBedYKS1uE8DcAHwbB4aqjCuAVTAI6ymBIKqocMoOjLziBRBBp4OWGo0fux4As1QkjinpS1hmAAZ6EK4yY3Oao5irqtvFmuX8G0Ie6wiSCQIYwTMJGE2kGcAO+woTywHow7DLQtPwFEAPBwtgC3y8EbSLAegXUoAjEChkRQRuvcCwyQgEBACH5BAwEAAAALAAAAAAwADAAh+ZRAOdSAedTAudTA+dUBOdVBedVBuhXCehcD+hcEOldEelfFOlgFulhF+ljGupkHOpmHuppI+pqJOtsJ+ttKOtvK+x2Nu15Ou16O+17Pf+gAP+hAf+hAv+iA/+iBP+jBv+jB/+kCf+lC/+lDP+lDf+mD/+oE/+oFP+oFf+qGf+rG/+sHv+tIP+uI/+wKf+wKv+xK/+xLP+zMP+zMv+0M/+0NP+3O/+4P+6CSO6ES++IUO+KU++LVPCNWPCPWvCQXPCSX/+7Rv+8Sv+9TP++TvmrUf++UPGYZ/GYaPKcbvKdb/KecPKecfKgc/KgdPKhdfOle//BWP/CWv/DW//EX//EYP/FYf/GY//HZ//HaP/Iav/Kbv/Kb//KcP/Lc//MdfOpgPSshfSthvSuiPSvifWxjPWyjfWzj/W0kPW2k/a4l/a5mPa6mve+oP/Rgv/ShP/Ui//Wjv/Wj//ZmP/amv/am/fAovfDpvfDp/jFqv/coP/epP/fp/jJsPjKsfnOt/nPuPnQufnSvPnSvfrUv//gqv/gq//hrP/hrf/hrv/ir//isP/ktv/lt//nvP/nvfrXxPrYxfvayPvdzPvfz//owP/pw//syv/tzf/tzvvh0vzh0/zj1v/u0f/v0vzn3P3o3f/x2f/z3v3s4v3t5P7v5//04P/04f/14v/25P/25v7x6v7y6//36P/36f7y7P/46//57P/57v/38//68P/78v/78//49P/69//99//7+P/8+v/++v/++////P/+/f///f///v///wAAAAAAAAAAAAAAAAAAAAAAAAAAAAAAAAAAAAAAAAAAAAAAAAAAAAAAAAAAAAAAAAAAAAAAAAAAAAAAAAAAAAAAAAAAAAAAAAAAAAAAAAAAAAAAAAAAAAAAAAAAAAAAAAAAAAAAAAAAAAAAAAAAAAAAAAAAAAAAAAAAAAAAAAAAAAAAAAAAAAAAAAAAAAAAAAAAAAAAAAAAAAAAAAAAAAAAAAAAAAAAAAAAAAAAAAAAAAAAAAAAAAj+AIUJHEiwoMGDCBMqXMiwocOHBBUVKsjHhR5gEDMKPDVkgwdLA1uZ2LDhBSKNDn3FEUFyQ4pWAo1omKlhAw1XKBdeIUlTgwgQPGlu4CAqp8I5QXsqrRnEqEJeKzYsXbohkVOFcKRO7bmBztWENVpuqHGoFaxHRsSOQPXVICOxVXwVlCO2hRApXGg5zYXFBgqxMXodnKJ1JslLTkMlrVkHYabCNTdUcmpq8QZPCT9w3dDIaSzLnRAG0yx0wyKntCx7PYgJMsk9Vy2/4DVYbIkZUU5dddPFCpUOLa1gJEi35Zu2BquIpYGolSxHRMSaiIW8oCwVW7lO0QhKCSWDdkr+DbRFIrvQD2wdkkJiIAAFXQTLBECgJpgwOpC3kszSkNWSAwEEGMATA0VSgIAXbBIWVyewAMNmMjSUAQAUAhDgAE4sMcYDAVQIQAFFlEcTCrAI9EVLHGxRS0NNeOjiixb2EIsXIZBkyEC+3LCBDIg5JAmMQAIgwHfCpKKFFgWpModcEEEgYJAV9lDdQLdE8CSUAPQxpUBJeBgAD4Ks8kogOnRYoQXIaUJIH2wQICABdxh0xwACBgDIV4CYSaGAYSAkRp0BNIABEJ/khIeeFgawAC4I7cJAgF6mkVMbiAbog0I+QFphAG3ktEalASyh0BKa7mlHTmiAemlCmVaqJUqUZIDKwC4I4bJAqRb6kdMkOFSAAKBiIBTGlXtC8tUfdQ4QZ0F3uBmgAWSwkYcgv7RlgZc6BPLKKoLwgKioW/aBZaIBSDDLlsL0MK6AE6BLiQDjejjIlj0gOu4OW5pRgJcKnAEFGAng6gC6m1wg4AB/DETpm0eMgq4wwajxa7AE5RCAAD8U+vBApZxaUClMcLLxyAoFBAAh+QQMBAAAACwAAAAAMAAwAIfmUQDnUgHnUwLnUwPnVATnVQXnVQboVwjoVwnoWg3oWw7oXA/pXhLpXhPpXxTpYBXpYBbqZBzqZyDqaSLqaiTraybrbyvscjDsczHsdTTseDjtejztez3/oAD/oQH/oQL/ogP/ogT/owb/owf/pAr/pQv/pQz/pg7/pxD/qBT/qhj/qxv/rB7/rB//riP/riX/sCn/sCr/sSz/szH/tDT/tTj/tzz/tz3viVLvilPwjlnwj1vwkFz/uUH/uUL/ukT/vEn/vU3/vk78s1L/v1LxlmXxmGfxmWnxmmrxm2zynG3ynG7ynW/ynnDyoHPyoHTzpHnzpXrzqH//wFX/wVb/wln/wlr/w13/xF7/xGD/xWH/yGn/ym7/ynD/zHT/zHX/zXb/znr/z33zqYD0rYb0rYf1sYz1so31tJH2uZj2upr2u5v2vp/3v6H/04b/1In/1pD/15H/15L/2JT/2pr/2pv3waP3waT3wqX3xan4x6z/3aH/3aL/36f/36j4ybD5zrb5z7j50Ln50bv50r3/4Kv/47P/5Lb/5bj/5rv/57z/57362MX62Mb73Mv739D/6MD/6cP/7Mn/7cz/7c7/7s/74NH74dL84tT849X85Nf/7tH/79L85dj85dn859v/8NX/8Nb/8df/8dn/89z/893/89796uD97uX97ub/9+f+8On+8er+8uv/9+j+8uz+8+3+9O7/+Ov/+ez/+e3/+e7+9fD/+vD/+vH/+PX//PT//ff/+/j//fj//Pr//fv//vr//vv//fz///z//v3///3///7///8AAAAAAAAAAAAAAAAAAAAAAAAAAAAAAAAAAAAAAAAAAAAAAAAAAAAAAAAAAAAAAAAAAAAAAAAAAAAAAAAAAAAAAAAAAAAAAAAAAAAAAAAAAAAAAAAAAAAAAAAAAAAAAAAAAAAAAAAAAAAAAAAAAAAAAAAAAAAAAAAAAAAAAAAAAAAAAAAAAAAAAAAAAAAAAAAAAAAAAAAAAAAAAAAAAAAAAAAAAAAAAAAI/gCPCRxIsKDBgwgTKlzIsKHDhwRDZYGBiyAwOLQgahRYicoHDx64ELziQYWhjQ+/gFwZopJANx1idshyCyVDMCBldvAAooUHnR5YuLKpEFROnUhjekBRi6jCGT+TIvXwxmnCTSWiSpW5YpdVhDVWeqBRSBWtREJ0mlD1dSARFCeAailWEI7YLm0FojgaUwawg1VWjggSpk9FosFW6qSDkBLfnXGculIs0+VBYyO07tzj1OhjTgiNidDs4ZDTSJRj1kE46bEHSU6DIZrjJSxIGcEOWnFNKq+pjyCzDCsoR6yHEihi9Mp7LItYsq5kKUorM0VN5gO3PN7qRyOxUwbb/mSwI0zgqBDbZa4koQtiJw0DABF8xSBAAAppfE1JvbUDH4fGnHGAfQpkMlAR9iUYwRDGeQDDC3tp9kNDn3AAwIUABCABGk4gIYB9GAKQBCIrrHTDX8f4oFkPDVkQQIgwxghAI8fcgoUHLswykCijeWADIg5F8aKMISZYAUGLlFKQGEBAAtEqCBBZpH1LYDfQEVJimCACl1h5TBNF5jAILKwIgsOQF25giy3G5IWKAQkOgIdBeBSQYIgO5OKUL5YYkWAAZCBUxp1aemKTHhYQ8GcADfiCEC8QgKglIzZBgWaGAeig0A6SXhjAHzaZcal9TSjURKcZqmHTHaMGsINCmjqgCqhNgbQKAS8I+dIAqg/kYZMjrQZQBkJk/MkDIas49YoBUwZQwJwF4TFAggag0lYsray5QZE4CMIKLIPkcCkTXl6CAKFZPuHlMUugK+UB4FlZgbtEBsCDlY1kGWMACViZRLNKSLEGB5digImVekSwaA4DvTKBfQWM8cu6vqRBAYGpEKTJAhc8si5BwtiRARsGwTLxxygjFBAAIfkEDAQAAAAsAAAAADAAMACH5lEA51IB51MC51MD51QE51UF51UG6FYH6FcI6FkL6FwP6V0R6V4T6V8U6WAV6WAW6WIY6mcg6mgh6mki62sm620p628r63Eu7HMx7HMy7HY27Hg57Xo87Xw+/6AA/6EB/6EC/6ID/6IE/6MG/6MH/6QI/6QJ/6UL/6gT/6gU/6gV/6oY/6oZ/6oa/6we/6wf/64j/68n/7Ao/7Ap/7Er/7Es/7My/7Qz/7Q0/7U4/7Y67oFG74lR74lS741X8I5Z/7lC/7tG/71N/75P8JRh8ZRi8ZVj8Zho8Zpq8pxt8p5w8qJ286N3/8BV/8Ja/8Re/8Rf/8Rg/8Vh/8Zj/8ls/8pv/812/814/8989KuD9K2G9K2H9K6I9K+J9bKN9bWS9baT9riW9riX976g/s2E/9GB/9KE/9KF/9OI/9SJ/9SK/9WM/9aQ/9eS/9eT/9mX/9qa/9ud98Ci98Kl98Om+Mar+Miu/92i/96l/9+o+Mqx+dC6+dG7/+Cp/+Cr/+Oy/+S0/+a5/+a6/+a7/+e8+tTA+tXB+tnH+9rI+9rJ+93M+97O+9/P/+nC/+rF/+rG/+vI/+3M/+3O/+7P++DR/OPW/OTX/+/S/+/T/Oba/Ofb/enf//DW//HX//La//Pc//Pd//Tf/ezi/e3k/e7m//Th//Xi//Xj//bm/vDo/vHq//fo/vLs/vPt/vTu//jr//nt//rv//bx//vz//j0//n2//r3//z0//z1//33//v4//v5//35//z6//76//38///8//79///9///+////AAAAAAAAAAAAAAAAAAAAAAAAAAAAAAAAAAAAAAAAAAAAAAAAAAAAAAAAAAAAAAAAAAAAAAAAAAAAAAAAAAAAAAAAAAAAAAAAAAAAAAAAAAAAAAAAAAAAAAAAAAAAAAAAAAAAAAAAAAAAAAAAAAAAAAAAAAAAAAAAAAAAAAAAAAAAAAAAAAAAAAAAAAAAAAAAAAAAAAAAAAAAAAAAAAAAAAAAAAAAAAAAAAAAAAAAAAAACP4AiQkcSLCgwYMIEypcyJBYqYYQIwr0VEbGhz4SMyIEhMODRw83CH6agUajRCofPnr4MEggphUfPkzxZbJhnpQfY7pokiJmTCCxai5chVOl0ZUfZgATmvBPiKNHY9oQxnTgsFK3iHEqURSqxw8lOlUd2CZmiRM+P+Dws+oVoSEqP6wZO9BJzLhSlhJkk9YKXYEWu9bQW9BuzBbD6OIKcfcjHISR0gZ5Y6rqI58qLyEcRqLrBzVMA4lo7HHS5s5x3VS9JQjLC5+PD0oivdLR3zM+adA0aFgliFl/Q4HwGYXqXswfY/wlBspE2rWoYA0SotIE2g9QaqbaRVCYDuRePf76IZbrFC+TtBgoKMInGLE04XPGNJNxzpiCYALoDwAhCZn4X8UESETDMKFfFgP9IsF++4VxxwhpPQGECmnFdAVEtfAAwIYALHFIFz9wCMB+ihDTCAofgPCGQMPMUGEODZGSQQAi1sihfgq4R4wnOuBBUBxpwaAaQx3oZ6ON+u2gkC8tsFAFJBF9YeSRIuo3gB4KvWJcRL9gQCOVN+qXQCKWGFIHKXQhIkCVPeyhCit79PCljUTQlQoC+xVAh0F0DLCfiBfQ5QWDWyCkxZ8cEmBLVa1ssN8Dix7USwNTbhgAIjWJogUHfu73g0I/VDqiGDUZMeeIASihkBKiBoBETaxdnKrfpwmFyiAFSmRSEx+yBtBALwjZ8sB+GmhSlSu9BqAFQlsw6AVdEVRp5Z4F0VHAfgagOVYPVAbQJiuqxHnqAZTQVUkYejBySAKIgjmiBbosJ5AenbpraQBJyCvQDqJ2G8AE+gajQL9HBlDBJvoq0i4APoCxiBydBrCDLPoSEwaD+jkQKTF2GBDAEb9UTMwoSUDAIBcFFXKfyAMFw0cRCixAC8sN7ZIKzQEBACH5BAwEAAAALAAAAAAwADAAh+ZRAOdSAedTAudTA+dUBOdVBehaDOhcEOldEeleEulfFOlgFuliGeljGupkHOpmH+tvK+xxL+xzMex1NO16O+18P+1+Qe1+Qv+gAP+hAf+hAv+iA/+iBP+jBv+jB/+kCf+kCv+lC/+mD/+nEP+nEf+qGv+rHf+sHv+uI/+vJv+wKv+xK/+xLf+zMv+0M/+0NP+1Nv+2Ov+4P+6ARe6BRu6CSO6DSe6FTO+HT++IUO+KU++NV/COWfCQXP+5Qf+6RP+7R/+8Sf++Tv++UP+/UfGVY/GWZfGXZvGYaPGZafKecPKidvOjePOmfPOnfvOof//AVP/AVf/CWv/EXv/EYP/FYf/Iaf/Iav/Jbf/Kbv/Lcf/Lc//Oef/OevSrhPSshfSthvSth/SuiPWxjPWyjfWyjvW0kPW2k/a5mPa9nve+oP/QgP/Thv/Th//TiP/VjP/Vjf/Wj//WkP/YlP/Ylv/ZmP/amv/bnv/cn/fBpPfCpffDp/jGq/jHrP/fqPjJsPnOt/nQufnQuvnRu//gqv/gq//hrf/hrv/js//ktP/ktf/lt//luP/muf/muv/mvP/nvP/nvf/nvvrVwfrZx//pwv/qxv/rx//ryP/sy//tzf/tzvzi1Pzj1v/u0P/u0f/v0vzl2P3p3v/w1f/w1v/y2//z3P/z3f/z3v3q4P3s4v3u5f3u5v/14//15P7w6f7y6//36P707v707//46v/46//57P/57f/28f/28v/38//68f/59v/69//89P/89f/89v/99//7+P/9+P/9+f/8+v/9+//++v/++//9/P///P/+/f///f///v///wAAAAAAAAAAAAAAAAAAAAAAAAAAAAAAAAAAAAAAAAAAAAAAAAAAAAAAAAAAAAAAAAAAAAAAAAAAAAAAAAAAAAAAAAAAAAAAAAAAAAAAAAAAAAAAAAAAAAAAAAAAAAAAAAAAAAAAAAAAAAAAAAAAAAAAAAAAAAAAAAAAAAAAAAAAAAAAAAAAAAAAAAAAAAAAAAAAAAj+AJ0JHEiwoMGDCBMqXMjQGTJNtBpKlDhMERcZIDJMmchRIZsMGEJiEEGMoKlfHTveASkyA6KBczzEAJZyoiSWITOMiEIISoafQI7VbOgIp8ijOaMwG2rwE6ZgzhZ9MIq0ZQYtTAkeE5GBA4sQP6tW/Ykl68BGP41meGEoli1IQtQGWWrWmZW0R6vQHRjnqApfdQWWSJtWhVCDUtKaCOws09G0dhBqIowqcCkfGghn+ISwWYe0PxgxbuWGRFpPCT8TTvGIMZG0dRBuwiuSDuOPP1coO5g4rEhXjLscpbKboJzHP2EwxqP2RaFYtSINUfuTTcpek3QRtPRZLNK0Lab+ZiCVskyAARGS6Ek1KqN35HCcKQNVqSYFAPgBBAggClKH9y21wREuNTixzECsCJCffgHM4swhG/yEQiJruKDWGxPxQsF+FbCSzCA9BLBgAAgMxBwUuwx0wmNXSFTMDPvtt0ADMY44AUGnFLTFY1A0tEwO+y0oZH4BHCBIQpd09UIWftzSUBM1DinkfgP0IQofTHhBUDOYoMTRH1FKKWZ+qtS1RJBE5hAILK8AooOIUp5R1zIWxHjeHgbtQUCYAFwQGBl2hoEQGHwOIEtdNsSYQDEI9aIAmvgFoIZZxjgQ4w4K8QCpfmYwtcoTDNiphEJK2GkAEpwwhUYBIwbAg0KgO8ToQC5mnQFnpAEo0AtCxSQQow11qXIrgwGAgVAYdpIR2AStBkAAngXtMYCdNxxo1hdiBqADIK/AEgiQrRpRVydjlkusGHUVUUQaofAx7bDZ7ncEYwMJcgC8Uu5HA6P0CjTBsDE+AIGdFPDS70AIALwDJc0Ig8R+EuBysECzbBpAKATlgQMsEwskyqYSdKxQKnokEcG0Y4jckC6T7DpxQAAh+QQMBAAAACwAAAAAMAAwAIfmUQDnUgHnUwLnUwPnVQboVwjoVwnoWAroWgzoWg3oWw7oXA/pXRHpXhLpYBXpYhjpYhnpYxrqZh/qaSPqaiTrayXrbCfrbSjqbSnrbSnrbyvrcS7scjDsdTTseDjtfUDtf0P/oAD/oQH/oQL/ogP/ogT/pAj/pAn/pAr/pQv/pQz/pxD/pxL/qhj/qhn/qx3/rB7/rSD/rSL/riP/riT/sCj/sCn/sSv/sSz/sS3/si//szD/szL/tDP/tDT/tDXugkftg0nug0nuhEruhk3viVLvilPwjVjwkFz/uUL/u0f/vUz/vU3/vk7/vk//v1HwlGHxlWPxlmTxlmXxmGjynG3ynnDzp37/wln/wlr/xGD/xWH/xWL/yGn/ym7/ynD/zXf0q4T0rYb0rYf1sIv1sYz1tJH1tpP1upr2vJz/0ID/0YL/0YP/04j/1Yz/1pD/2JT/2pn/2pr/2pv/253/3J/3wKL3waP3waT3w6f3xKj4xar/3KD/3aL/3aP/3qX4y7L4y7P4zLT5zbX5zrb5z7j50Ln50Lr50776077/4Kv/4az/4a3/4a7/4rD/47L/5bj/57z/577/6MD/6cH/6sT/68f/7c374NH84dP74tX84tT/7tH/79L/79P859v96d7/8NX/8dj/8tv/89396uD97ub97+j/9OD/9OH/9ub/9+f+8er+8uv/9+n+8+3+9O//+ez/+e3/+e7/+u//9vH/+vD/+vH/+/L/+PT/+PX++fb//PX//Pb/+/j/+/n//fv//vr//vv//fz///z///3//v7///7///8AAAAAAAAAAAAAAAAAAAAAAAAAAAAAAAAAAAAAAAAAAAAAAAAAAAAAAAAAAAAAAAAAAAAAAAAAAAAAAAAAAAAAAAAAAAAAAAAAAAAAAAAAAAAAAAAAAAAAAAAAAAAAAAAAAAAAAAAAAAAAAAAAAAAAAAAAAAAAAAAAAAAAAAAAAAAAAAAAAAAAAAAAAAAAAAAAAAAAAAAAAAAAAAAAAAAAAAAAAAAI/gCRCRxIsKDBgwgTKlzIUCAvUakaSpRIqokOFiJEvJjIUaGjjCFChljVsWRBSSBFOiL4iJTJiZNShuSx6FioJCJs8Hp5UFgdTgIv5ZAZIqOMEhlFaOFpkE/GGV1QJBVJtWofpgR3VN3KNaSKUViRxaSa1IeiVbEiOZkqkoSksGvJithCrCCcpBlNNArraoQIsjiEHcySlASlsALjwCA7B+ElvK4QCwxGZ0XSTgiPnUhaSfJAHkkvISxmIukSVJ6RPUkqx/FfkSbA9EJ860fSG4INYnkdMiOksKp04FVazC5RETHqYqUhV0SPs2mbsO3tpiOoTLAKPunKXaSKWx0r/gQIgCADEDPIZsGYzp1Lj4xeOr4aD6A+AA4CLSHNaAOp3BaMCJQKHbJ0VAh99nkwUBsiuOAHMqR8IdcbHH0CwRStCPRLFQjW9wFBf+BCUAvDrTGRLxyMx8AZYTQwXgD2AWDBKwkxMZwaE1HRYYw8BuCAIb8EEkUHrAzERkYp1KDEWw3p8SKPUAIwHgEJvHjFQLZ4QktHpVS5Y5Q9jufALkxtcsCT9gVQhCGttGKIETBGiQZWiRTw4pR2GITHAGjWh4ExWAFCwJ1jICRGn/UhEpYQLzrgC0K/OLBjEKeERcGLRyh0xJ0bHCLZAi9aoZAVLypwDGKYgHBnpgltOh4FnmHVAoUAd/r4C0K+SDreEGEREmd9L4qB0Bh3JmAIVsNIEOOLA+BhkB2D3knAHViVAWYARrDpZhG/8igIU7V42S2Yy45ngCZYkToeAtGSm+Z4aYRVygNE5KGLIZK6C2wASKQ20CsWlBtABGUMksF4F+Ti70AflCvFqcgAQ4YGmSw8kAfl7mFxQhyUa8rGCJkBRAYIjDcByAzBkgkoCwcEADs=;labelPosition=center;align=center;fontStyle=1" vertex="1" parent="1">
          <mxGeometry x="-34" y="81" width="48" height="48" as="geometry" />
        </mxCell>
        <mxCell id="SXlrUgiKZUOwkP90kZ7k-21" style="edgeStyle=orthogonalEdgeStyle;rounded=0;orthogonalLoop=1;jettySize=auto;html=1;entryX=0;entryY=0.5;entryDx=0;entryDy=0;flowAnimation=1;" edge="1" parent="1" source="SXlrUgiKZUOwkP90kZ7k-2" target="SXlrUgiKZUOwkP90kZ7k-4">
          <mxGeometry relative="1" as="geometry" />
        </mxCell>
        <mxCell id="SXlrUgiKZUOwkP90kZ7k-2" value="" style="shape=image;verticalLabelPosition=bottom;labelBackgroundColor=default;verticalAlign=top;aspect=fixed;imageAspect=0;image=data:image/png,iVBORw0KGgoAAAANSUhEUgAAAKAAAACgCAYAAACLz2ctAAAACXBIWXMAAAsTAAALEwEAmpwYAAAFOElEQVR4nO2dQU5kRxBEU+Z045PACVrjhenlnMacwd4N17HZOixkZods6Mzuej8qnhTLqckf+WhQUy2qQgghhBBCCCGEEEIIIYQQwr/cVdVDVT1X1UtVKXm3g7+q6o+q+jnizMr3FOE+9UX3d1V9HdzB1ry+8uUV77IOfl29PAdev+1GwMs7iIRN8jNf/wvwsbuEncmr30wHkfBCIuBcB5HwAiLgbAePlyxhZyLgfAffVi/1SETA63TwbfVij8JHC92ZcyS8HhHwY0TCKxEBP04kvAIR8HNEwmEi4OeJhJsJmOti5XtdjC5grouV93UxuoC5LlbeN3XoAua6WHlLSBcw18XK+/fTdAG75SfFljAC7iPpYwGJgOvF0M4SRsD1UmhnCSPgeiG0s4QuAjojZwnpC6bPdwvkLCF9wfT5SB2cjighfcH0+WgdnI4mIX3B9PmIHZyOJCF9wfT5qB2cjiIhfcH0+cgdnI4gIX3B9PnoHZzoEtIXTJ/vCB2cyRLSF0yf7ygdnKkS0hdMn+9IHZyJEtIXTJ/vaB2cL5TwlyM83I7zHbGD84UfdPpyhIfbbb6jdnC+QMLfj/JwO8135A7OF3zuGPdwlA+NOyNQlj0c/UPjzgiUZQ9H/9C4MwJl2cPRPzTujEBZ9nD0D407I1CWPdx2xYB4AfQbATcW8BkgXgTcWMAHgHgRcGMB75zf7ur8x6vL2EXAHxLeO77hfwsBV80XPk4EpBWzGcorIKyYzVAEhBWzGYqAsGI2Q84C3iL062JalJe3Z3946+IaHrRwFpD0/pkAefoPCSPgFQQk/QZBkLy+lxgBr1As/XeoguR7BLxOse+x4898+p+8dpJXwBsJuHrZgiYCwkrdLe/R+bctXBZMn0+gTHvQwmXB9PkEyrQHLVwWTJ9PoEx70II+NGk+5/MUAfmlOp+nCMgv1fk8RUB+qc7nKQLyS3U+T84C3iL0+QTKtActXBZMn0+gTHvQwmXB9PkEyrQHLVwWTJ9PoEx70MJlwfT5BMq0By1cFkyfT6BMe9DCZcH0+QTKtActXBZMn0+gTHvQwmXB9PkEyrQHLVwWTJ9PoEx70II+NGk+5/MUAfmlOp+nCMgv1fk8RUB+qc7nKQLyS3U+T84C3iL0+QTKtActXBZMn0+gTHvQwmXB9PkEyrQHLVwWTJ9PoEx70MJlwfT5BMq0By1cFkyfT6BMe9DCZcH0+QTKtActXBZMn0+gTHvQwmXB9PkEyrQHLVwWTJ9PoEx70II+NGk+5/MUAfmlOp+nCMgv1fk8RUB+qc7nKQLyS3U+T84C3iL0+QTKtActXBZMn0+gTHvQwmXB9PkEyrQHLVwWTJ9PoEx70MJlwfT5BMq0By1c/hpl59l2i42ApL/H23m23WIjIOkvkneebbfYCHhXVU+AQiNg7SngDwnv374dr/yZsPNsu8VKwGtDKtX5PEVAfqnO5ykC8kt1Pk8RkF+q83mKgPxSnc8TXUB6nJ9NoK4iYASsCAj4Ks4rYOUV0OXbym55j86/bbG6DEKpu+U9Ov+2xYtxqS7PpsH8SRPw2VhAl2fTYL7TBHwwFtDl2TSYe5qApCtV0wK6PJuG8ltV/UQTkHSlalpAl2dTIy9v33bv37ooooBkUsxtSM8pZikRMMUsJQKmmKVEwBSzlAjYLCappe822BKxCtXBdqwuPKkIGAkK08F2rC48qb0F3PHXZzrYVS5rcqWq8Fe5rMmVqsJf5bImV6oKf5XLnt2vVAl+lSuEEEIIIYQQQgghhBBCCKH24R8LxEcqCE1DXwAAAABJRU5ErkJggg==;" vertex="1" parent="1">
          <mxGeometry x="-35" y="225" width="50" height="50" as="geometry" />
        </mxCell>
        <mxCell id="SXlrUgiKZUOwkP90kZ7k-18" style="edgeStyle=orthogonalEdgeStyle;rounded=0;orthogonalLoop=1;jettySize=auto;html=1;entryX=0;entryY=0.25;entryDx=0;entryDy=0;flowAnimation=1;" edge="1" parent="1" source="SXlrUgiKZUOwkP90kZ7k-3" target="SXlrUgiKZUOwkP90kZ7k-1">
          <mxGeometry relative="1" as="geometry">
            <Array as="points">
              <mxPoint x="-120" y="93" />
            </Array>
          </mxGeometry>
        </mxCell>
        <mxCell id="SXlrUgiKZUOwkP90kZ7k-3" value="" style="shape=image;verticalLabelPosition=bottom;labelBackgroundColor=default;verticalAlign=top;aspect=fixed;imageAspect=0;image=data:image/gif,R0lGODlhMgAyAPcBAAAAAAD/AAEBAQICAgMDAwQEBAUFBQYGBgcHBwgICAkJCQoKCgsLCwwMDA0NDQ4ODg8PDxAQEBERERISEhMTExQUFBUVFRYWFhcXFxgYGBkZGRoaGhsbGxwcHB0dHR4eHh8fHyAgICEhISIiIiMjIyQkJCUlJSYmJicnJygoKCkpKSoqKisrKywsLC0tLS4uLi8vLzAwMDExMTIyMjMzMzQ0NDU1NTY2Njc3Nzg4ODk5OTo6Ojs7Ozw8PD09PT4+Pj8/P0BAQEFBQUJCQkREREVFRUZGRkdHR0hISElJSUpKSkxMTE1NTU5OTk9PT1FRUVJSUlNTU1RUVFVVVVZWVldXV1hYWFlZWVpaWltbW1xcXF1dXV5eXl9fX2BgYGFhYWJiYmNjY2VlZWZmZmdnZ2hoaGlpaWpqamtra2xsbG1tbW5ubm9vb3BwcHFxcXJycnNzc3R0dHV1dXZ2dnd3d3h4eHl5eXt7e3x8fH19fX5+fn9/f4CAgIGBgYKCgoODg4WFhYaGhoeHh4iIiIqKioyMjI2NjY6Ojo+Pj5CQkJGRkZKSkpOTk5SUlJWVlZaWlpeXl5iYmJmZmZqampubm5ycnJ2dnZ6enp+fn6CgoKGhoaKioqOjo6SkpKWlpaampqenp6ioqKmpqaqqqqurq6ysrK2tra6urq+vr7CwsLGxsbKysrOzs7S0tLa2tre3t7i4uLm5ubq6uru7u7y8vL29vb6+vr+/v8DAwMHBwcLCwsPDw8XFxcbGxsfHx8jIyMnJycrKysvLy8zMzM3Nzc7Ozs/Pz9DQ0NHR0dLS0tPT09TU1NXV1dbW1tfX19jY2NnZ2dra2tvb29zc3N3d3d7e3t/f3+Dg4OHh4eLi4uPj4+Tk5OXl5ebm5ufn5+jo6Onp6erq6uvr6+zs7O3t7e7u7u/v7/Dw8PHx8fLy8vPz8/T09PX19fb29vf39/j4+Pn5+fr6+vv7+/z8/P39/f7+/v///////////////////////////////////////yH/C05FVFNDQVBFMi4wAwEAAAAh+QQFBAABACwAAAAAMgAyAIcAAAAA/wABAQECAgIDAwMEBAQFBQUGBgYHBwcICAgJCQkKCgoLCwsMDAwNDQ0ODg4PDw8QEBARERESEhITExMUFBQVFRUWFhYXFxcYGBgZGRkaGhobGxscHBwdHR0eHh4fHx8gICAhISEiIiIjIyMkJCQlJSUmJiYnJycoKCgpKSkqKiorKyssLCwtLS0uLi4vLy8wMDAxMTEyMjIzMzM0NDQ1NTU2NjY3Nzc4ODg5OTk6Ojo7Ozs8PDw9PT0+Pj4/Pz9AQEBBQUFCQkJERERFRUVGRkZHR0dISEhJSUlKSkpMTExNTU1OTk5PT09RUVFSUlJTU1NUVFRVVVVWVlZXV1dYWFhZWVlaWlpbW1tcXFxdXV1eXl5fX19gYGBhYWFiYmJjY2NlZWVmZmZnZ2doaGhpaWlqampra2tsbGxtbW1ubm5vb29wcHBxcXFycnJzc3N0dHR1dXV2dnZ3d3d4eHh5eXl7e3t8fHx9fX1+fn5/f3+AgICBgYGCgoKDg4OFhYWGhoaHh4eIiIiKioqMjIyNjY2Ojo6Pj4+QkJCRkZGSkpKTk5OUlJSVlZWWlpaXl5eYmJiZmZmampqbm5ucnJydnZ2enp6fn5+goKChoaGioqKjo6OkpKSlpaWmpqanp6eoqKipqamqqqqrq6usrKytra2urq6vr6+wsLCxsbGysrKzs7O0tLS2tra3t7e4uLi5ubm6urq7u7u8vLy9vb2+vr6/v7/AwMDBwcHCwsLDw8PFxcXGxsbHx8fIyMjJycnKysrLy8vMzMzNzc3Ozs7Pz8/Q0NDR0dHS0tLT09PU1NTV1dXW1tbX19fY2NjZ2dna2trb29vc3Nzd3d3e3t7f39/g4ODh4eHi4uLj4+Pk5OTl5eXm5ubn5+fo6Ojp6enq6urr6+vs7Ozt7e3u7u7v7+/w8PDx8fHy8vLz8/P09PT19fX29vb39/f4+Pj5+fn6+vr7+/v8/Pz9/f3+/v7///////////////////////////////////////8I/wDl2ZtnTyBBgwUHJjyoEKHDhhAZMrRHz149ihYxXqy4MSNHjSA/ivToUeLCkwi1hRpDBIMDAAQQePiRZhM4kw9NkuzI0x66SToAABAgdGhRokJ5RFI3sifHnCjV4bkAYACAG2w8AeMmDp01Y5jkxChQNYIfchFR2gu5M1QGoiQGdXNKchshEUQ3fNoZEqfCcltgfhAVT61fgpxKwKyy7vBautZOACiAx11Ttj3Z6bFaAhvdelCLeQDQ4VZaqKh5XSCAYZlfttY4AFiRDbPty/S2pQCgwXPfk+V2t+h2urhjeeNOEBjR+OTOLAA21MbNl/rGbRkAXNnpcBSAA6aPG/83XJAXzE4QNaJ7iwczvRYwXt2u7lFPdHMlE+Ih8AGe33EEVHWENKiNp45ifiCUEToVAAAKbucIRYAABLSB1me2eSLABExZZFAlAJhQGFTiWDVNElZhsAg94pkEwgCPJIRRUIPQV485Q130CgtCrVALhk0RAgAPGxGkjVXfFAggAAq58wgEAT7xDHkPZUPWTY99AkANQEYIgEjmqBHgAXCgYx1GMwCAHmj2jEEAG+OVyORDyihRFQWWwDOePHIAkIZAFA0BACfW4SjAZ66YQBQMtdhojyYCBEERQRgMAAyV9ixpHD2ETACTE9ccZgwAHhBkEQMAaNOlUGeGc4ZVBtj/gQ5b2ACggIf2wCTOeONYhelBywgRIAo4oQMToPQQZc6ZQ5Uz30W/BAVADHyRQ9Sk9iAwgDW/BojOceF0QdYDgMyTEzcAOGBqPbIRA2SuAFzIFjyFNEAUF9vQJwxvuP5AACZ7WpUOVKyoAJMMwBznCQBEIHsGAHAwK4CzIk1jJwAYUELPmW4IUAa2mwxAbYHzeMvQOXcMMIAAcoyz50A3ABDKut5UlS91Ql1YjyayAVDEM+9u1I1Q3OA6jw8AFHKcwPIUc0OAJqDy60mBDICDjBVFAoAI9WA41DNhDMWAIO04OtI8JAAwSZEFsRMBAZwYF2ADi3XTIkqiAHABfutS/8QHACOwQ19RNPDyLGbuhCCAHhohRE4HAPCB2gwUXKLn3Q/dQcAF6kz00ScCDLDLZfLQE7RtuZAVikgmVTHABd2QPPVD10C+hU48pVOCACmEc+bvGX2zAgAnnMNdRNpUekLsL4t3TQukUqMWZsloIEAGo5vtaC4bAMDBMdUdps0IVvGhTvMowXPHAQCkID1UNqZzBVEjeNL14RXNA4riAGRh/Gey6wTkCACCQtSGZN8IhAlgcoFRiOdw5uCDp6oyAzhoghjYMAc5tCEMTrihBkWpgB7MZDbMseMRSLNKgFRYFZhUBQeV4NvUtMcTb3TiDEHggAKIwgANDKEMnyja6Q6egj7ZGbE4+KNhEp0SEAAh+QQFBAABACwxADEAAQABAAAIBAADBAQAIfkEBQUAAQAsMQAxAAEAAQAACAQAAwQEACH5BAUEAAEALDEAMQABAAEAAAgEAAMEBAAh+QQFBAABACwPAAsAGQAcAAAI/wADlAsXoKDBgwgTBnjHQMGcdgojIqwGAICADJjkSZSIDYBBADdybVRITUCAWUwCVKSSbeTBbB6n2YsFIwCBAnvSuQxAMYC0gvEgUVDZgVO9kR0DCDMoD92aBAEG1Ai2sWQAYwjtOVMSQACALS0VwgwwTOG8WSdUOsjzLiE5j8ckyks0gagoegfReVwq0R44NgUB+PhlkJxJrCPpOSuickAXbwHSeSy7054qFVEp1CsH96jLeaA2qBTRdK+9kfaEAYk6gA65AIav4o1YL1yYASqNQDMomexphe4WOVB5IhVCzgGOeT5oT9aKrgwGuUuoV+nvgvOwNVFJAMu3iLGNzUq2py4PApU3em3sPey0vU4gMmOCNxK5cmM8VBZog25ndVJmBJbEMjsVFBsBXY2wSoG8ATAAABD8EQ+DTF0AgBbaUIiQNj9peFBAAAAh+QQFBAABACwOAAIAIgAmAAAI/wADCBxIUKCBDz3aXBJXsKHDhw91TEoHsWLBeNcCaKpDsEEAcxZDFvxWyITADKFEqiSYQmAUditVtuNTIAAKazFV+sogsFlOkdxYBMDgMFisnwTLrQhQoqA3AAJ2EEM6cEMAKwSHEQAwAEAYbVR/NTwGYCCABoDgIfUj8JxAYQMCKGoikIAHVD/XnSBorOwpe7ViCAQQpFhOUFkJBFA1LwC8ShMCACgQZlzMEQEaBaBW1pQ9gfTQwTEQQIADQu5UHgrQI4C0uKvkEbT3DMpgFKZEaiMdwJrfzwXryVoqeYiykDQCeJqmmPHDeosuBNiaBlxFOwHUXOsM3KG9cW0UA/aQcCjeQ04BgLwOENuivGhHBA4ocRSi7wB/Rdpz1VIAACTMFJRNAAkwt1hjKr3TiAOSPQBSQ9sF4JlK9LijRwKlVZBaQ+u1F9I8pVgFAAFZWOfQfZh095A9xgQxGA6+VGSgJgg6JI85YxwQwAAVbGJeRRFaoiJB8jgCgWQGvEFRSOttIltB9tAimGRKBKjSfZeoSE82UwgkAAms5DRjjer8QRoAEADyZEzblCVkAPaIEoJkAHTBDVXixOUkMz7IJ0MwVAlkTlmGpCGAZBdMUk+gAo2jWF0AxEEOowOdA0BZAhjhDKUEraMAACecwmlDuXSy4agDBQQAIfkEBQQAAQAsDgACACIAJgAACP8AAwgcSDBAjGQuAqjBBK6gw4cQA7R4VXAHJHURMxa0N+9ZpgAzDAiEEKCcxpMFux0auMETypcDP50QOAUjzJd+Bgi8dvMlMAwBJkjreVNDNYcciRIcpyLATIL22jRoY06pQG8ZAkQhOK+EQAmS3FkNJiCAS4H2VhB0McueUj4BMqATKE9GgCIJBSqhRpSdwD9oE66hRylrAAJ0zvUUFSDCugDzZgRwI7BcHQICM0ByC1PEQHsvFBKs5gSAwBe56L1EFMBHgLoB3jikFWNglWgosxUI8M2e4IfyIlEQiGDOY402AnCKPDmiujUIBFrQFC8jnQBpQIvO6KyJ6QA1eHHbdngWtuyTtFAMnLIt4gffAby8nMdoAvE8NgdqC4CA+Zeb4rzxnRXyPKTdFjd1k8V3X4xHEGxgvMQOIQkIVIEiqhmYEBcopeJVAAKcMU5G/mkEDRGYBcDDMgVmZI9dCEJ0zhs6BeDBJw5GJI8QAUT40CSGFcBHOjDZ4xqHBf1Sw0BQWNPTPEME8J9+X3wHgyw5omTPDwHECE8gDgj0QCPVKbVjjwG44lkABYRhklUBGBmAEEl85wMxWT4Z5UAZiNIinGhxGYACd/gF6IN5BDAFboc6RM879TTqUEAAACH5BAUEAAEALA8AAgAhACYAAAj/AAMIHEgwgDx78+ytG1ewocOHAezRs1evSAAdjyBqdGjv4JqBDgKY20iS4DZEJQRiKMlyICgVAqOsa9mSQAATNFn+0hCAQrOcJV0AzWlCHUF65cLZGzpwQ4ApBN8xUDCnnTymAzkNrDYwA6arQ/0IPCcQWwACAATeyLWUqdgA1AIAmMVEgEAq2eoNfZAuQLYAA6YFiAUjbYE9fWmSCOAoAFcA0gTGg0RBYAdOelkeCpAjgFkCwgiiW5NAYI1gYDd2EwguLgBjDZ0pSRtgS7a2Gm8EyPR3wLCHs04MCOAgz7t5JNWQk3sMorxEEyyLogfxU4Ae6M6G1giODW0fv3ATviwWAMTy1yWdFUk7oIs36gRXG+jru6UqmD0zNyzHnOU8UE4FIEJqBWUHWknCAMEeHeSIR9B5sGkUThjDBWAENPo5RN9vD7mzSEgBnJCKgw7xB0BzDsmyQloMDOIOSwZuRxA2TVSIxTfIsQQhQerkgYBavZC40YYDdQKCQBRgAs9QJjZnDA92FdAGOhnSZCApZtCWxDJCtnSeTQGMsAp8WAWQWAAQ/BFPjmUadEEAWmjT5VD2aCMNgW0ONGeZAQEAIfkEBQUAAQAsDwACACEAJQAACP8AAwgcSLCgPHsFEypcWNAePXv1EDKcuHCevYMW5VHcSDDiwzshOnEcKVCeF4FP1JHk+O6PwBPVVnIUJtDCMpkbvbEIcIEaToroBJZICPHnwG8cAkQhaO9dK20Sf9IMsGlgvVEBGPBpR8+oywsD7VUa2IFUPKMqCNLLFACDBIE8gEUlSUqgSnuUAvRAh+ZAgAJbwM2TOZRRgHqYAgQR2EwJgAALBLWbSzFR2LE8CMIyQSDAiFGUc64NAKTgvERvA/ww1nVjDoF49SoEp+ZxgDLcQhe0EwANYsUMlxEREODBoHj1GIKCjZniKRQCQawarDBZAA+jS1N0d+iBwCLIQnu4CzAgdo+R48IYCGDAl+7DiRdzzIblMQJkyRWKDZCZIjw/DgjkRDYaLZQdRaiAQFwLtLwXliUB6MAQMkc85oAj73BUDyoBxKDQOWt0RgAZ47S2kT2lBLATQfFckloQwjioED2pBAADQbvQ8NgGoZhIkj11tSBQN1Z0toAd7xQo04YduhOIAgJBMY2MFKEYgARDBYCCLdQZFQCNATwmASJKehmAPa8IZEY3VJJUzzyaKJOfmaa1iVNAAAAh+QQFBAABACwQAAUAIAAhAAAI/wADCBxIsCDBevboGVzIkKG9efbk2WtIkSE9ewgvVtxY8GHEiRxDYkwIMuTGh4iamBR5I8AUghLnrTT4SyCngfRawHhVcmYAPwEylBM4buARafJ8BliXguC5AAAIBCDQhpxSTwLTBRAHdVqSAQEwLFI4k0SARwHMBRAg8BULgStq1VuJKICOAEUBDHT3CILAJ89MchP47alegubUSD0AB13Ilpq4Hi6oTIlACpbgbaQTII1atgxdmRAIo1ZPhj7yUqRHaIJAJ9caGgsAwvDGcGfAGrDj2OBgA6o5LhMiFYVMh2uHbvx1N0CM0wRlAujdMFyXAgEeADqOHIBVhvAKNW0QyGXbxqQAtC5kpUKgDGDcKU4UoJzgNCV6MVAiy1E69QDn3AGWAHIUtdJE3glUjyYcCFTEM3PNhJ5WxbQUgAmoQCfSWs+EoRcDgrSj1EDSjRdAFd2MSFBJNPCioU/yzEDBJZqp2JE8/NlIUEAAACH5BAUEAAEALCkACgAHAA4AAAg8AO3JsxegYIB69ugZDGBvnsCF9hAqLDjQ4UJ6EQkarAgR40KHAxfWYzexIK8AgBZ+CgBkYcEPC7UFQBAQACH5BAUEAAEALBoAEwAWAB0AAAilAAMIHEiwYEF7BhMmtDcPocKHAejZqwfxoT15DisarGePnsaFDT8alEhRJMGLGU0G4OhRpUCGKU2SdPkSI82JHWlinEeTZcyPshRYkucyHokAgGjqCTBhnUtfBwJ8cpktRAAqNF0EQFFOZTYYATBIU9nrQ1iV8vIgCKBirMhTRwNIETmukAqBFEBBBDcslJwcAgRGCJDOZQ1JXTUS2OAjAKdsKgMCACH5BAUEAAEALBoAIgAUAA4AAAhWAAMIHEiwoEB78+wZXDjQHj179RgyTChPocSCD+tZvDiQ4kaOATI6BCnQ4zySISGOBInQXsWTHDWKpMfRZcuKDLEF2ETHk0yVJCfc5OiAwxA1s2iSDAgAIfkEBQQAAQAsAgAaAB0AFgAACIUACQTQFqCgwYMIEyL0oLChw4M8Anh6SFGhnIoYA2AKUCNjxW4FvXmkGFHRyIomTjpc10BlxRPtXCYctyEAIJkJJxLohRNhlAA37PU0iA7KoXpChwawJ8/evKRD7dGzh1Tp0qZP5SmVSpWrUqxMnQ6dipQs17Jdp2J0GjYrW7BaPZ6dazYgACH5BAUFAAEALAIAAQAYACcAAAi1AAMIHEiwoEGB8w4qDMDN05oAHCIsNLhOko8BExfqwTBQx5pOv7JlDOCpgkARhraNHDiOykBS8FYOnIYigAGZBjdAxElwWoYALrjxFDhORQAY44YKdJlBqNKYCZQKtEdvVy+pAebZk2dPKj179bpK3WovodSw9LBy1YqVqlipWuVhDQD2rdK1c93OjZs37Fy8bb/u3drX7lDAY7/Wy8t1LlrDOMsSbotWreS5iiHjRKxUL8+AAAAh+QQFBAABACwFAAEAFQANAAAISwADCBxIsGBBegYTyrM3z97ChgkH0rNXz97EihcjMnS48aFDjRct2otI0ONDkgQxUhyJcqDJlilF1oPpsiPNgTJvCrSpc+fMngECAgAh+QQFBAABACwYAAIAEwAKAAAIYgBXEEjw4UcbTOQCKFzIMMALABAFQASgg9K6hgvjoauGLBOdGAUADGgQyBzGk94KkZCYIdTJl51MACAwRd1LjO/yDACwAttNjMEuEJgw7WdDbSwAaKBmlOE4FTSbMvT2hVZAACH5BAUEAAEALBoAAgAWAB8AAAi5ABF4CJBmE7gACBMqXMgwAI9I6hoytGYMkxyFEfyQkyhxGyERCDd84siRUwmEVdaRbMhOD8KTKxvyQohhWUyG21IgxHaT4YkAI1T2TLgtA4ArQxXyAkCgU9KEegBsMPc0gLoSAPxUDeBJwISIVUEMeLSVEAAeW7MVAHCw6gwATqvKAZBmqyYBQbYaAzCwKjYACraiY7qVnAAAW8UBQLBVmNStpAAA2SpHgJmtOwBwqvru8LatdfgECAgAIfkEBQQAAQAsHQAaABMAFgAACJYAAwgcSLBgAHABFBhcODBYAA4MGY4KECTiQjgWGfII0CkjQXAABHDzOJDQgBokBc5DAWBSygCkAEwglxLeCAF6Xu4hUEFdyl4GAHxKqe0DgCspv7kAoMIcSWwwAHiQRpKXBwAXknmMpwcBgBXTMtITVUIAgCpOI4YrpAIAAQqiLMZTAqBuBD3oMrY7QMDGpLQetY18GRAAIfkEBQQAAQAsCwADACUALQAACOUAAwgcSFDgvIIIEypcyLChw4cQI0qcSLGixYsYM2rcyLGjx48gQ4ocSbKkyZMoU6pceZFbAAckhQXQQNJTACIk3QQoQ/JGgFAjuwUAQDJQABwkSZQUFeCCOZHuQpS803RkrgI/RV7rEGDLyBUBTpwLea2FQGoF4ZHTmGtDAA7HEDoZ4KedRXh3DgRIgRZhGgEATIyqJ3EeKKkBsoxV2EkDAAIkFAlt+C2QCYEXRjlExwcCgMc26IAi5s0cOW3COLmpMbDCRHaMeAAY8Hh2bdoEZuOodNEbJjQ8PBAAzEDDkDKfJgYEACH5BAUFAAEALAIAGwAWABUAAAiSAAOsC0CwoMGDB+8csIWwIcIzAOQ4nEgw04AaFCdyAzBgW0aHPQAs+tjwEYASJBG2c0DgU8qDfQCcaPeyoLkMAPzULAhKQAFfOwlCGZDBW9B0JwSwKBcU24UBKozuTJZBwAagO7GVGEBwYM10UgieCGVvp6cMBEcs0razT8EBNyQG8PixXaMeQQ1y43TmR4cDAQEAIfkEBQQAAQAsAgAOABYAIgAACM0AAwQoNYedwIMIEyJUNwHAMYUQE2ICYCJexIsBcgAghDGiNwIAwnWEuAlAjZEQ0xB4g1LhEACbWibcMACYTIQOAGC7eRAAAXE8BQoAYC5oAAQDrBnlAICY0R8EMBkVCMdozBhGvU0V6CNAIaORAoioF5RdhACcjPIJMMIgT3IdAqwN+inAgF1GqwS40M1oiQApRPLUhiHAib5BNQTIgHfwiAAA+KgLekXgCE9kb3aKGwBEoWw3zfGZcHAGHE0Bdo5k96jrVm+dAgThoCAgACH5BAUEAAEALAIABgAMABIAAAhrAAMIHCiQ3Bcl9AgOnIYCwIJyCgMUywBgg66I0jAAcJEtIjkVAGSAixhgSsVuJEsBOGCL5LoNAvaQDJCHwAd4Li0EGDWzUgASMwP0CFBoZrcCAVCS5BTARlA1AdgEJRJUIIcAvoI+CHAtaEAAIfkEBQQAAQAsAgACABIAFgAACIwAAwgcSLBgAG3kDCpEF+mGgAsKCa7DMwHAAABZIgoEZUEAgBOIvGksdwUAgRGl5GkMUC1FAAN83q0McExDgA8zBU7jIFBbzgAtAsDo9rNKgA7cfoYKgIDXz3QQ+fwMgCdACJU5zUWYSlAF1xsBDE3VRiDAuKmbAuTgSiaAG64/AiydavMXVwQBRE4NCAAh+QQFBAABACwCAAIAFwAWAAAIkQADCBxIsGCAbJ/KBOEQgYPBh+kk6QgAQACAixoeEmSnh8LAHW1G+TKnceCogSUOdStp0IrAEAHisSw4jYVAPTJnEmTmIUAHXjoLVrsgkFvQgjaPGrwSgIM2pQNFBTiwC6pAdRmsGgShNQA6j6S6TgqAomuAHWYDXBsQ4FtXUGkDjIkrJADcrlmBmV0QYJvZgAAAIfkEBQQAAQAsAgACABcAFgAACJEAAwgcSLBgAG2hxhDB4ACAwYfoJgVwSFDAQ4Lq8FwYeIONJ2DcxF0UGCqDQBKDRj7cIvCDKJUGrZ0IUACPO5gFiw28hbOgNQ4BVmTrSbBcigAtiBbMEmDDUKUCRwnkCTUAOoF4qhL8AE9rgAoBQHmtFMCE1wA6AqTUqu2swE8BargNwObskACczmKYy+Dg2YAAACH5BAUFAAEALDEAMQABAAEAAAgEAAMEBAAh+QQFBQABACwxADEAAQABAAAIBAADBAQAOw==;" vertex="1" parent="1">
          <mxGeometry x="-150" y="220" width="50" height="50" as="geometry" />
        </mxCell>
        <mxCell id="SXlrUgiKZUOwkP90kZ7k-4" value="Object_to_categorical()" style="rounded=1;whiteSpace=wrap;html=1;fontStyle=1" vertex="1" parent="1">
          <mxGeometry x="80" y="230" width="140" height="40" as="geometry" />
        </mxCell>
        <mxCell id="SXlrUgiKZUOwkP90kZ7k-9" value="" style="rounded=0;orthogonalLoop=1;jettySize=auto;html=1;exitX=0.068;exitY=1.04;exitDx=0;exitDy=0;exitPerimeter=0;entryX=0;entryY=0.5;entryDx=0;entryDy=0;edgeStyle=orthogonalEdgeStyle;flowAnimation=1;" edge="1" parent="1" source="SXlrUgiKZUOwkP90kZ7k-5" target="SXlrUgiKZUOwkP90kZ7k-8">
          <mxGeometry relative="1" as="geometry" />
        </mxCell>
        <mxCell id="SXlrUgiKZUOwkP90kZ7k-5" value="Fill_na_values()" style="rounded=1;whiteSpace=wrap;html=1;fontStyle=1" vertex="1" parent="1">
          <mxGeometry x="110" y="282" width="140" height="40" as="geometry" />
        </mxCell>
        <mxCell id="SXlrUgiKZUOwkP90kZ7k-7" value="" style="endArrow=classic;html=1;rounded=0;exitX=0.115;exitY=1.04;exitDx=0;exitDy=0;exitPerimeter=0;entryX=0;entryY=0.5;entryDx=0;entryDy=0;edgeStyle=orthogonalEdgeStyle;flowAnimation=1;" edge="1" parent="1" source="SXlrUgiKZUOwkP90kZ7k-4" target="SXlrUgiKZUOwkP90kZ7k-5">
          <mxGeometry width="50" height="50" relative="1" as="geometry">
            <mxPoint x="90" y="410" as="sourcePoint" />
            <mxPoint x="140" y="360" as="targetPoint" />
          </mxGeometry>
        </mxCell>
        <mxCell id="SXlrUgiKZUOwkP90kZ7k-11" value="" style="edgeStyle=orthogonalEdgeStyle;rounded=0;orthogonalLoop=1;jettySize=auto;html=1;flowAnimation=1;" edge="1" parent="1" source="SXlrUgiKZUOwkP90kZ7k-8" target="SXlrUgiKZUOwkP90kZ7k-10">
          <mxGeometry relative="1" as="geometry">
            <Array as="points">
              <mxPoint x="280" y="249" />
            </Array>
          </mxGeometry>
        </mxCell>
        <mxCell id="SXlrUgiKZUOwkP90kZ7k-8" value="manage_outliers()" style="rounded=1;whiteSpace=wrap;html=1;fontStyle=1" vertex="1" parent="1">
          <mxGeometry x="140" y="339" width="144" height="38" as="geometry" />
        </mxCell>
        <mxCell id="SXlrUgiKZUOwkP90kZ7k-14" value="" style="edgeStyle=orthogonalEdgeStyle;rounded=0;orthogonalLoop=1;jettySize=auto;html=1;flowAnimation=1;" edge="1" parent="1" source="SXlrUgiKZUOwkP90kZ7k-10" target="SXlrUgiKZUOwkP90kZ7k-12">
          <mxGeometry relative="1" as="geometry" />
        </mxCell>
        <mxCell id="SXlrUgiKZUOwkP90kZ7k-22" style="edgeStyle=orthogonalEdgeStyle;rounded=0;orthogonalLoop=1;jettySize=auto;html=1;entryX=0;entryY=0.5;entryDx=0;entryDy=0;flowAnimation=1;" edge="1" parent="1" source="SXlrUgiKZUOwkP90kZ7k-10" target="SXlrUgiKZUOwkP90kZ7k-13">
          <mxGeometry relative="1" as="geometry" />
        </mxCell>
        <mxCell id="SXlrUgiKZUOwkP90kZ7k-10" value="Split_dataset()" style="rounded=1;whiteSpace=wrap;html=1;fontStyle=1" vertex="1" parent="1">
          <mxGeometry x="324" y="230" width="144" height="38" as="geometry" />
        </mxCell>
        <mxCell id="SXlrUgiKZUOwkP90kZ7k-25" style="edgeStyle=orthogonalEdgeStyle;rounded=0;orthogonalLoop=1;jettySize=auto;html=1;entryX=0;entryY=0.5;entryDx=0;entryDy=0;flowAnimation=1;" edge="1" parent="1" source="SXlrUgiKZUOwkP90kZ7k-12" target="SXlrUgiKZUOwkP90kZ7k-23">
          <mxGeometry relative="1" as="geometry" />
        </mxCell>
        <mxCell id="SXlrUgiKZUOwkP90kZ7k-12" value="Train" style="shape=image;verticalLabelPosition=bottom;labelBackgroundColor=default;verticalAlign=top;aspect=fixed;imageAspect=0;image=data:image/png,iVBORw0KGgoAAAANSUhEUgAAAKAAAACgCAYAAACLz2ctAAAACXBIWXMAAAsTAAALEwEAmpwYAAAFOElEQVR4nO2dQU5kRxBEU+Z045PACVrjhenlnMacwd4N17HZOixkZods6Mzuej8qnhTLqckf+WhQUy2qQgghhBBCCCGEEEIIIYQQwr/cVdVDVT1X1UtVKXm3g7+q6o+q+jnizMr3FOE+9UX3d1V9HdzB1ry+8uUV77IOfl29PAdev+1GwMs7iIRN8jNf/wvwsbuEncmr30wHkfBCIuBcB5HwAiLgbAePlyxhZyLgfAffVi/1SETA63TwbfVij8JHC92ZcyS8HhHwY0TCKxEBP04kvAIR8HNEwmEi4OeJhJsJmOti5XtdjC5grouV93UxuoC5LlbeN3XoAua6WHlLSBcw18XK+/fTdAG75SfFljAC7iPpYwGJgOvF0M4SRsD1UmhnCSPgeiG0s4QuAjojZwnpC6bPdwvkLCF9wfT5SB2cjighfcH0+WgdnI4mIX3B9PmIHZyOJCF9wfT5qB2cjiIhfcH0+cgdnI4gIX3B9PnoHZzoEtIXTJ/vCB2cyRLSF0yf7ygdnKkS0hdMn+9IHZyJEtIXTJ/vaB2cL5TwlyM83I7zHbGD84UfdPpyhIfbbb6jdnC+QMLfj/JwO8135A7OF3zuGPdwlA+NOyNQlj0c/UPjzgiUZQ9H/9C4MwJl2cPRPzTujEBZ9nD0D407I1CWPdx2xYB4AfQbATcW8BkgXgTcWMAHgHgRcGMB75zf7ur8x6vL2EXAHxLeO77hfwsBV80XPk4EpBWzGcorIKyYzVAEhBWzGYqAsGI2Q84C3iL062JalJe3Z3946+IaHrRwFpD0/pkAefoPCSPgFQQk/QZBkLy+lxgBr1As/XeoguR7BLxOse+x4898+p+8dpJXwBsJuHrZgiYCwkrdLe/R+bctXBZMn0+gTHvQwmXB9PkEyrQHLVwWTJ9PoEx70II+NGk+5/MUAfmlOp+nCMgv1fk8RUB+qc7nKQLyS3U+T84C3iL0+QTKtActXBZMn0+gTHvQwmXB9PkEyrQHLVwWTJ9PoEx70MJlwfT5BMq0By1cFkyfT6BMe9DCZcH0+QTKtActXBZMn0+gTHvQwmXB9PkEyrQHLVwWTJ9PoEx70II+NGk+5/MUAfmlOp+nCMgv1fk8RUB+qc7nKQLyS3U+T84C3iL0+QTKtActXBZMn0+gTHvQwmXB9PkEyrQHLVwWTJ9PoEx70MJlwfT5BMq0By1cFkyfT6BMe9DCZcH0+QTKtActXBZMn0+gTHvQwmXB9PkEyrQHLVwWTJ9PoEx70II+NGk+5/MUAfmlOp+nCMgv1fk8RUB+qc7nKQLyS3U+T84C3iL0+QTKtActXBZMn0+gTHvQwmXB9PkEyrQHLVwWTJ9PoEx70MJlwfT5BMq0By1c/hpl59l2i42ApL/H23m23WIjIOkvkneebbfYCHhXVU+AQiNg7SngDwnv374dr/yZsPNsu8VKwGtDKtX5PEVAfqnO5ykC8kt1Pk8RkF+q83mKgPxSnc8TXUB6nJ9NoK4iYASsCAj4Ks4rYOUV0OXbym55j86/bbG6DEKpu+U9Ov+2xYtxqS7PpsH8SRPw2VhAl2fTYL7TBHwwFtDl2TSYe5qApCtV0wK6PJuG8ltV/UQTkHSlalpAl2dTIy9v33bv37ooooBkUsxtSM8pZikRMMUsJQKmmKVEwBSzlAjYLCappe822BKxCtXBdqwuPKkIGAkK08F2rC48qb0F3PHXZzrYVS5rcqWq8Fe5rMmVqsJf5bImV6oKf5XLnt2vVAl+lSuEEEIIIYQQQgghhBBCCKH24R8LxEcqCE1DXwAAAABJRU5ErkJggg==;" vertex="1" parent="1">
          <mxGeometry x="353.5" y="302" width="37" height="37" as="geometry" />
        </mxCell>
        <mxCell id="SXlrUgiKZUOwkP90kZ7k-13" value="Test" style="shape=image;verticalLabelPosition=bottom;labelBackgroundColor=default;verticalAlign=top;aspect=fixed;imageAspect=0;image=data:image/png,iVBORw0KGgoAAAANSUhEUgAAAKAAAACgCAYAAACLz2ctAAAACXBIWXMAAAsTAAALEwEAmpwYAAAFOElEQVR4nO2dQU5kRxBEU+Z045PACVrjhenlnMacwd4N17HZOixkZods6Mzuej8qnhTLqckf+WhQUy2qQgghhBBCCCGEEEIIIYQQwr/cVdVDVT1X1UtVKXm3g7+q6o+q+jnizMr3FOE+9UX3d1V9HdzB1ry+8uUV77IOfl29PAdev+1GwMs7iIRN8jNf/wvwsbuEncmr30wHkfBCIuBcB5HwAiLgbAePlyxhZyLgfAffVi/1SETA63TwbfVij8JHC92ZcyS8HhHwY0TCKxEBP04kvAIR8HNEwmEi4OeJhJsJmOti5XtdjC5grouV93UxuoC5LlbeN3XoAua6WHlLSBcw18XK+/fTdAG75SfFljAC7iPpYwGJgOvF0M4SRsD1UmhnCSPgeiG0s4QuAjojZwnpC6bPdwvkLCF9wfT5SB2cjighfcH0+WgdnI4mIX3B9PmIHZyOJCF9wfT5qB2cjiIhfcH0+cgdnI4gIX3B9PnoHZzoEtIXTJ/vCB2cyRLSF0yf7ygdnKkS0hdMn+9IHZyJEtIXTJ/vaB2cL5TwlyM83I7zHbGD84UfdPpyhIfbbb6jdnC+QMLfj/JwO8135A7OF3zuGPdwlA+NOyNQlj0c/UPjzgiUZQ9H/9C4MwJl2cPRPzTujEBZ9nD0D407I1CWPdx2xYB4AfQbATcW8BkgXgTcWMAHgHgRcGMB75zf7ur8x6vL2EXAHxLeO77hfwsBV80XPk4EpBWzGcorIKyYzVAEhBWzGYqAsGI2Q84C3iL062JalJe3Z3946+IaHrRwFpD0/pkAefoPCSPgFQQk/QZBkLy+lxgBr1As/XeoguR7BLxOse+x4898+p+8dpJXwBsJuHrZgiYCwkrdLe/R+bctXBZMn0+gTHvQwmXB9PkEyrQHLVwWTJ9PoEx70II+NGk+5/MUAfmlOp+nCMgv1fk8RUB+qc7nKQLyS3U+T84C3iL0+QTKtActXBZMn0+gTHvQwmXB9PkEyrQHLVwWTJ9PoEx70MJlwfT5BMq0By1cFkyfT6BMe9DCZcH0+QTKtActXBZMn0+gTHvQwmXB9PkEyrQHLVwWTJ9PoEx70II+NGk+5/MUAfmlOp+nCMgv1fk8RUB+qc7nKQLyS3U+T84C3iL0+QTKtActXBZMn0+gTHvQwmXB9PkEyrQHLVwWTJ9PoEx70MJlwfT5BMq0By1cFkyfT6BMe9DCZcH0+QTKtActXBZMn0+gTHvQwmXB9PkEyrQHLVwWTJ9PoEx70II+NGk+5/MUAfmlOp+nCMgv1fk8RUB+qc7nKQLyS3U+T84C3iL0+QTKtActXBZMn0+gTHvQwmXB9PkEyrQHLVwWTJ9PoEx70MJlwfT5BMq0By1c/hpl59l2i42ApL/H23m23WIjIOkvkneebbfYCHhXVU+AQiNg7SngDwnv374dr/yZsPNsu8VKwGtDKtX5PEVAfqnO5ykC8kt1Pk8RkF+q83mKgPxSnc8TXUB6nJ9NoK4iYASsCAj4Ks4rYOUV0OXbym55j86/bbG6DEKpu+U9Ov+2xYtxqS7PpsH8SRPw2VhAl2fTYL7TBHwwFtDl2TSYe5qApCtV0wK6PJuG8ltV/UQTkHSlalpAl2dTIy9v33bv37ooooBkUsxtSM8pZikRMMUsJQKmmKVEwBSzlAjYLCappe822BKxCtXBdqwuPKkIGAkK08F2rC48qb0F3PHXZzrYVS5rcqWq8Fe5rMmVqsJf5bImV6oKf5XLnt2vVAl+lSuEEEIIIYQQQgghhBBCCKH24R8LxEcqCE1DXwAAAABJRU5ErkJggg==;" vertex="1" parent="1">
          <mxGeometry x="630.5" y="230" width="37" height="37" as="geometry" />
        </mxCell>
        <mxCell id="SXlrUgiKZUOwkP90kZ7k-19" style="edgeStyle=orthogonalEdgeStyle;rounded=0;orthogonalLoop=1;jettySize=auto;html=1;entryX=0.5;entryY=0;entryDx=0;entryDy=0;flowAnimation=1;" edge="1" parent="1" source="SXlrUgiKZUOwkP90kZ7k-16" target="SXlrUgiKZUOwkP90kZ7k-2">
          <mxGeometry relative="1" as="geometry" />
        </mxCell>
        <mxCell id="SXlrUgiKZUOwkP90kZ7k-16" value="Read_dataset()" style="rounded=1;whiteSpace=wrap;html=1;fillColor=#dae8fc;strokeColor=#6c8ebf;fontStyle=1" vertex="1" parent="1">
          <mxGeometry x="-80" y="160" width="140" height="40" as="geometry" />
        </mxCell>
        <mxCell id="SXlrUgiKZUOwkP90kZ7k-65" style="edgeStyle=orthogonalEdgeStyle;rounded=0;orthogonalLoop=1;jettySize=auto;html=1;flowAnimation=1;" edge="1" parent="1" source="SXlrUgiKZUOwkP90kZ7k-23" target="SXlrUgiKZUOwkP90kZ7k-50">
          <mxGeometry relative="1" as="geometry" />
        </mxCell>
        <mxCell id="SXlrUgiKZUOwkP90kZ7k-23" value="Scaling()" style="rounded=1;whiteSpace=wrap;html=1;fontStyle=1" vertex="1" parent="1">
          <mxGeometry x="420" y="302" width="98" height="38" as="geometry" />
        </mxCell>
        <mxCell id="SXlrUgiKZUOwkP90kZ7k-35" style="edgeStyle=orthogonalEdgeStyle;rounded=0;orthogonalLoop=1;jettySize=auto;html=1;flowAnimation=1;" edge="1" parent="1" source="SXlrUgiKZUOwkP90kZ7k-26" target="SXlrUgiKZUOwkP90kZ7k-33">
          <mxGeometry relative="1" as="geometry">
            <Array as="points">
              <mxPoint x="559" y="370" />
            </Array>
          </mxGeometry>
        </mxCell>
        <mxCell id="SXlrUgiKZUOwkP90kZ7k-66" style="edgeStyle=orthogonalEdgeStyle;rounded=0;orthogonalLoop=1;jettySize=auto;html=1;entryX=0;entryY=0.5;entryDx=0;entryDy=0;flowAnimation=1;" edge="1" parent="1" source="SXlrUgiKZUOwkP90kZ7k-26" target="SXlrUgiKZUOwkP90kZ7k-50">
          <mxGeometry relative="1" as="geometry">
            <Array as="points">
              <mxPoint x="620" y="369" />
              <mxPoint x="620" y="345" />
            </Array>
          </mxGeometry>
        </mxCell>
        <mxCell id="SXlrUgiKZUOwkP90kZ7k-26" value="PCA()" style="rounded=1;whiteSpace=wrap;html=1;fontStyle=1" vertex="1" parent="1">
          <mxGeometry x="455" y="350" width="98" height="38" as="geometry" />
        </mxCell>
        <mxCell id="SXlrUgiKZUOwkP90kZ7k-27" value="" style="endArrow=classic;html=1;rounded=0;exitX=0.156;exitY=0.958;exitDx=0;exitDy=0;exitPerimeter=0;entryX=0;entryY=0.5;entryDx=0;entryDy=0;edgeStyle=orthogonalEdgeStyle;flowAnimation=1;" edge="1" parent="1" source="SXlrUgiKZUOwkP90kZ7k-23" target="SXlrUgiKZUOwkP90kZ7k-26">
          <mxGeometry width="50" height="50" relative="1" as="geometry">
            <mxPoint x="500" y="520" as="sourcePoint" />
            <mxPoint x="550" y="470" as="targetPoint" />
          </mxGeometry>
        </mxCell>
        <mxCell id="SXlrUgiKZUOwkP90kZ7k-30" style="edgeStyle=orthogonalEdgeStyle;rounded=0;orthogonalLoop=1;jettySize=auto;html=1;flowAnimation=1;" edge="1" parent="1" source="SXlrUgiKZUOwkP90kZ7k-28" target="SXlrUgiKZUOwkP90kZ7k-29">
          <mxGeometry relative="1" as="geometry" />
        </mxCell>
        <mxCell id="SXlrUgiKZUOwkP90kZ7k-28" value="Models_generation()" style="rounded=1;whiteSpace=wrap;html=1;fillColor=#f8cecc;strokeColor=#b85450;fontStyle=1" vertex="1" parent="1">
          <mxGeometry x="311" y="30" width="144" height="38" as="geometry" />
        </mxCell>
        <mxCell id="SXlrUgiKZUOwkP90kZ7k-34" style="edgeStyle=orthogonalEdgeStyle;rounded=0;orthogonalLoop=1;jettySize=auto;html=1;entryX=0;entryY=0.5;entryDx=0;entryDy=0;flowAnimation=1;" edge="1" parent="1" source="SXlrUgiKZUOwkP90kZ7k-29" target="SXlrUgiKZUOwkP90kZ7k-33">
          <mxGeometry relative="1" as="geometry" />
        </mxCell>
        <mxCell id="SXlrUgiKZUOwkP90kZ7k-29" value="Machine_learning_models" style="shape=image;verticalLabelPosition=middle;labelBackgroundColor=default;verticalAlign=middle;aspect=fixed;imageAspect=0;image=data:image/png,iVBORw0KGgoAAAANSUhEUgAAAFAAAABQCAYAAACOEfKtAAAACXBIWXMAAAsTAAALEwEAmpwYAAAIEUlEQVR4nO2cWWxUVRjHr3GLS/RBE000Pvnig0vCgxhJhvnObWjLWkhlbQkkLCEhLNpiKWEJRAXCvqRlh5YSWkh80ReDJALnDKWyCSqLgFBADZRdaIE55n+ZQ8p478ydO2d65077JeeBtrTz/+V85/vOd75zDKPLuqxTGid6SxB9zhnbxYkuccbaOGMXOGM1e/PyPvL782WtCdN8TxDVAphgTDqM+yIcHuX3Z80qi+Tnv8KJFilwkbw8eWr8eHl14ULZumWLjDY0yLsbNshzU6dKYZrS+jmiD/z+3FlhwjR7CMbOWeBMU56dMsWCJnfutB1nJk2yZiJnbKPRmU0axlOcaJYgegAgx4YPl3fWrHEEpwZ+JubK54zOat/n5z8vGKtTs+7CtGkyumNHUngYD+vr1QxsMzqjNZnmq5yxnwChsaAgen35clfg2g8VUJL9reL6Wc+VrCubX7qu7FLJ2vKLJWvLv8HXjKDa4by8lxS8pr59o7erq1OGlwpAACtdVy6fHGVfG0G03aHQy5xoD4QfLCqKtm7e7AleigAvAtrWwztl7eGdFkB8zQia1RcXP80Z+w6if+7fP3pv40bP8LwABLzaQzsUwGYjaCaIFkDwgd69o8jn4oEgArdPlhsLCuSJMWPkv+vXpwUQ7hrvwiXryr4ygmScsVJLcF5e9MaKFbZAjo0YYbvrOFBYKO1cPZUgYkGsqpAjqyoseIEKIjwUelcwdgti/5ozx7WLAtpvo0dbkE6OG+cZoLKxFUskhhEka+rW7VlB1AihpydMSHmdA0TLnfPzOydATjQ3FjTk/a1bvQMsKOh8ALlpvm9VTRiTTuteUhceNcqChGDS+QAytgsCz06ebAuoZdEiebykRO7v1cupZPU4iNhF7ZwGKBgbZLleYWHUznXPl5UlhKbWPcw8O3g5DRBFAk50BuIuz55tO/NUve/ijBkJy1ZuEmkFJt1hZItFGBsLYYeLi60iaLxwuC2+f7Gy0hO4nAZobdeITkLYlfnzbYXDNfH9tpoaLQDT/cxZBZAzNhyiDg0c6Fjba4wB9Oq6OQsQ1WVBdBSi/p4711H48dLSRy48Y0YgAHZYPZH37PmplTT362dVjJ2Et2gOIpkG2GH1RMHYWghCipJM/Pny8oQpDHJDzFTA7iiATgNFiIzXE3n37i8Ixq5BkFP5SdrMxOMjRz5eE50GYGcDwIzWEyPhcAnE/DJsWFrrmowNuDXSHLg5fq/dTOwoF+6QeqKqNKdSrpIuBtZI/F7MVD+DCCDGAkiz9noi3JcT3bFyu9parQDbamo8V2PcRk/f0xhBVGC579ChWuHJmCt7rQe6jZ7ZAHA5hOBgXDfA5spKzy7s9jTOf4CMnYKQW6tXa515ze2CyLXFiz0DTBY9fQUYCYXeVjU7p63bw/p6eXnWLCtCJ6v96Uxj3EZPXwHuIxoAEagcO82kI4MHpwwNax7c1m7mpRJE3JzG+QpQnXnYzRLMvCMxeDgTQZ/fg23btLm52zQmGSCvALXskVX+BzjxAuG2Qh0o1dVpDzB+A9SyR+aMXYaIe5s2/U8g1jzhADdIADO2R94fCr1pBZDevaW0CSBqj/tAo9tmI0DPe+SIaXZPtP/NNYCG7j0yN83PIODE2LG2AnPNhQ3de+RIOPwFBKBr3k4gTuQEDpcGDcpoEPF6aPQ4iq4pv1VSPe1mh++VOdEyCLg0c6atQKQxR9ulMThkykQa4xWg73tlTvRtMhdt3bLlMUS3A7sVuD9msN2xqC4X9n2vzIkEBNxctSrhTIk2NFgw0ECZrPocPwDf6cxEF0Df9sqcsSMQ4OZeh0xhwM0xq7F2Koh2MzFdgL7vlVUVxql3Jd1xv67OWjudWkTSBeg2imYSYLOOA3KZYCDwOOWautKYTP9/RxOMtUCAl8ZJmYI7ey3pBwHgXQhIdIguuwA6Gyd6CICJUg2Z5kAwwd9ABM/ZGZiJXYaMBRE0KTkdlwYfINHVTEThB7E0RsE7OmRIRtIYt5bJRPoEBNyuqnIFpsVlT/QTifSQIdoS6XSHfoCM/QgB15cuTQrvvIue6PbnIVjz4LY6t3JZB1B1Y9klufEzT2hoZ/MKMGuNMzYRAv6YODGh0OOaeqJzDuBexj5R9b5EQhs19UTnHMDdodAznOiGdaiU4O5vo6ae6JwDCOOMNUDEhYqKjPdEy1wEqG4kHSwq6goinm8lxc6Gry9b5rknWtilMy5vrGdNWuLVBFGlm/7AFpc90aneWA88wKY+fV5Uzzb9M2+etjWuVfONdWVZBxDGiYohpqlvX9mmsT7YqvHGelYDhAmiHyAIibOuElerxhvrQQD4hiD6E6LOOFyylj7eWM96gLBIOPyh6th3uqkuHUb8uzG6b6wHAiBMhMOFqth6esIE1+4c/26M7hvrgQEIEz17fsxN84qq6bm9/pXKSBWg6oUZWf2l1ZqW9a+44S1UTvQrRKKIio5VnecnqQIM5Ctu/NElxCXqAApl+qsLFqQNTz3AKIjuuf0sgX7FTZhmD9VLo0Ciq8vrmfLNlSut34MZ7vYzBP4VN/novdQiQXRQgUSVGrsN3HC31kkXT4BiGVDNm4LIdUdoTrzi1r4Yiwe1OdHt+JQFQJunT7faOtD5hTriw+3bLXD4t4KHx7n3M/aa4dIyfuvSrzVyH9EAPGfMGTvrtsCAClAkHO7m9+fPOttjmu8I0xwoGJsjiLbGngs9h+ScE7UKxn4XjM1vCoVe9/uzdlmXGYGw/wCr3mIrgp90dgAAAABJRU5ErkJggg==;labelPosition=left;align=right;" vertex="1" parent="1">
          <mxGeometry x="358" y="110" width="50" height="50" as="geometry" />
        </mxCell>
        <mxCell id="SXlrUgiKZUOwkP90kZ7k-38" style="rounded=0;orthogonalLoop=1;jettySize=auto;html=1;entryX=0.5;entryY=0;entryDx=0;entryDy=0;exitX=1;exitY=0.5;exitDx=0;exitDy=0;edgeStyle=orthogonalEdgeStyle;flowAnimation=1;" edge="1" parent="1" source="SXlrUgiKZUOwkP90kZ7k-33" target="SXlrUgiKZUOwkP90kZ7k-36">
          <mxGeometry relative="1" as="geometry">
            <mxPoint x="650" y="160" as="targetPoint" />
            <mxPoint x="660" y="132" as="sourcePoint" />
          </mxGeometry>
        </mxCell>
        <mxCell id="SXlrUgiKZUOwkP90kZ7k-79" style="edgeStyle=orthogonalEdgeStyle;rounded=0;orthogonalLoop=1;jettySize=auto;html=1;entryX=0;entryY=0.5;entryDx=0;entryDy=0;exitX=0.75;exitY=0;exitDx=0;exitDy=0;flowAnimation=1;" edge="1" parent="1" source="SXlrUgiKZUOwkP90kZ7k-36" target="SXlrUgiKZUOwkP90kZ7k-74">
          <mxGeometry relative="1" as="geometry" />
        </mxCell>
        <mxCell id="SXlrUgiKZUOwkP90kZ7k-80" style="edgeStyle=orthogonalEdgeStyle;rounded=0;orthogonalLoop=1;jettySize=auto;html=1;entryX=0;entryY=0.5;entryDx=0;entryDy=0;flowAnimation=1;" edge="1" parent="1" source="SXlrUgiKZUOwkP90kZ7k-36" target="SXlrUgiKZUOwkP90kZ7k-40">
          <mxGeometry relative="1" as="geometry" />
        </mxCell>
        <mxCell id="SXlrUgiKZUOwkP90kZ7k-36" value="Models evaluation" style="rounded=1;whiteSpace=wrap;html=1;fontStyle=1" vertex="1" parent="1">
          <mxGeometry x="600" y="153" width="98" height="38" as="geometry" />
        </mxCell>
        <mxCell id="SXlrUgiKZUOwkP90kZ7k-39" value="" style="endArrow=classic;html=1;rounded=0;exitX=0.5;exitY=0;exitDx=0;exitDy=0;entryX=0.5;entryY=1;entryDx=0;entryDy=0;flowAnimation=1;" edge="1" parent="1" source="SXlrUgiKZUOwkP90kZ7k-13" target="SXlrUgiKZUOwkP90kZ7k-36">
          <mxGeometry width="50" height="50" relative="1" as="geometry">
            <mxPoint x="740" y="225" as="sourcePoint" />
            <mxPoint x="790" y="175" as="targetPoint" />
          </mxGeometry>
        </mxCell>
        <mxCell id="SXlrUgiKZUOwkP90kZ7k-49" style="edgeStyle=orthogonalEdgeStyle;rounded=0;orthogonalLoop=1;jettySize=auto;html=1;flowAnimation=1;" edge="1" parent="1" source="SXlrUgiKZUOwkP90kZ7k-40" target="SXlrUgiKZUOwkP90kZ7k-50">
          <mxGeometry relative="1" as="geometry">
            <mxPoint x="744.75" y="312" as="targetPoint" />
          </mxGeometry>
        </mxCell>
        <mxCell id="SXlrUgiKZUOwkP90kZ7k-40" value="Best trained model" style="shape=image;verticalLabelPosition=middle;labelBackgroundColor=default;verticalAlign=middle;aspect=fixed;imageAspect=0;image=data:image/png,iVBORw0KGgoAAAANSUhEUgAAAFAAAABQCAYAAACOEfKtAAAACXBIWXMAAAsTAAALEwEAmpwYAAAIEUlEQVR4nO2cWWxUVRjHr3GLS/RBE000Pvnig0vCgxhJhvnObWjLWkhlbQkkLCEhLNpiKWEJRAXCvqRlh5YSWkh80ReDJALnDKWyCSqLgFBADZRdaIE55n+ZQ8p478ydO2d65077JeeBtrTz/+V85/vOd75zDKPLuqxTGid6SxB9zhnbxYkuccbaOGMXOGM1e/PyPvL782WtCdN8TxDVAphgTDqM+yIcHuX3Z80qi+Tnv8KJFilwkbw8eWr8eHl14ULZumWLjDY0yLsbNshzU6dKYZrS+jmiD/z+3FlhwjR7CMbOWeBMU56dMsWCJnfutB1nJk2yZiJnbKPRmU0axlOcaJYgegAgx4YPl3fWrHEEpwZ+JubK54zOat/n5z8vGKtTs+7CtGkyumNHUngYD+vr1QxsMzqjNZnmq5yxnwChsaAgen35clfg2g8VUJL9reL6Wc+VrCubX7qu7FLJ2vKLJWvLv8HXjKDa4by8lxS8pr59o7erq1OGlwpAACtdVy6fHGVfG0G03aHQy5xoD4QfLCqKtm7e7AleigAvAtrWwztl7eGdFkB8zQia1RcXP80Z+w6if+7fP3pv40bP8LwABLzaQzsUwGYjaCaIFkDwgd69o8jn4oEgArdPlhsLCuSJMWPkv+vXpwUQ7hrvwiXryr4ygmScsVJLcF5e9MaKFbZAjo0YYbvrOFBYKO1cPZUgYkGsqpAjqyoseIEKIjwUelcwdgti/5ozx7WLAtpvo0dbkE6OG+cZoLKxFUskhhEka+rW7VlB1AihpydMSHmdA0TLnfPzOydATjQ3FjTk/a1bvQMsKOh8ALlpvm9VTRiTTuteUhceNcqChGDS+QAytgsCz06ebAuoZdEiebykRO7v1cupZPU4iNhF7ZwGKBgbZLleYWHUznXPl5UlhKbWPcw8O3g5DRBFAk50BuIuz55tO/NUve/ijBkJy1ZuEmkFJt1hZItFGBsLYYeLi60iaLxwuC2+f7Gy0hO4nAZobdeITkLYlfnzbYXDNfH9tpoaLQDT/cxZBZAzNhyiDg0c6Fjba4wB9Oq6OQsQ1WVBdBSi/p4711H48dLSRy48Y0YgAHZYPZH37PmplTT362dVjJ2Et2gOIpkG2GH1RMHYWghCipJM/Pny8oQpDHJDzFTA7iiATgNFiIzXE3n37i8Ixq5BkFP5SdrMxOMjRz5eE50GYGcDwIzWEyPhcAnE/DJsWFrrmowNuDXSHLg5fq/dTOwoF+6QeqKqNKdSrpIuBtZI/F7MVD+DCCDGAkiz9noi3JcT3bFyu9parQDbamo8V2PcRk/f0xhBVGC579ChWuHJmCt7rQe6jZ7ZAHA5hOBgXDfA5spKzy7s9jTOf4CMnYKQW6tXa515ze2CyLXFiz0DTBY9fQUYCYXeVjU7p63bw/p6eXnWLCtCJ6v96Uxj3EZPXwHuIxoAEagcO82kI4MHpwwNax7c1m7mpRJE3JzG+QpQnXnYzRLMvCMxeDgTQZ/fg23btLm52zQmGSCvALXskVX+BzjxAuG2Qh0o1dVpDzB+A9SyR+aMXYaIe5s2/U8g1jzhADdIADO2R94fCr1pBZDevaW0CSBqj/tAo9tmI0DPe+SIaXZPtP/NNYCG7j0yN83PIODE2LG2AnPNhQ3de+RIOPwFBKBr3k4gTuQEDpcGDcpoEPF6aPQ4iq4pv1VSPe1mh++VOdEyCLg0c6atQKQxR9ulMThkykQa4xWg73tlTvRtMhdt3bLlMUS3A7sVuD9msN2xqC4X9n2vzIkEBNxctSrhTIk2NFgw0ECZrPocPwDf6cxEF0Df9sqcsSMQ4OZeh0xhwM0xq7F2Koh2MzFdgL7vlVUVxql3Jd1xv67OWjudWkTSBeg2imYSYLOOA3KZYCDwOOWautKYTP9/RxOMtUCAl8ZJmYI7ey3pBwHgXQhIdIguuwA6Gyd6CICJUg2Z5kAwwd9ABM/ZGZiJXYaMBRE0KTkdlwYfINHVTEThB7E0RsE7OmRIRtIYt5bJRPoEBNyuqnIFpsVlT/QTifSQIdoS6XSHfoCM/QgB15cuTQrvvIue6PbnIVjz4LY6t3JZB1B1Y9klufEzT2hoZ/MKMGuNMzYRAv6YODGh0OOaeqJzDuBexj5R9b5EQhs19UTnHMDdodAznOiGdaiU4O5vo6ae6JwDCOOMNUDEhYqKjPdEy1wEqG4kHSwq6goinm8lxc6Gry9b5rknWtilMy5vrGdNWuLVBFGlm/7AFpc90aneWA88wKY+fV5Uzzb9M2+etjWuVfONdWVZBxDGiYohpqlvX9mmsT7YqvHGelYDhAmiHyAIibOuElerxhvrQQD4hiD6E6LOOFyylj7eWM96gLBIOPyh6th3uqkuHUb8uzG6b6wHAiBMhMOFqth6esIE1+4c/26M7hvrgQEIEz17fsxN84qq6bm9/pXKSBWg6oUZWf2l1ZqW9a+44S1UTvQrRKKIio5VnecnqQIM5Ctu/NElxCXqAApl+qsLFqQNTz3AKIjuuf0sgX7FTZhmD9VLo0Ciq8vrmfLNlSut34MZ7vYzBP4VN/novdQiQXRQgUSVGrsN3HC31kkXT4BiGVDNm4LIdUdoTrzi1r4Yiwe1OdHt+JQFQJunT7faOtD5hTriw+3bLXD4t4KHx7n3M/aa4dIyfuvSrzVyH9EAPGfMGTvrtsCAClAkHO7m9+fPOttjmu8I0xwoGJsjiLbGngs9h+ScE7UKxn4XjM1vCoVe9/uzdlmXGYGw/wCr3mIrgp90dgAAAABJRU5ErkJggg==;labelPosition=right;align=left;" vertex="1" parent="1">
          <mxGeometry x="769.75" y="107" width="50" height="50" as="geometry" />
        </mxCell>
        <mxCell id="SXlrUgiKZUOwkP90kZ7k-53" style="edgeStyle=orthogonalEdgeStyle;rounded=0;orthogonalLoop=1;jettySize=auto;html=1;entryX=0;entryY=0.5;entryDx=0;entryDy=0;flowAnimation=1;" edge="1" parent="1" source="SXlrUgiKZUOwkP90kZ7k-42" target="SXlrUgiKZUOwkP90kZ7k-51">
          <mxGeometry relative="1" as="geometry" />
        </mxCell>
        <mxCell id="SXlrUgiKZUOwkP90kZ7k-60" style="edgeStyle=orthogonalEdgeStyle;rounded=0;orthogonalLoop=1;jettySize=auto;html=1;entryX=0;entryY=0.5;entryDx=0;entryDy=0;flowAnimation=1;" edge="1" parent="1" source="SXlrUgiKZUOwkP90kZ7k-42" target="SXlrUgiKZUOwkP90kZ7k-59">
          <mxGeometry relative="1" as="geometry">
            <Array as="points">
              <mxPoint x="372" y="531" />
            </Array>
          </mxGeometry>
        </mxCell>
        <mxCell id="SXlrUgiKZUOwkP90kZ7k-42" value="Dataset Copy" style="shape=image;verticalLabelPosition=bottom;labelBackgroundColor=default;verticalAlign=top;aspect=fixed;imageAspect=0;image=data:image/png,iVBORw0KGgoAAAANSUhEUgAAAKAAAACgCAYAAACLz2ctAAAACXBIWXMAAAsTAAALEwEAmpwYAAAFOElEQVR4nO2dQU5kRxBEU+Z045PACVrjhenlnMacwd4N17HZOixkZods6Mzuej8qnhTLqckf+WhQUy2qQgghhBBCCCGEEEIIIYQQwr/cVdVDVT1X1UtVKXm3g7+q6o+q+jnizMr3FOE+9UX3d1V9HdzB1ry+8uUV77IOfl29PAdev+1GwMs7iIRN8jNf/wvwsbuEncmr30wHkfBCIuBcB5HwAiLgbAePlyxhZyLgfAffVi/1SETA63TwbfVij8JHC92ZcyS8HhHwY0TCKxEBP04kvAIR8HNEwmEi4OeJhJsJmOti5XtdjC5grouV93UxuoC5LlbeN3XoAua6WHlLSBcw18XK+/fTdAG75SfFljAC7iPpYwGJgOvF0M4SRsD1UmhnCSPgeiG0s4QuAjojZwnpC6bPdwvkLCF9wfT5SB2cjighfcH0+WgdnI4mIX3B9PmIHZyOJCF9wfT5qB2cjiIhfcH0+cgdnI4gIX3B9PnoHZzoEtIXTJ/vCB2cyRLSF0yf7ygdnKkS0hdMn+9IHZyJEtIXTJ/vaB2cL5TwlyM83I7zHbGD84UfdPpyhIfbbb6jdnC+QMLfj/JwO8135A7OF3zuGPdwlA+NOyNQlj0c/UPjzgiUZQ9H/9C4MwJl2cPRPzTujEBZ9nD0D407I1CWPdx2xYB4AfQbATcW8BkgXgTcWMAHgHgRcGMB75zf7ur8x6vL2EXAHxLeO77hfwsBV80XPk4EpBWzGcorIKyYzVAEhBWzGYqAsGI2Q84C3iL062JalJe3Z3946+IaHrRwFpD0/pkAefoPCSPgFQQk/QZBkLy+lxgBr1As/XeoguR7BLxOse+x4898+p+8dpJXwBsJuHrZgiYCwkrdLe/R+bctXBZMn0+gTHvQwmXB9PkEyrQHLVwWTJ9PoEx70II+NGk+5/MUAfmlOp+nCMgv1fk8RUB+qc7nKQLyS3U+T84C3iL0+QTKtActXBZMn0+gTHvQwmXB9PkEyrQHLVwWTJ9PoEx70MJlwfT5BMq0By1cFkyfT6BMe9DCZcH0+QTKtActXBZMn0+gTHvQwmXB9PkEyrQHLVwWTJ9PoEx70II+NGk+5/MUAfmlOp+nCMgv1fk8RUB+qc7nKQLyS3U+T84C3iL0+QTKtActXBZMn0+gTHvQwmXB9PkEyrQHLVwWTJ9PoEx70MJlwfT5BMq0By1cFkyfT6BMe9DCZcH0+QTKtActXBZMn0+gTHvQwmXB9PkEyrQHLVwWTJ9PoEx70II+NGk+5/MUAfmlOp+nCMgv1fk8RUB+qc7nKQLyS3U+T84C3iL0+QTKtActXBZMn0+gTHvQwmXB9PkEyrQHLVwWTJ9PoEx70MJlwfT5BMq0By1c/hpl59l2i42ApL/H23m23WIjIOkvkneebbfYCHhXVU+AQiNg7SngDwnv374dr/yZsPNsu8VKwGtDKtX5PEVAfqnO5ykC8kt1Pk8RkF+q83mKgPxSnc8TXUB6nJ9NoK4iYASsCAj4Ks4rYOUV0OXbym55j86/bbG6DEKpu+U9Ov+2xYtxqS7PpsH8SRPw2VhAl2fTYL7TBHwwFtDl2TSYe5qApCtV0wK6PJuG8ltV/UQTkHSlalpAl2dTIy9v33bv37ooooBkUsxtSM8pZikRMMUsJQKmmKVEwBSzlAjYLCappe822BKxCtXBdqwuPKkIGAkK08F2rC48qb0F3PHXZzrYVS5rcqWq8Fe5rMmVqsJf5bImV6oKf5XLnt2vVAl+lSuEEEIIIYQQQgghhBBCCKH24R8LxEcqCE1DXwAAAABJRU5ErkJggg==;" vertex="1" parent="1">
          <mxGeometry x="353" y="453" width="37" height="37" as="geometry" />
        </mxCell>
        <mxCell id="SXlrUgiKZUOwkP90kZ7k-45" style="edgeStyle=orthogonalEdgeStyle;rounded=0;orthogonalLoop=1;jettySize=auto;html=1;entryX=0;entryY=0.5;entryDx=0;entryDy=0;exitX=0.5;exitY=1;exitDx=0;exitDy=0;flowAnimation=1;" edge="1" parent="1" source="SXlrUgiKZUOwkP90kZ7k-43" target="SXlrUgiKZUOwkP90kZ7k-42">
          <mxGeometry relative="1" as="geometry" />
        </mxCell>
        <mxCell id="SXlrUgiKZUOwkP90kZ7k-70" style="edgeStyle=orthogonalEdgeStyle;rounded=0;orthogonalLoop=1;jettySize=auto;html=1;entryX=1;entryY=0.5;entryDx=0;entryDy=0;flowAnimation=1;" edge="1" parent="1" source="SXlrUgiKZUOwkP90kZ7k-43" target="SXlrUgiKZUOwkP90kZ7k-69">
          <mxGeometry relative="1" as="geometry">
            <Array as="points">
              <mxPoint x="198" y="531" />
            </Array>
          </mxGeometry>
        </mxCell>
        <mxCell id="SXlrUgiKZUOwkP90kZ7k-43" value="Copy_dataset()" style="rounded=1;whiteSpace=wrap;html=1;fontStyle=1" vertex="1" parent="1">
          <mxGeometry x="177" y="396" width="144" height="38" as="geometry" />
        </mxCell>
        <mxCell id="SXlrUgiKZUOwkP90kZ7k-44" value="" style="endArrow=classic;html=1;rounded=0;exitX=0.124;exitY=1.055;exitDx=0;exitDy=0;exitPerimeter=0;entryX=0;entryY=0.5;entryDx=0;entryDy=0;edgeStyle=orthogonalEdgeStyle;flowAnimation=1;" edge="1" parent="1" source="SXlrUgiKZUOwkP90kZ7k-8" target="SXlrUgiKZUOwkP90kZ7k-43">
          <mxGeometry width="50" height="50" relative="1" as="geometry">
            <mxPoint x="120" y="488" as="sourcePoint" />
            <mxPoint x="170" y="438" as="targetPoint" />
          </mxGeometry>
        </mxCell>
        <mxCell id="SXlrUgiKZUOwkP90kZ7k-52" style="edgeStyle=orthogonalEdgeStyle;rounded=0;orthogonalLoop=1;jettySize=auto;html=1;entryX=0.5;entryY=0;entryDx=0;entryDy=0;flowAnimation=1;" edge="1" parent="1" source="SXlrUgiKZUOwkP90kZ7k-50" target="SXlrUgiKZUOwkP90kZ7k-51">
          <mxGeometry relative="1" as="geometry" />
        </mxCell>
        <mxCell id="SXlrUgiKZUOwkP90kZ7k-50" value="Pipeline" style="shape=image;verticalLabelPosition=middle;labelBackgroundColor=default;verticalAlign=middle;aspect=fixed;imageAspect=0;image=data:image/png,iVBORw0KGgoAAAANSUhEUgAAAKAAAACgCAYAAACLz2ctAAAACXBIWXMAAAsTAAALEwEAmpwYAAARiUlEQVR4nO2dCbRe0xXH/y95CUnEXEQIEikRouaZUqIUUVO05rEoEkKitYqixNgqKq2ZakirKkpqaMU81lTzmFBEkEhEpue927W79rfWt7519z77nHvvew/7t9ZZKyvvO+dO+56zz54u4DiO4ziO4ziO4ziO4ziO4ziO4ziO4ziO4ziO4ziO4ziO4ziO4ziO4ziO4ziO4ziO4ziO4ziO4ziO4ziO4ziO4ziO4ziO4ziO4ziO4ziO4ziO4ziO42B5AFsCGAbgRwCOBDAKwHEADgWwN4ChANYBsKjfL6cI/QEcAuA6AE8DmAUgi2itAN4BcDeAswFsD6CnPxJHognA1gB+D+DdSGGztgUAHgQwEsAK/igcYhUA5wCYUpHQSe1LAJN4Ke/mj+KbxwAAlwCY386Cl+W0qQBG+BL9zWBlALewjpZ1svYRL8/NHX2TnPKhZe5kAHMShWMWb0b+BOAsAGN4F7w/gAMA/IT/jzYc4wH8G8DsxGO9AGArF4KvD+sBeDFSCKYBuImF7NsFjj0IwFEslNMjjt/GO/DFS7wPTgdwIIAvjA99HoAJAHataGPQlc0xNwD43HhOtDnatIJzcSpmMV4urbPdKe082ywJ4FTjrEgbpePb8dycgiwD4EnDg/2EvRg9OvCO9wRwAoAZhvMdx7OoIzAYwBUA7gFwb8F2J4DTAfSKvNt9AbwUeJC0A76SBbWzsBzrfG2Bc781wc1Hts7fsFemjOdyQSe7d/9nRwBzSzBFNLa72EthdZ+9Y9CpNi9wneTB2ALAvnW+4FH8733ZV7xigfG3AfBe4Boms4phYSDP9GU/l8cBLIJOwqAEX2lMo2XSIhhvBsa5DcBSCbP6KH7zY3axH7OnYzSAdSOPuSyAvwfG/4dho0T2xMcqfC7XoBNAOswrFV5kxjPrmso5LAHgWaV/G9vomiIE4JQE043WXgNwGoA+xnNo4t9rS/L1gWv6RcXPhdoR6GB+2w4XSe0p4Y2nZeB+pV8LgIOM17IS67DzKryOhWyGoaXRwuHsN5bGO1fotyEfq+rnMpt1zA5hW4PSXGY7M+ccLlV+T4K0i+E6enBAQpWCl/diXAFgacP57R7wWe+Tcz1Vr0r17b6I1aU0SL94Wdll7s76VmyjmeFT5aFtUncOuykvAJ3DXkYd7612fFhZQyO9cg/Dee6j+K8/4+AKy6p0WuJzoTZRGZeCcduVY5SToW16EfZXxn6dTTN9WdGXfnes4Tg0zvuRAvMZK/bXAriQTUWn8zXT/z1itOlldY2WytUN5/vTgIrSHcAOykv5VMFAhz7K5PBWe+6Kl1B2hK8ZDbuHsL3waaG1BkwA0uxL7SLjdWxkFJCHAZwEYEikZWAEL0+WyJv9jONeqIxBwv9hIOwr714/AeBq40uwnzI+WQvahTOUk9jO0P+iyBkipj0Z4cddyRCVQvkdRenPRmDtWNsax6Jre7Sie/chh6uFmCT0/zTBcRBND2X2u73g8lq0zWrQhSzcpYzXxqpGUXYObCJejgx+6KcshUXbM4bA2MHKzryM+6VyhHBgOqE1DDcuNUbO0shkkRIU8FSFQhgSvikAVk0Yt8oX2aLC/EHo+yqALqiIJkX3utnQ/86Kl97QhUvLw9L85pcthCnC14XVmIMBrBZ4Fg9UdC+/ZDtiSK2QZkGL6SuJocpJb1igb9HWFoiZWwvAG/xbynj7Yc5vyLn+fIlCmCJ83VmNqf2mlfVtibXZNFXFPSV/c4jxipuwEm5MPNkmDlGXLnYs25G0NlwJp9dmX5rdPsh5w2kJa+RbAfebVQh3ShS+iQk75KsUfXgfw319QjlPeok01ldmUKvL0UxPJYo35OoaplzkA0Yr+veUMehGSNyg3KT9heoHLxcQwrKFL2N7J/mn8xioLIWWvJIhyixK5q4Qkg+eTFClsptwoDmG0KD7FANsaONS44/CGDS2xJbKQ9WEsA/bMzUhPDHnxdmzAuHLuFEKaexSSPGFKGgWI1upxolCP/LPl8o44UAkGKEtu2SZpzGthm8pr+MHSr9HDA9WEsK+dXpjpqgelEZ5NIC/Bn5bRPgyrqogbUo2UyYHS5rBMko4HUXchMLgWoTJhSwMpTEl0Qf4a+XBW80PhwhjTFdcS9sbH6wmhGSUfTtinKqEL+NGPt48mpRYSEoZtTBW6E8BGr0DfR8S+tKKUAr9hAO0KrpJDSlC+W8Rx79JGOPyBGt9rBCuUrBsR1nCl7EOTqtBHr8U+pAObH3Gki4YCuo4TehHk08p7CscgGxnGusqN1NbOhvf7sZdbEjJ7ics+/MCGwxJCPuzHzVWYN4xmFoyYVcv/e0wRdWR3GvWUKmJiUIsqQC0wy4FaRklxzgSInJn8oOwsJai30juqzFCn6s5+efFxI1JTHj7Q7yjjhW+8/m3k4W//0u45iYlEGGdgt6VTwNRNM0cJZSnB1qfs8rdiREc9wr9yJ5YNOyLxpZ4PPAgUoWwG4dEaREn73OZjuYCwgde9jLhoUobi5sLhKaBx10gjBHKa5G8MjQzF+a9BPsblHg9qiZq5XJhDJpdpR1dnl2MvBz1WISQSqflQbm53+VzGMeRzaeyStBVmJ3+HCF8taAPaedPdtU8jhZ+/zvYeSTR1juuqkDVnoI+1RoIvdFCnaz5ENosukukvZKKBiFHCP+jnOd8TsEsyumRwhfSyaQ8kK1KsMmNTdxQHC/0oxezEKsrCrbGLor+F4O0A10zMlaRqp8iQQinFqycMEBZ1jJF+MDehLw+FMibx/JK6REre0TqniGzl2apMCG9VbTma5ysRK1Y6SFEE3+pKLd/yfl9m2K+sAghXUsqVyUKH3iZz+tHL6VE3mYgC1x/PesI/Unv1Rio5GIXYm9hYEqc1rhY6Ec2vaL2R9JJJZ5OmK1rQviKEhmdQrNSleAyQ/9lhb4tyq5UepFWLeGl7xq4f3nHpejtQhwkDEyVp1J8tyHTTT1rCmOQLU/iQyGnw8KGimOfXHOxSLPJGxH1XaTlmx54HlK4fkw+i/TSNJqV6llU6NO4+YvmqEQ/7m1CP1LIrayfYODM2zneEXHMF4RjkrE1lu+XoBdNE8aQUg/uEX6/RQl6txYgK70slMVYiBGJM9mkEjKntkzY1eXt2KkmtJU7hGNS8aVYhibqfvVIPl7KustDCoqgMLGiL2HIpjc9Ul0ycVzitnxSCXFi2whjaEtqS2KyVM3QLLncYgsMae6xyRFjvB85A0ppD7RLtSKlJ1AEtsaMyA1ToSQkcmulLMExdqHvCGM8p/SZE+k1qedXij0wJd2wK1e+zxtzuHEMaVfbJ9IjEYrrq+f1SKGvGdtbhCSlQhwgnAxZ9lMiWCQjah6rCmPQshQTfaNtWuoNqVLcIrkiU7lCqfi1Q6Bvb8UJ0Bw5e8UUWpdcjdrXnXoJfShiuhDDEh+KFMBA6XxWlhTGoODJGFfSgoAzXRO+zFhjRjMlzUsUwg2EfhQdFOs21XawjTPZvEihB8/IKfbiIBsnhtqMSbSoN6YotkSaIa6LVNpHBITvhRLyXEcr489VhPBAoc8/lVko71paIqJSVk70pgwS+lG6QCEkny4pnCkzZ+yu6NVIs8JJwu+PSRC+loDu1I3vT19DZYPrE4TwGuH3VO85Jv6SDOxWtkvcOO0q9COHRCG6KYUOtdS7VYQ+bYYo6npujQzMlFyHNE6M8LXyDJQ3y4zkpb7eY/AlfwlTqrrfHAg0nZsjhFMjI0yGC78n96SV4yOFPjTL0xcACiO5qChVUtMlpDJlVDvQypmR9Ym7C8boOXW5DanCt6cSnd04yw8rKIQbKy+wtBm4ROijJbc3MkEYgyo1aFxTgv0xehYKFQ+/v4RpeXjCTniiMmumCt8ZkdVg2wSTU7NRCK9IyNV9vuAmSouqps+daUjR4rQJK8wZiQrmWQnCExNX2DfSdDQ9UfjOjxC8xnZeohDOFv5GOm4eyyomG6r4UKRe4oyAjttD2DnPLKt0747KA9V2iNIykrGJwcqLkTNw74QqXFUIn1ZtqjkghHltobL8HlxC+Nt5ibnfUiwgecNKYQmlyqc2NTcpriQpxzUmc18L9bmsnYTvPWOtvktyZoPmSCEk/Sy2+gSla1po5sJNKWH1YyPTJpKQigvR7iclV+CziK/9SE79NiVCY3Vj5ahU4Xu4oazItoZi55cXEMI2JQenrxJGtlnBSGhLYnpeDKYWhZ7E2cJBSDCRuAxbI2MWUWLU6O2TuLIi4ZsoGHaXN3zcZlyO2mIRwtsT0l/fjjCiP5pYmmOAoHvOKPvL75srNycUJfGEYl23zoIXKzPp4srMMKudhC9GCK+KFMIFShGnXkr24c+N93Yn5Vw3Sky4CgUsR9NF0RFC8W3SrtTSN5Sgru0MpXCyqoTPmvKZscuwa44Q3hIZwHGCsmGx1OhbVKkERqYVjSYlciavCGhhpAf0USBzrJtSaWqhYQYNFcGZpsyCXRr00E8Eu1hZwhcjhDfmCGFXToJ6jqN4TlVMIL2VTV6j5ydWtbIYkSW33cyqvhmylmJHo9D9lPoyNV3F8q1arVLVxYbg0M2EF6Vs4YsRwvEFdKULArbEGYbWWiBoZFJVqZgpZTreDGRNNSklM8poC/kFieV8g/JfpL6JRQgnRH6mofZCVfUxwhZD1Yt1FcO3tehoElKiTcZ1/DTWDiRpF22PRM4mx1UsfNa844x37FaajcU3y/TeWCPeYxLAkqCZ7CXh4P81hK6PqvDGZRxWb0UTivcjgjgtbBR4+eYHVhCL4beM9qyhEsTWBb+UVZjDIj+pag0aLaO1BqJ06glFtnzBJpNtEvW0Xhz5MzHwzd+Mm6Wc7k7Gb8+ltE+4FqJGV8XwTB/8aRe6KnrNQkPkRDd2ET3N3oPGNl8RiNpvNOH5OPCF9RrnRjycmRxX9zMugDSI7YyLcepAP9aLhnMQxt2BguVZwq51cOBTtrV7IxntM75vjff7Nd4MWT48LZVcybiUSLuxs3IizxfQnZbiHVzIt7gomyqkc5hiqGbQhfUdy+xUZRtv+D7bykq+R8YpEDU2rehTumsrzyam5HJpSKXTaslHeye0S5VZrXGJWkP5dkktn8MSfb0BR420t+BN4dnUsomR9O6MP7jYZEywn8N1D1OejVTeeEFk1l1pDFSKKJbdRid+tO9VQ0kJ8APcy2AyKaNN4+9rWIy1/RVvQ8azYt5Ltl5kAG2RRkXKO4yR7XCBHwaWqHMM/UN6ab0gDmUTTNkmo8c4bm8R47msFygHPDtgr8srVVd2eybBhlkqXQJLcRmNEmVCQnN1YIzPDXkNeeV+D2dDsabYS20uFwsanfAd4wMD6sUCw25/cIU75oxXP6sbtVKWKemDLnltqnHGaDYUAc+4YoPF3JHHauxkP4ET769l4ZzAUcOXcQTKj/nBpJhuFlO+b1drrRGlPaQPTJbR8gq5dxhDAru0lDaDw8CsdOcwIIvyTwGYnY3dDEGt8yK/QLSCUmErtbWx2tPp6M2fCB1TQjuUZ9YUlUAqC9LY7ivrMwIFWcP4ZaeZbBRPMYgPZ1Wg6HM5NkKf/kYz2qj/tLIReJMOOMf12AZosUO+G1nl1OkEbGdMJK+1BzmgotSvPOboePsplUzz2sTE1cDpBCyX8OHC+WzZP7yk0KLVuNb2LYonIRPOY2RZubVOx0EP8MhEU0rGtrjb2G13BGfAbcBG4uU58bs/L6lbs/56LtdQlNIYMsNs7Evu14ylOD+3o32/mdI+YBugz3pfY4ZwBlpnEsSPOP8jlIPrfI0YwAlLUgXT9mhvc+3CIp8Dc77iLMnL3h3GagpF20z2duxadvK289VnRd5o3FhgA9HYWjjc6wKOaO7e0RfpfHXoz2670Zw4NJnj4qbWpTXO5XjFtzinYiIXVDqKAwZcr3Mcx3Ecx3Ecx3Ecx3Ecx3Ecx3Ecx3Ecx3Ecx3Ecx3Ecx3Ecx3Ecx3Ecx3Ecx3Ecx3Ecx3Ecx3Ecx3EcB52N/wHsf9Q5VQXj+AAAAABJRU5ErkJggg==;labelPosition=right;align=left;" vertex="1" parent="1">
          <mxGeometry x="721" y="320.75" width="48.75" height="48.75" as="geometry" />
        </mxCell>
        <mxCell id="SXlrUgiKZUOwkP90kZ7k-56" style="edgeStyle=orthogonalEdgeStyle;rounded=0;orthogonalLoop=1;jettySize=auto;html=1;entryX=0;entryY=0.5;entryDx=0;entryDy=0;flowAnimation=1;" edge="1" parent="1" source="SXlrUgiKZUOwkP90kZ7k-51" target="SXlrUgiKZUOwkP90kZ7k-54">
          <mxGeometry relative="1" as="geometry" />
        </mxCell>
        <mxCell id="SXlrUgiKZUOwkP90kZ7k-51" value="Train_final_model()" style="rounded=1;whiteSpace=wrap;html=1;fontStyle=1" vertex="1" parent="1">
          <mxGeometry x="687" y="399" width="116" height="38" as="geometry" />
        </mxCell>
        <mxCell id="SXlrUgiKZUOwkP90kZ7k-63" style="edgeStyle=orthogonalEdgeStyle;rounded=0;orthogonalLoop=1;jettySize=auto;html=1;flowAnimation=1;" edge="1" parent="1" source="SXlrUgiKZUOwkP90kZ7k-54" target="SXlrUgiKZUOwkP90kZ7k-62">
          <mxGeometry relative="1" as="geometry" />
        </mxCell>
        <mxCell id="SXlrUgiKZUOwkP90kZ7k-54" value="Final model" style="shape=image;verticalLabelPosition=middle;labelBackgroundColor=default;verticalAlign=middle;aspect=fixed;imageAspect=0;image=data:image/png,iVBORw0KGgoAAAANSUhEUgAAAFAAAABQCAYAAACOEfKtAAAACXBIWXMAAAsTAAALEwEAmpwYAAAIEUlEQVR4nO2cWWxUVRjHr3GLS/RBE000Pvnig0vCgxhJhvnObWjLWkhlbQkkLCEhLNpiKWEJRAXCvqRlh5YSWkh80ReDJALnDKWyCSqLgFBADZRdaIE55n+ZQ8p478ydO2d65077JeeBtrTz/+V85/vOd75zDKPLuqxTGid6SxB9zhnbxYkuccbaOGMXOGM1e/PyPvL782WtCdN8TxDVAphgTDqM+yIcHuX3Z80qi+Tnv8KJFilwkbw8eWr8eHl14ULZumWLjDY0yLsbNshzU6dKYZrS+jmiD/z+3FlhwjR7CMbOWeBMU56dMsWCJnfutB1nJk2yZiJnbKPRmU0axlOcaJYgegAgx4YPl3fWrHEEpwZ+JubK54zOat/n5z8vGKtTs+7CtGkyumNHUngYD+vr1QxsMzqjNZnmq5yxnwChsaAgen35clfg2g8VUJL9reL6Wc+VrCubX7qu7FLJ2vKLJWvLv8HXjKDa4by8lxS8pr59o7erq1OGlwpAACtdVy6fHGVfG0G03aHQy5xoD4QfLCqKtm7e7AleigAvAtrWwztl7eGdFkB8zQia1RcXP80Z+w6if+7fP3pv40bP8LwABLzaQzsUwGYjaCaIFkDwgd69o8jn4oEgArdPlhsLCuSJMWPkv+vXpwUQ7hrvwiXryr4ygmScsVJLcF5e9MaKFbZAjo0YYbvrOFBYKO1cPZUgYkGsqpAjqyoseIEKIjwUelcwdgti/5ozx7WLAtpvo0dbkE6OG+cZoLKxFUskhhEka+rW7VlB1AihpydMSHmdA0TLnfPzOydATjQ3FjTk/a1bvQMsKOh8ALlpvm9VTRiTTuteUhceNcqChGDS+QAytgsCz06ebAuoZdEiebykRO7v1cupZPU4iNhF7ZwGKBgbZLleYWHUznXPl5UlhKbWPcw8O3g5DRBFAk50BuIuz55tO/NUve/ijBkJy1ZuEmkFJt1hZItFGBsLYYeLi60iaLxwuC2+f7Gy0hO4nAZobdeITkLYlfnzbYXDNfH9tpoaLQDT/cxZBZAzNhyiDg0c6Fjba4wB9Oq6OQsQ1WVBdBSi/p4711H48dLSRy48Y0YgAHZYPZH37PmplTT362dVjJ2Et2gOIpkG2GH1RMHYWghCipJM/Pny8oQpDHJDzFTA7iiATgNFiIzXE3n37i8Ixq5BkFP5SdrMxOMjRz5eE50GYGcDwIzWEyPhcAnE/DJsWFrrmowNuDXSHLg5fq/dTOwoF+6QeqKqNKdSrpIuBtZI/F7MVD+DCCDGAkiz9noi3JcT3bFyu9parQDbamo8V2PcRk/f0xhBVGC579ChWuHJmCt7rQe6jZ7ZAHA5hOBgXDfA5spKzy7s9jTOf4CMnYKQW6tXa515ze2CyLXFiz0DTBY9fQUYCYXeVjU7p63bw/p6eXnWLCtCJ6v96Uxj3EZPXwHuIxoAEagcO82kI4MHpwwNax7c1m7mpRJE3JzG+QpQnXnYzRLMvCMxeDgTQZ/fg23btLm52zQmGSCvALXskVX+BzjxAuG2Qh0o1dVpDzB+A9SyR+aMXYaIe5s2/U8g1jzhADdIADO2R94fCr1pBZDevaW0CSBqj/tAo9tmI0DPe+SIaXZPtP/NNYCG7j0yN83PIODE2LG2AnPNhQ3de+RIOPwFBKBr3k4gTuQEDpcGDcpoEPF6aPQ4iq4pv1VSPe1mh++VOdEyCLg0c6atQKQxR9ulMThkykQa4xWg73tlTvRtMhdt3bLlMUS3A7sVuD9msN2xqC4X9n2vzIkEBNxctSrhTIk2NFgw0ECZrPocPwDf6cxEF0Df9sqcsSMQ4OZeh0xhwM0xq7F2Koh2MzFdgL7vlVUVxql3Jd1xv67OWjudWkTSBeg2imYSYLOOA3KZYCDwOOWautKYTP9/RxOMtUCAl8ZJmYI7ey3pBwHgXQhIdIguuwA6Gyd6CICJUg2Z5kAwwd9ABM/ZGZiJXYaMBRE0KTkdlwYfINHVTEThB7E0RsE7OmRIRtIYt5bJRPoEBNyuqnIFpsVlT/QTifSQIdoS6XSHfoCM/QgB15cuTQrvvIue6PbnIVjz4LY6t3JZB1B1Y9klufEzT2hoZ/MKMGuNMzYRAv6YODGh0OOaeqJzDuBexj5R9b5EQhs19UTnHMDdodAznOiGdaiU4O5vo6ae6JwDCOOMNUDEhYqKjPdEy1wEqG4kHSwq6goinm8lxc6Gry9b5rknWtilMy5vrGdNWuLVBFGlm/7AFpc90aneWA88wKY+fV5Uzzb9M2+etjWuVfONdWVZBxDGiYohpqlvX9mmsT7YqvHGelYDhAmiHyAIibOuElerxhvrQQD4hiD6E6LOOFyylj7eWM96gLBIOPyh6th3uqkuHUb8uzG6b6wHAiBMhMOFqth6esIE1+4c/26M7hvrgQEIEz17fsxN84qq6bm9/pXKSBWg6oUZWf2l1ZqW9a+44S1UTvQrRKKIio5VnecnqQIM5Ctu/NElxCXqAApl+qsLFqQNTz3AKIjuuf0sgX7FTZhmD9VLo0Ciq8vrmfLNlSut34MZ7vYzBP4VN/novdQiQXRQgUSVGrsN3HC31kkXT4BiGVDNm4LIdUdoTrzi1r4Yiwe1OdHt+JQFQJunT7faOtD5hTriw+3bLXD4t4KHx7n3M/aa4dIyfuvSrzVyH9EAPGfMGTvrtsCAClAkHO7m9+fPOttjmu8I0xwoGJsjiLbGngs9h+ScE7UKxn4XjM1vCoVe9/uzdlmXGYGw/wCr3mIrgp90dgAAAABJRU5ErkJggg==;labelPosition=right;align=left;imageBorder=none;" vertex="1" parent="1">
          <mxGeometry x="840" y="393" width="50" height="50" as="geometry" />
        </mxCell>
        <mxCell id="SXlrUgiKZUOwkP90kZ7k-58" value="" style="shape=image;verticalLabelPosition=bottom;labelBackgroundColor=default;verticalAlign=top;aspect=fixed;imageAspect=0;image=data:image/png,iVBORw0KGgoAAAANSUhEUgAAAKAAAACgCAYAAACLz2ctAAAACXBIWXMAAAsTAAALEwEAmpwYAAAKf0lEQVR4nO2di3cURRbG88ehrq/17aq7qYBEEMEIaIIuj9W8MIQEkjE8kpAHSSBAJoSQEBIyRxQVFZRdFI9Pwn9Snq/XwdBT1dPdBG9P7nfP+Q6cpKu66fubqrq3bg1VVTQajUaj0Wg0Go1Go9FoNBqNdp9m+hssFf8dVPfXXyV0K2iEL/kHsJoQrjyAC3cKVMQ7MH+8p3UD7/4fwt76z1bQDXqNAMb74Jk/APz69s0/IeRISAD/agBhhJAjoCiAMELIKVgUQBgh5BQsCiCMEDIIEQUQRggZBYsCCCOETMOIAggjhMwDigIII4RMRIsCCCOE3AkRBRBGCLkVJwogjBByL1gUQBghZDGCKIAwQshqGFEAYYSQ5ViiAMIIIesBRQGEEUIWpIoCCCOErIgWBRBGCFmSLwogjBDyTIgogDD1EPJQkiyAVjuEBFAeQNUQEsBsAKgWQgKYHQBVQkgAswWgOggJYPYAVAUhAcwmgGogJIDZBVAFhAQw2wCueggJYPYBXNUQEsDKAHDVQkgAKwfAVQkhAUwGoMmYqirdCCABFDUCWJkyHAHlnaBZhgDKO0GzDAGUd4JmGQIo7wTNMgRQ3gmaZQigvBM0yxBAeSdoliGA8k7QLEMA5Z2gWYYAyjtBswwBlHeCZhkCKO8EzTIEUN4JmmUIoLwTNMsQQHknaJYhgPJO0CxDAOWdoFmGAMo7QbMMAZR3gmYZAijvBM0yBFDeCZplCKC8EzTLEEB5J2iWIYDyTtAsQwDlnaBZhgCWvpT5pUV7/ucLTi0sJXvBM79etIPXxu3hK0O26+M+23Nl0I7dOGMv3r6UymHzdxaD9p2Fo7Z5tsu2zffYI58P2/O/zCXra6ng/PfN/jof2W7u9qUVeS8EMOKlwMFrGqudyv9wvuxLBVydhV679ug79uHmGmc/f2tdazcP77Yn/puPB97Sot23cMg+17nJ3V/LWrvtRKOdjPF8C3cKwb/D1Q/6j4Jp71zO2e7sjzMEEMO5NICjNybsiwe3eNuHhZGs3POc+2k2gDlOf0+21dqBr0+kBnBNY7Xt/WKEAFYigP1fjtrH9r4aGz4I9yo3hb/U/WaiPvEMI9+cTg3gluN7CGClAXjm1rlg9EkCCqbncmvButH/JOqzqFdydXZu6VIqAB9urglGXU7BFQRg3UhyUF756K3I58h9MpAKvqKaZrpSAbimsdq2XOgmgJUCIEa/h5qM8/rHP6wNQMDa8Mz354I/EaCsO1pvt469HxntvpSrc/b5VPtGe/SL43b65zl78OM+77T/dPsG7yiYLwPgi11bgmcIt2MQkkEAEZ26rn2kuSZyjYf1ne93SNe4+nyo0diBr+4NMvZfOux93p5PB1MBCIXvQwAzOgJuHfvAeS1+nvYZ3hja5ezz1d4GZ4rm6f0bEwUU+RgAup4feUfXtUzDCAK44dh7zmsbZw6kuj+SvY+1uqdVjHauNg2nW73T9UJKAB9tWRdM83FGWwIoCGBtX4Pz2u0nm1Ldv+/qiPf+E9+fc7bputzvbXP65tlUAEIY8Za3O1DoJYCVMgVjt+P0d1OJ748tNld/CDZcgQF04saE95l7rgzGAhDry+cPbo6M1Ls9oHMEFASwY/GI9/rnD7xhx29OJro/ttRcff2zZ6u3DfZwfc/QOtcdewTc4ZjKh6+fKhscEUBBAFEI4FuzQU98uD6A1Dd6hVVzeLuzn/V9OyLbIep2QnVmb2wADzkAe3u8+W47pH8IYMamYOj96c6y66navh124tZ02fuHp8GiNg3tjGz3RNt6Z7utjnyjD0AsGZ7at6HkA3Tht4WgXf9XYwQwiwBiS+1fPdvKQoh1HJLHUfcPAxA3rfNsx+vOdpuP744NINaSCJ7CP8faD+1QWsYRMIMAQiiFwpqvHIRY7GPE9PWD4MXVDqmWqOf+R5e7Cuf1wZ2xARy+Pm57HVH4xoH3gnYj37rfDdeAGQAwcOyt6SByLAchhG0tVx/Iv8Vdyy3XCwfcU/eWBCMgKnqQ2H4mlNh+pKnGTv04a099N0UAszoCLo9I68dbgpEuCkBUnYx+W7pV9/d9rzmvR3QcdV8knV3ttp9sjA0gggz8fudkm/MDAwg5AmYcwKIwlT3jWZcVVdtfGtk+1+Guet48vCvyfr6ihB0JouDDnw0Fv0eltisNhOIGAlghAEI4L+HbqitqPLRT4ZvCX+t/N/Jevoqc3VP7YwO4PGntCqoApmuNyjVgRgEsRsiIRH19tobWgjgr4roO+cGoyhpf/x2LR2IDiBrEqCqfnZP7nIUPBDDDAELTP83ZJ9vire1c6y8IgUGaZx68Nh4bQOwp34X6l4sl0zqWFK4zLwRwBQHEeQqfMwFS2n6xo+Dqc1MoTYKCVe/9Q9UpcYoRph1tfACi2ODeZy7NCa5pKm1HAFcQQKQinM5sqg5SFGn73TO139nvW6GdClRY+2DC+WJX3wg0vMcs7xRiAxierqM+jATwAQUhvqJLbEndT79vHt/j7BdTbvjaFzwJbVcqBnvMvgS4L3eY9wDYvlBab4jolwD+hQDivEaSahQUkJYrNBi7MeE9pO4ql/p3vs17AD28DnUVEBTV/+VYIgAReISvBZQE8AEBCHiKf5/9bd47TUaNJt2XjwXbYB9Md9rBayfvOeuBxC2c6juyiZSG6+swcIDJl1apPrTtLoRIi/hyjc92bvIe+8wnADAIRiKqfbgGvA8AkdxFdIoI0+fwqJEKckH7aOu6WIfUd51tT3wupLg1FnxNhyMgiPOtC/kEAELveAIoAnifI2DNkbfLQgKhRMoXgESBEiWs86JOxgGSx/e6S6zK6eVcXWTAlE8IILYMCeADmIJ9X/YTVu7yMW8fSb4LpiiMuqccZzXCwiiWpu9yRwHyCQGEqiPKzZiGSQkgFvXlHIop1tcehZq+4MInfNFQkoR2y4Vc5FS7XFgPDn/zZwn9SgLYEXH0gACmABBJ5XJTpG/dtzxwQcQaLl8KC5Ux2ErLfXIs1XfpIZp9Oecv88IHCQWrwXf1xegvnwJABEu+JQEBTAEgImBU+mJ/E/k1JITrT7UEe7OIZuOe4Shq/H+TwVSNU227Jtvt7rPtQV8ffToQRMNJoXNp6PpJ2zRzMNhVQak9Cg2wc+LbIYkauXuvjpYI9YxR7ZCYdrVL+4Wb/IbUFYCCKqR+BwSQAFnJd0AACaAlgBnbiqMKHAEJoI4PguF/0yDvBM0yBFDeCZplCKC8EzTLEEB5J2iWIYDyTtAsQwDlnaBZhgDKO0GzDAGUd4JmGQIo7wTNMgRQ3gmaZQigvBM0yxBAeSdoliGA8k7QLEMA5Z2gWYYAyjtBswwBlHeCZhkCKO8EzTIEUN4JmmUIoLwTNMsQQHknaJYhgPJO0CxDAOWdoFmGAMo7QbMMAZR3gmYZAijvBM0yBFDeCZplCKC8EzTLEEB5J2iWIYDyTtAsQwDlnaBZhgDKO0GzDAGUd4JmGQIo7wTNMgRQ3gmaZQigvBM0yxBAeSdoliGA8k7QLEMA5Z2gWYYAyjtBs8xqA5CqzHdQVekm/QKpBt0A0mg0Go1Go9FoNBqNRqPRaLQqafsdOwLQFCbbK/IAAAAASUVORK5CYII=;" vertex="1" parent="1">
          <mxGeometry x="740" y="506" width="50" height="50" as="geometry" />
        </mxCell>
        <mxCell id="SXlrUgiKZUOwkP90kZ7k-61" style="edgeStyle=orthogonalEdgeStyle;rounded=0;orthogonalLoop=1;jettySize=auto;html=1;entryX=0;entryY=0.5;entryDx=0;entryDy=0;flowAnimation=1;" edge="1" parent="1" source="SXlrUgiKZUOwkP90kZ7k-59" target="SXlrUgiKZUOwkP90kZ7k-58">
          <mxGeometry relative="1" as="geometry" />
        </mxCell>
        <mxCell id="SXlrUgiKZUOwkP90kZ7k-59" value="generate_features_for_API_calls" style="rounded=1;whiteSpace=wrap;html=1;fontStyle=1" vertex="1" parent="1">
          <mxGeometry x="470" y="512" width="220" height="38" as="geometry" />
        </mxCell>
        <mxCell id="SXlrUgiKZUOwkP90kZ7k-62" value="Deployment (ex: MLflow)" style="shape=image;verticalLabelPosition=top;labelBackgroundColor=default;verticalAlign=bottom;aspect=fixed;imageAspect=0;image=data:image/png,iVBORw0KGgoAAAANSUhEUgAAAKAAAACgCAYAAACLz2ctAAAACXBIWXMAAAsTAAALEwEAmpwYAAAQZElEQVR4nO2dC3BU9bnAP6oCCd6httV2OhXrjK3o7XRMuFSd1mmnxTt3rsJGbrk10U7HF+2tUvSiN4moULQWFVQuJIGI7KKVaFQC2SU1DwgayVkIkBIggCTC5rEQAskSSGBzke/Od0422ZzH7tndc/bsZr/fzDfZOXvO/zz+v/n+j3P2BIBhGIZhGIZhGIZhGIZhGIZhGIZhRpOZPR8ysr1S3D+PLw8TPzIfuAsyczAoLsO07J9xFTDxITMnXyYgRT5ffiY+ZGQvVghIyxgmLrCAjKWwgIylsICMpbCAjKWwgIylsICMpbCAjKWwgIylsICM5QJOewDhrsek4DshTNxYhF+DZ97+BFbWIDjcUqyqRnh67SfidwxjGqUHxoPD/fGweMr4WFyHYQxnze6rwCGUhZAvEFtgRcUErgHGOKhpdQilOuQbCqGUm2PGOBzuFfrlG5awiKuAiR2He1Hk8g2FXXieq4CJHod7btTySQJeBkf9o1wFSQZWwnWDTlgw6IT5WAZft+Qg1u2aDnbBH5OAUlM8CHb3HVacwuR78q5Js+U9OcmWu2DSfQuus+IYklI+vxO8gy7AofBc2Aw3xfUg7I1fB7vwZezyDUvYCmt2T47nKUyYmXdTelaeJz0rDynSbLneq+fkXxvPY0hKxMw3Ip8UTmiPq4QOd4lx8g03xx/GVT5bXntAvmEJZ+U+Fa9jSFqo2VUIGE8JHcJ/GS7fSMy1Sr50KQvy75fDQX0+anZDSHijabVn3/kdcAg+EwXsg7Wff9esw58wc+GNWvJRczzZtsia/nSyQZmOZFOT0O+EKtN2bBc2mChfoD/4jlmHn5aVW6Mqny2vnTKjWftNKQn9LugzZYfr3HdJ0yYmC0j7WF//czNOIT0r7zzLZ7KEfhdUghn3ee3CAfOzX0BC9z6orb3S9AzImS92qM9Hza7fCedJvoFymAJG4xAeipt8I03xg0afxsR7c6ek2fKqKBOm2XIrqU9o9D4Yo0EcF9fsN5IFm/mBBQZgnTA7/tlvOAvO4ipIdexCfSTSXLl+J97ubML/3HoI/1h3RAz6/JPyfeJ3EWbBnVafPmMl64Wf6ZXlR2WNuHp/Gx47dQZ9Pp9qfHnqjLjOP29sjEDC+p+yBKmKw10cTpBvbmjA1U0e7OlVl04taN2i/W34jQ0NOgQUVlt9GVKSibMX3iBOG9hy/cq5q1x/WlZeNY3qTP59x5lQctzy8V7c5+3WLZ48/tHZLZYRphnuMfMR/h0TZ98gpGXVCOk2vzs9C4NDXJaWVb174r3mXedERXPWftS9yzwz73r8Rzj52k/3RC1fINq6e3BqOAnXu21mnSbJJxdPEWk2865zopJuyz0XVsCsPHPuehB2YaOWENR0Nnae0hbLuw+7dzyBXZX/jl2V94iffd79mus3ebvxWyW7LXlSxp1uOxdewCzzrnOiQk2sZRmQml+7cF5LiDX7Paoi9Xa40fvRD7G1CLClcHTQMu9HN2Nvx07VbalPGKIZPifejTEBamI5A2r1AWnWXqsPaMutNK0PGGL0SyNYtQFHz+H38FjxFQrx5EHr0LpqA5Mfl/0jlIR3mNUHpCZWqw8opNkqU7IPaCkO4TktEWgaRS3zBeQ7Xgx4egNgf5n4ZI4Y9Pl0ifRdQMLejl2KcgqbPKH6gvlWXxYmXjiEGq1JZprLk4tDzS6J1f03STjVZxWlR8Xw1N8kCb0fTVWdJ9ScrLYLxj9kwSTsGw761SSgOxxqAw7q350p0RZPHpQNWwsBfScPKsqbXr5PS8DzZjwhwyQa9h1TtZpBuqUmF4ZGuJ12/fIFotMBeLp+vqK8X9c0azfD64QfWH15GLOhBwA0BJhXd1ghTFflv4l9vEgFpG1omkZe3hOfHQ41ELmHBUgw3BNm3ijN5Gf109+YR2wO99NaAjxRq2wyez9/KGL5AtG742FFeY9vOxhqIPJULKdGz0r6XVDjd0E//TX19zOpQP2EmTcJ6bZ2Q2ftQ9z/nbOlUSHMuRZH1AKea3lHUd5s117T3ifjd0GNpT9nHfPyGTFr7xC2aglw+/uCQpizpz04uOWqyAWsGI9nzyindKaX1IdqgqtjOTV6atzy31SPaflo8jTNFtt0hd29V0uAKwq2YusJ5S24gd2RN8MDex5VTsOc7MYrC7eGuiXXYGgGZAkjp27yPdcI6VkeVflIygkzY+vXONxfaApQVItFQrMyC3a3oL/6et3y+aun4NnuVkU5BfXNCKtrQzXBh2M5Nerzaf2clX5rbdl7dpIJIS1rvpZ8lBlj3oFDOKEpwNs78NaCCjzT26uQp8/r1iWhKJ/XrdieyryloELcR4hBSKeZv6kedAG/GSEcwiTbAtPkI+jGv7YACEs3qWZBKRO24sCeh8X+nVqfb2DPI6qZj2JV/UGEVzaHkg/FNycYwIW/w/cHnXBMpSl+0ojyxzQ7Jt13nZBm847Il+UxTD7CIXwVUoJVNXjNq2W497hX8/EqGlyca30X+5tfFoM+qw04ArGv7QR+87VN0tv0QwoofGXUaYqZMOgVJ/TGMawAfjuWHj67es617rRZT9Wn2ebtvmaOsa81C52BaCCA8PJGnLpqC7adOq0pld6gMqgsKjPsvh1uNOE9O/MGXfAUy5co6JGgqBZhSSnetHILNhzrjFq+Ro9Xkm9JKULRtrgLyCQieiSgePMTUZxvvFom9gl7VAYmWkEDDhrxUlMuykdl6d0vM8bRK4JDQHi9QhJoSak4Oi4UmsW5PC3xaA6R1hFHu0PbwetbpLJYQCYyAYdiZRXCkg+HhbrixQ9xenEV/vqDOvxj+U4x6PO/FFeK3w2LR9usDDfocHMGTDkiFYKC5u6WD/Xl9MRrToS1n0e+Hwc3wWOfaKQIBElFWY0E++tGhJc+lII+v1oufReteA4WMDWIRY54BDPGsVowFjDFsVowFjDFsVowFjDFsVowFnCMc1uODTJztkNm9nnIzEFFGCHJ8xsQZj2DcPvvpJj5DMKiEmPKzlQ5ZjqXjOxayMieafXlZUKRmbNUvQINFHDucu2yf/+GSQLmjERGzl9YgsTNfOErMNbMF678WDNhpo5zyMy51+rLzcgRm12TBaRmN1z5s/7HfAEzsrexAIlGZs450wW843fhy6c+ofkC9ll9uRk5+pqueDSP8dkHk2AkkhwsYAqSSHKwgClIIsnBAqYgiSQHC5iCJJIcLGAKkkhysIApSCLJwQKmIIkkBwuYgiSSHCxgCqIqQ/ZxyHjgV3DrnPGB1aJ92ymFXgFj2kcAOubbcmZARrZHdT9MgqFWSSSfjKQRMMC0++9mAZMBNRmCMl8Avwv8iSqg3wkXFedF58AZMAnQWUl+F1QnsIBVsZwbYyU6K2nABTdQRV8sH3cpUQS8WD7ukt8FlfRvFmI5N8ZKIqwkIc22WP4m1srxv9zugKkYHLQs8L1eAfWW5x558fpiI8+NsQIWkLGUzBy/TEJlhz7GDHhVRvjsR+uYkAH9kZwbYwWZOdWjp2ByqowWcPrU34QV8Cc332+GgNWRnBtjBRk5N4gVQ78NyciuhGm/nWK0gJsm3ycKdkVG9mW5eLTs9pt/g5smzzZewIzIzo1JAqIRMBBVV/9rvXw9WhZteUI4AZmxRywCbr9z7mX5erSMBWQMF1Ats22/cy6qCIh6MiVnQCYiAdUym14B1TIlC8hoCqiWsTTEwmjXU8uoAvcBUw81AetmzFdkrLq7n4xawLoZ8xXr1d39pCKjCixg6rHr+geXyUVo+P0yLPnez4dlKbn+F9jwh2VRC6i3vF3XP7jM6uvBxAmfzzfN5/OtOZBffEkuwt6nC7Cx3o3bFr0hBn3e86cVUQtI28rLo33I1zuQX3yJjomOjUUYg3R3d/+Tz+eb6/P5dgf+q9HRjbWjRZh0HzaXVmNTU9Oo2PffBVELSNvKy2v+oEqx36Nl24P/4xId41w6ZquvG2NQtvP5fH3yf6vl8Xhwz3PFuHPKb8XY+/xb4rL29nY8ePCgGPT5wDOroxaQtpWXp7Vfn/Jff9Exc1ZMVvxOWNxfBl/5XDd29XTs6pdXcEdHhyI70TL5eodeK1GItW3G4woBa3/1uGK9Q8vfx2j329VaO3Bk9bf6Dq0APFoIS62+nkyE8o164NMJ2Pfx+H7frnmdgQru6enB5ubmkaaxuVlcJhfh+IHDuPMHD40MGH74MFY9ulA5vfLIs4r1jh88oigv3H49rjmnmt/82v8dXQXYUjgSLGGSyieP4KxIFU/Zh0JNPvEfTre1YZPQgHtftItBn6vnL1EISMvk69G2amXK99sVlO2CpZMHS5jk8oXLimrR1dWlaDL3lGwaLeC4W3DP+5sV69G2ocr2aGQ7lnCMyxcqK6qJojaQqMl7Bd+79k4xtua/qjqAURVaZ7Zr4UyYGvJFkxX1DiRizXYtLGHqyBdJVtQ7gDEi27WwhInLoBPmmyGfnqwYagBjdLZrCR1/sroeUpZBF3SaLaDerGh2tmvRjnar6yFlibeAalkxztkOFVEAHVbXQ8oy6IKnrRAwEGdKAPe+YpF4hVIcLYQFVtdDSnPRCbP8TqjwuyDiV23EEmdLJQFq8wCblsdZugK4dLQAKr4oAP7vmYlC/yb47qALcgdd8IXZ8p3fCNhaBHisGPDThYC1+YAH34iLeB66G3KsCL5v9fVmQjDogmmDLlhDfTWj5RvYBHhsDeCXRZKINOjYng+4/VnAQ/9rinTYUgilrYUwAxHGccUnEZSlvA7Avo+Mke9COeDxt6Tsd3aoTJLkwBtSFvzsOcAjK40Rr/lNwF0vAdY+q/LSSiY5CK7Q48WA3e8BXtgUnXx+J2D721JZvR+MLA+Uv+81wG35gDteGM5aEceRlYCNrwDWPQ+4LW8krL6OTJSQcCSevKI71kkSkVR6Bex0SNtSmcHLg8vd81dJGOHP+iU8WgC4fzmge8lo6Sgoo1KZLECSEjxoOPmO1G8LrvwvV0vL6ftQ8nW9K63vXa/8bpRQBYA7X5TkaXgptHjUd9z9stR3DJaOmnKS8cDrUnm0rtXXkYkSuSwXy6XMRxlQLkTbWmlej9YJ3ub0hqGs+bZ6xlTIVSBlQJKpcalGE/uCMtt9/oL0nVofkgVIUkKOZsuk5pRGtMGVTQMMam7pu067tMzzllJMTQELAb8okIQKNMfUjLr/LGW3YOk+XQjY8BdpwBEqW1p9HZko0du/o1EyjZZbVSqfBL2wWXvbUAMKEkye6UjC+sWATctGmthwwQIkKRFPs2yWmlzKeIFmub8s9DahxDm8YigT5oduYltYwLGJEXN/4SKa6RYWMEVgARlLYQEZS2EBGUthARlLYQEZS/G7YCDpR8FFPA+YtAw6YUOyC9i2Fo5ZfR2ZKMFSuNrvgjf9LuhLNgFbi+By+zpoPLkBvs0CJDlYCxP9LpgTy/8KjpeAx9+C/hPr4V0Wb4xysQJu9btgqd8FPYkiYGsRXO5YB80n10OO1deHSbKsyNmOsTQrcrZjLM2K3LdjLM2K3LdjLM2KPJJlLM2KPJJlrJngdsJjfie42tZC1wkHvMPzdgzDMAzDMAzDMAzDMAzDMAzDMAyM4v8BClAndNUBDdYAAAAASUVORK5CYII=;labelPosition=center;align=center;" vertex="1" parent="1">
          <mxGeometry x="944" y="87" width="70" height="70" as="geometry" />
        </mxCell>
        <mxCell id="SXlrUgiKZUOwkP90kZ7k-73" style="edgeStyle=orthogonalEdgeStyle;rounded=0;orthogonalLoop=1;jettySize=auto;html=1;entryX=0.5;entryY=1;entryDx=0;entryDy=0;flowAnimation=1;" edge="1" parent="1" source="SXlrUgiKZUOwkP90kZ7k-69" target="SXlrUgiKZUOwkP90kZ7k-71">
          <mxGeometry relative="1" as="geometry" />
        </mxCell>
        <mxCell id="SXlrUgiKZUOwkP90kZ7k-69" value="Exploratory Data Analysis" style="rounded=1;whiteSpace=wrap;html=1;fontStyle=1" vertex="1" parent="1">
          <mxGeometry x="-48" y="512" width="144" height="38" as="geometry" />
        </mxCell>
        <mxCell id="SXlrUgiKZUOwkP90kZ7k-71" value="Reports and Graphs" style="shape=image;verticalLabelPosition=top;labelBackgroundColor=default;verticalAlign=bottom;aspect=fixed;imageAspect=0;image=data:image/png,iVBORw0KGgoAAAANSUhEUgAAAHgAAAB4CAYAAAA5ZDbSAAAACXBIWXMAAAsTAAALEwEAmpwYAAAMTklEQVR4nO2ce1BU9xXHf02niZN20uQPJzPpTKf/1PaPNu20mXaSNgmaYHQioY6Nz2gkDx+xwY0KYlwFgwhW4ztV4gMBDUpUUKJBo7DySBQU0AjxIsr7sbC73N/vgsYXp/NbN2bv7t0nu/fu4vnNfGcYuPe353c+95x7fufehZAhOvr6+v4kiuL7jLE9lNILlNI2Sul1m/jPF/jf+DGSJD2ttb04vBi9vb2PU0oXUkq/ZYyBL6KUXqSULrBYLL9EZ4fYAICHGWOzKKVGX8EyZ5kZY4sBYJjW68JBCGGM/Z5SWhMAsOAQ0XWSJP0RnazhoJS+wRjrDzRc9qP6RVGcipA1GIyxdymld4MIF2yRPCBJ0jyErOKglM7kjvcEp7rqMuzYdgTen7MRJo5PhNEjF1nFf46duxF2phdATbXgFWRK6QyErMLo6+v7M9/quANSYqiCebPXQ8SzsV7pP7PXQ+npak+Qb4ii+AxCDuIwGo2/YIw1uoLQ02OGtWk5XoONcNAK/S7o7ja5A32ts7Pz5wg5SINSmuLK+W2tXTBzaqoiuFER8RA1bTOMn5tl1bhpm6y/UzqWz8HnchPJyQjYYfCrnlL6O1EU/+qvJEka5So1d3QYYebUVU6wxk3ZCG+l18H8k3dAVwwy8d+9ta0WXp28wem8N6etgs7ObleAr3NbBrMW7ouwzgS88SBJ0kTG2F5b4yCola4+Ybs8Yl9YCG+uq3CC6kozPj5rPcd+juVLdgTVZptMvF0qSdLrAPAzEuoDAH4iiuIUxthVFZxj1dEj5XK4Ly6CWVlNXsPV2fRuViOMfGGRbK5jBeWqrMGmBkmSJnEfklAcvLVni1jVnCKKFKZPSpZBifnfRZ/h6myK2VIjm2v65JXWz1BzTZTS3Pb29kdJKA1RFJ9gjJ1X0xFcJ49XyIBEv7PTb7g6m6Lflqf7U19VqromLovFUs0fnJBQGADwU8bYUbWdwJWyIlMGY3ZO+6ABz85pk8256qMs1dfF1dzcfCY3N/fhUNi6JHsy1mQyQ13tVag+fzmgej162X0QY8enDRquzqYx0T9W5PwzAm039wX3iSe/GQyGLELII5rB7e/v/5W7Zv+FGgESFm6F0S/KK9RgaELsPrfQ3lhVApGj9RA5ZjlMX3vG7bETYv1vlngr7pMli7bBxZp6d6n6ZnR0NH/Y8ZAmgCmln7gy7sD+Inj5+Q+C7qgfNDW5yHXa3dMCEc/N//H453Qw93Ojy+P5XGrZzX10MLfYXRQfJ4T8XXW4APAQpbRLyShemIz8h51Dg6xRzy+EObldrve5a884ncMrZlfHz9nfZZ1TLfu5r4pPnVMEbDQa6bBhw6YRQp5UFTBj7J9KBpnNFng9erlsAa+8rIfJU7fC9JgM//XhMUXNWF0Ocz/vdpty3ztkkgF7KSIO5h2hbs/hc85YXebyc62ale3XWrgvxkTqZT6aND4RLOZeRcixsbGJhJDRagN+T8mYopOVMsOjxq2E+UuLQKc3DE6DLJze2XkFXpuZDq+99am1qRGQgmz1eb/Xw30S9epKma9cRfHu3bt3EkKmEEKe0Lx63ro5T2b0rPn5g4cbAMC6YGgQgLlmx+bLfLVtS54i4IKCgoM2wOq9QkQp3apkzOqUPTKj5y8tRsB6V1FcLPMV952ST0tLS7+yAX5JTcDpSsakJmfLjA5I9A7RCNbpDTJfcd+5AHzKBjgKAQ9twBPDAvAHywzwyd46OFDUBnmnO7yS5tFa7KwsQ49Hu/ka+Vr5mgMAeEpYAD5c0gmCBXzSByEAVOeg8nbv7c8v6XwwAMcnl8Fls29wuZaWaQ9UZyd+wdUYvbefr3lxctnQB5z0cYXPcLl2fOsDgCI/oBX5dnxahe9r4GtHwC6cU90dOlG88DRAqQ/pGQF76aCKToDUs9rCXf41QHGL73Axgr29l1kAytoAjjQA5F1RT4cb7oH1p35AwA+IkvAerD0EAQFrU0UPBSVhBGsPQUDAGMECRjCmaAFTtPYpU8AUHTqtyqGgJCyytIcgIODgRjDvGC0u0b7frPNR3GbeXcMI9gA4HOHqfoBcioA9RnCKxg8TdIMQtx0j2APg80aAzFqATy+GlzJr79mOgLGKBnyjIwQqXgG3SbgPFnAfjI0OARsd8nR4rgtgdxgWWbuxyPKu0YHbJDa0X5vlzQKt97M6P5WAjY4h3KosxVYlPk36GF9813yvKuA+GJ8HC35eBBjBIRBlAkZw8CO4svPetxfCSZWdGMFeAc64pH1FrPNTmZcwRXsEHHdae1A6PxVfgoA9At5wXntQOj+1oQoBewRcZwI41qjuNwfzAqAvGwG+MyFgfG1Wjw/8h6ySsJOlPQQBAWMnS8AIxq+uCJiitU+ZAqZo9R/4D2UlYZEVWqrvuQO9OYfg9kcroXdfHtR330LAQyWCrxhvQt/WHQBxcff1/dr1cO2qCSM43AE3dFyH6xu2yOD+oLv6ZdB+5pJf82KKDgG4V1sofL9mnSLc+4qPB/PBoyCYBxBwsCO4oVWC+p7bAZmrsaEHbq1cJYM5sGQJdBeehlspqU6g+7bttEY7RnAQAFsLoM8OWqPpTmIStFY3DGq+pro2uJO4Qp6Ol+qhterKvQupvd/pnszFwTd9144pOpCAedT0f5Iuj7SEBOgoq/Zrvpaaq9Z7q/18d5YnQvOlZvmx5gHoOcYf/MY7fPYS6Co+6/Fz8B7sZRq9mfpfl/dG44kyn+C2n621ArKf53ZyCjReMbo8p62iDu4sW+70+T1HixDwYCKYp2EeWW4LoLg4MOd96VUB1Hn6HAwsXiw792baGrja1OvxXL5dcizGbq9IRsD+Au4yVFjTsNKWpS99lxNkmr0f6k13Xc7HCyfHVHtj3SZoaOvz2ibe+KCZOffPZzuyELDPgM0D1i2JUnHTWN91z9GmuyBm5zpXuem7nLtPfL5Dx5yO5ff0K13f+5dZquqho7TKYzWP92CFbpK0I9MJxo0NW6zbI0dwpiMnnI9dZxeV/ELglbfDMdL23QHbaiFgLyOYNxxurNvoBIPt2uO2J2z8qtwp9d5MW2Mtzvi5Tqk8a5/bVI6Ag/A0qbm21drgd6yQewpOelU8dXx9wdqgAPutjEMxZS3G/OhGYQQPEjC/n939cKlDN+lD6Civ8e2+WN3gtLe1v1i6vzSoBhbvwXZO4OlUtvVI+giaa1v8cmjT5Q7r1sUxkjsNlarD5cIiywJwffPW+zD4PtObPak7Xbtmvt8Y4ZnA3ydBCDhA92AOlD9kN+cX+r1tcVR99y1r92mwFwtGML6yA5iiw+CBv4ARjC/dCVhkhe8rOwJGMEawgBGMESw4XAS4Dw6BNCpgisZvNgh+XgQYwSEQZQJGMEawgBHsulW5ZFW55pEkaKSElHInf9i3dXmbN+z/nTDXiXP+f78nXHW80qToiyEJOC6pBLILrsHxcyY4VWMZ0jp+zgRZBddgUVLJgwMYZUDAD8pFEBH+EVysuRN1IavikAacqmTM5vUHZEbPXXA0BBxpCEnNXfCFzFdbNhxQBFxYWJivBeBYJWO+OFwmM3rCv9dr7khdiGrChHUyX31xpEwRcHZ2dobqgEVRHKNkTFdnN7z6crzM8H9Fr4aYOTkwOzYfFZtv9UX0a2kyH42LXAzGrh5FwHq9PtUGd6JqgAHgEXZvOBn0WfYJmfGoWI8+yNlzQhGuxWK5MXz48Bk2wFFEzUEp3a9kFNea1L0I9lnvLu61aZ8p+pCrsrLya7v0/JKqgCVJeppSeteVcQX5pTBpfCKCflYZLPcNr1lc+U8UxYGYmJgEO8B/IGoPxlimKwO5KKVQXXXZupDP951C7Ttl9QX3CfeNO9998803Bju4XI+rDthkMj0mimKtO0NRzGcftLa2to8YMeJtO7iRRKtBKf2txWIxIUgWkIvZaDTSqKgonUP0Pkm0HO3t7b9uaWmpR8hsUHCbmpqaIyMjYx3g/o2EwkhJSRleVFR0yGKx3ETQzCew3GeFhYWHn3rqqZkOcHlqfoiE0Hhs7NixMdzY1tbWNgTN3IJtbm5u463IiIiIeQ5guUYRQh4mITgeIYS8wI0cOXLk+wsWLFixadOmLRkZGdtRGds3bty4mfuE+0YBKtdkQshfQi1ylcaTthSjtAgUUQT7PM+CJMzGo4SQEbZi4UVCyCso8ort4udAnyGE/CZU0zEOErrj/7RTZVjhhD2xAAAAAElFTkSuQmCC;labelPosition=center;align=center;" vertex="1" parent="1">
          <mxGeometry x="-114" y="434" width="55" height="55" as="geometry" />
        </mxCell>
        <mxCell id="SXlrUgiKZUOwkP90kZ7k-74" value="Hypothesis validation" style="rounded=1;whiteSpace=wrap;html=1;fillColor=#fff2cc;strokeColor=#d6b656;fontStyle=1" vertex="1" parent="1">
          <mxGeometry x="723" y="-5" width="144" height="38" as="geometry" />
        </mxCell>
        <mxCell id="SXlrUgiKZUOwkP90kZ7k-78" value="" style="group;fontStyle=1" vertex="1" connectable="0" parent="1">
          <mxGeometry x="473" y="83" width="177" height="68" as="geometry" />
        </mxCell>
        <mxCell id="SXlrUgiKZUOwkP90kZ7k-67" value="Cross_validation" style="rounded=1;whiteSpace=wrap;html=1;fontStyle=1" vertex="1" parent="SXlrUgiKZUOwkP90kZ7k-78">
          <mxGeometry x="79" width="98" height="38" as="geometry" />
        </mxCell>
        <mxCell id="SXlrUgiKZUOwkP90kZ7k-33" value="Trainings" style="rounded=1;whiteSpace=wrap;html=1;fontStyle=1" vertex="1" parent="SXlrUgiKZUOwkP90kZ7k-78">
          <mxGeometry y="30" width="98" height="38" as="geometry" />
        </mxCell>
        <mxCell id="SXlrUgiKZUOwkP90kZ7k-68" value="" style="shape=image;verticalLabelPosition=bottom;labelBackgroundColor=default;verticalAlign=top;aspect=fixed;imageAspect=0;image=data:image/png,iVBORw0KGgoAAAANSUhEUgAAAGAAAABgCAYAAADimHc4AAAACXBIWXMAAAsTAAALEwEAmpwYAAAH8klEQVR4nO2da6xcVRWAt1Qt4AsIyCPtzN6nlzZcoj9QWrQqamgQIuGXGOQpwQdUowSMsf64VAJWoZDLPXsNk1ZKiBJSEwjqD4qgIQHCS15NTS0QboxY22J7z1pzb2tse8iauUBLO3vte8/MmT1zzpecf3PO2nut/Vx77TVKlZSUlJSUlJSUlJSU9BHG4t7mA7TTWPyXAXpdAz2pge7WgD/VMV44b3V6VK/L2TfMH5s8xQAtN5YeMJY2qTT9gOv3xuKkAUrbPhb3V+/YdUx+NehDzh5JP6gtfdMAPW4A9x2kwLFkoetdA7TLZQAN9I/8atJnDI2+9XFt6UcGcLydAqtxcqXrG9riNqcBLP42vxr1Gdric87ho6lAWuP8BuA/nd+I6bp270qyZ/RYulH1GxHQtzwq93fXN3jSdb0f1XCp492OKF8Djqi+ZCQ9QlvcKE2iQ6N4QrtPsIEc7+498datH3G8W2Dlz6QX2OSCdu8biy85lPOKS3bhld9kJD3C2Yqb80DjBpcieZnJvaQCE1EVkrN4RcV7AGkCH+gx36yhE6uWvuLz2yimiw+uIO4zFv9qAK/mfUHXyjioyo/qUxVef2tLGI3Rp3znAg1EBqheqeFwHuWcjfKrkKxSIaMhWXTw0hDHuTdI71VqOBzVd35C5cjsWj++MG/NxHEqRHjXeriNkbb0xNBoOlcFhpn9HPA0byJVSHCr4GGnfaHxfsmvkzcZJ+GnFq3d8TEVAp+ppx/SFh/z6L4/UwFhshig1bP/GESjMkDr/AqN+xbEdLoaEAOY5l4j+UlPK3HoErJt69/PjjcVEMapWHpw+pxBMAD+X8f4pZ5UoFJvnGws/derkNC4QgWGEdwLvJE7xD1++Mb17wjok7lXQAP9yaf1R4DXqAAxDuW/95vkKu69Hka4J0RPJj+/UoFiBOUf8LuVPkPsApt8PpeCD69PPyy5gVuFogd4l6sCxXgo/92dOuCfPYzwglqfzsmj4Mt9xsVgd4zTeCl/Gh7jpw/9nfWuWvy+6ibsXzeAW6XuGNUa56vAMTP052tonCsPuTjOZ9xdK7S29MPgJqRZMhuvpuHlqbTqq9FFqlt4nGDtXmCn5qsBJapPVaRQGA34bHeE13Cpx8T7azXgaEu/FOeCu5LPdVywsXiv2/JEoU+8ndqAaov/yxLNMWOq69IjxSg0oLoqCEZojLxQ6egS3NRomdTtKmONM1RBqIw1zsh1GNIWb3N3OXxOFQxjaZNghFV5rn5+rgqGBrpFaJQbOyJoYR2PlxxS0V2Tn1UFQ8fJEmEe2OcKDPMXZPFsYfWzPWSfT9do+ohou9MItYnFmeUYi9cKa/+HVEExgBucjTPG72QWoi3Gwpr3ZlVQDOCtwjwwllmIBnzU3c3oElVQjKVLhcXJw9mFAL5YTsCzm4i1pWdUVqTDFw6KVQVFQ7JImB83ZxdiaYdLCC9TVUGpxo2ThDngP5mFSI4nPqJUBWVoNJ3rXqLjnsxC+CMuIeyoUwVlKBcDCDcRfaKfB5WIz4rdQ9C2zEK0pS1uKyeLVEGJasmpbt3Qq5mF8BGbe7eXLFEFxdQmFjtHB8C/ZRaiLT5SbsQOj7aNywUDbFBZ0UC26OfA7eDIP2EnPKqyogG/2/Xtdp/CdwScw3MNv5dZCF/9FGf6EC4q5M36dI4BeksYgr6YWc5wvO2jYpi2nTxTFQwtHchY3N+xKBHx/NPSTapgaMARwQAvdUwYT7TCjs+ZFmAQMY40CR0/lI9i/IIgjHvBp1VBMOL6nyOl/TIF+LE+nSN5RbWl36iCoIHWCrrAjjspOepZGPN29+SuVM40o0SAGu4hme7uuGC+DSgOQ0Ar1YCjAW8Xhx9IzuqWcKdfiONHOYRbDSg6nqpK7nkN+HL3CgCNyyTra4u/m+l3TegpYKbhunmMAsu7fEEP35Q2ILxqmonyDVCqAoeTwMrKxzdPrqdHd7UgVaAfy72AXvNJP2OmlR+6AXji5fNdsd6d8P34JOfwiAzmlcDvfZVvQjZAKwTxDx6NbgvrJpcyGaBzPMZCDtr6gY/yTcAG0ICrveoK9I1cC9bM7ywVyuLe998aPJzyTaAG4Lx1XsrvRXxs68agV7KOPXzH1qV8E6ABIpt82ytjCnsIehWYYCD5umcyi0npXpUKCE557FWvXgw9hxQWaJVnQZ2PCgROKuWVpqa10FgbRPr5Vur5wTAAYwBXeJT58WCiAqfXyRsHxQCMc8i0tLkCE8eq4AJVLW0eFAMMjaZzOeXmoWXFrQviiSEVIkOjk/O8cgn12ADVuHES+7X80tTQGwcof5yj4VTIGNu4I1QDmNrEYk4jYACneKKtWjxNeofTL/MBC+dFDT4RiWud3wsDDLPzsHnLH+88uCW/s4rB+3y+U63Rl4MPQs6ifCMYoOX6wBXNP/uxk2fyrRwO+ZBC46tx42tOuRb3+vSC4MmqfCMbYN1s7uPyfwtIa3rfXjDQyjeSAQTvq+v8gUNmBrYXdEr5xmGAZmSe4JOJgL7atoxAtW6c4g2U8o3DABxfKb1bhcZ5s77L23xwnA3dNWX1MwboerEFx3hhu/crd+4yjvH/eY7xz+0gpR/RgPdlzVTIeUwP+P1OjtvpWujIoKGFO2qtiZQudX3DWPpFM79PjZaVrX2GmBota/3nJE+m+Bc2yPT/1OzkzOwtIyRXZbJySUlJSUlJSUlJSUmJyo+3AaPNqQg3G2TJAAAAAElFTkSuQmCC;" vertex="1" parent="SXlrUgiKZUOwkP90kZ7k-78">
          <mxGeometry x="78" y="32" width="19" height="19" as="geometry" />
        </mxCell>
        <mxCell id="SXlrUgiKZUOwkP90kZ7k-90" style="edgeStyle=orthogonalEdgeStyle;rounded=0;orthogonalLoop=1;jettySize=auto;html=1;entryX=0;entryY=0.5;entryDx=0;entryDy=0;flowAnimation=1;" edge="1" parent="1" source="SXlrUgiKZUOwkP90kZ7k-86" target="SXlrUgiKZUOwkP90kZ7k-3">
          <mxGeometry relative="1" as="geometry" />
        </mxCell>
        <mxCell id="SXlrUgiKZUOwkP90kZ7k-86" value="Monitoring" style="rounded=1;whiteSpace=wrap;html=1;fillColor=#000000;strokeColor=#b85450;fontStyle=1;fontColor=#FFFFFF;" vertex="1" parent="1">
          <mxGeometry x="294" y="-79" width="144" height="38" as="geometry" />
        </mxCell>
        <mxCell id="SXlrUgiKZUOwkP90kZ7k-92" value="Machine learning project workflow" style="rounded=1;whiteSpace=wrap;html=1;fillColor=#000000;strokeColor=#b85450;fontStyle=1;fontColor=#FFFFFF;fontSize=35;" vertex="1" parent="1">
          <mxGeometry x="-182" y="-141" width="1278" height="38" as="geometry" />
        </mxCell>
        <mxCell id="SXlrUgiKZUOwkP90kZ7k-91" value="Roland TALLA" style="text;html=1;align=center;verticalAlign=middle;whiteSpace=wrap;rounded=0;fontColor=#FFFFFF;" vertex="1" parent="1">
          <mxGeometry x="760" y="-126" width="91" height="30" as="geometry" />
        </mxCell>
      </root>
    </mxGraphModel>
  </diagram>
</mxfile>
